<svg width="257" height="197" viewBox="0 0 257 197" fill="none" xmlns="http://www.w3.org/2000/svg">
<g filter="url(#filter0_d_107_21)">
<path d="M133.415 85.3378L133.265 85.3185C131.472 85.088 130.122 83.5652 130.114 81.7545M133.415 85.3378L131.31 81.7492M133.415 85.3378C143.947 86.7688 151.874 95.8253 151.875 106.461C151.875 118.227 142.291 127.803 130.513 127.803H47.127C37.7913 127.803 30.1966 120.214 30.1966 110.889C30.1966 102.495 36.4807 95.2966 44.8088 94.1536C46.5975 93.91 47.9318 92.3814 47.9318 90.5757C47.9318 90.512 47.9304 90.4443 47.9274 90.3828C47.9261 90.3565 47.9242 90.3242 47.9212 90.29C47.9603 80.9979 55.5396 73.4476 64.8515 73.4476C67.0843 73.4476 69.2605 73.8802 71.3216 74.7342L71.3228 74.7347C72.2342 75.1111 73.2658 75.1009 74.1729 74.696M133.415 85.3378L73.6862 73.6029M130.114 81.7545L131.31 81.7492M130.114 81.7545C130.114 81.7549 130.114 81.7553 130.114 81.7557L131.31 81.7492M130.114 81.7545C130.031 66.5248 117.558 54.1277 102.313 54.1277C90.5718 54.1277 80.0395 61.5554 76.1095 72.6066L76.1093 72.6071C75.7771 73.5401 75.0771 74.2945 74.1729 74.696M131.31 81.7492C131.224 65.8598 118.216 52.9312 102.313 52.9312C90.0662 52.9312 79.082 60.6769 74.9821 72.2057C74.7598 72.8299 74.2915 73.3344 73.6862 73.6029M74.1729 74.696C74.1735 74.6957 74.174 74.6955 74.1745 74.6953L73.6862 73.6029M74.1729 74.696C74.1724 74.6962 74.1718 74.6965 74.1713 74.6967L73.6862 73.6029" fill="url(#paint0_linear_107_21)" stroke="#525B82" stroke-width="2.39314"/>
</g>
<g filter="url(#filter1_d_107_21)">
<path d="M121.211 90.8166L121.104 90.803C119.654 90.6166 118.562 89.3848 118.555 87.9197M121.211 90.8166L119.752 87.9144M121.211 90.8166C128.564 91.8164 134.098 98.1405 134.099 105.566C134.099 113.781 127.407 120.468 119.182 120.468H59.6207C53.1408 120.468 47.8694 115.2 47.8694 108.728C47.8694 102.904 52.232 97.9061 58.0122 97.1132C59.4587 96.9157 60.5374 95.6794 60.5374 94.2191C60.5374 94.1691 60.5364 94.115 60.5339 94.0645C60.533 94.0472 60.5318 94.0255 60.5299 94.0015M121.211 90.8166L59.3332 94.0666M118.555 87.9197L119.752 87.9144M118.555 87.9197C118.555 87.9201 118.555 87.9205 118.555 87.9209L119.752 87.9144M118.555 87.9197C118.496 77.2298 109.741 68.5266 99.0391 68.5266C90.7972 68.5266 83.4033 73.7413 80.6446 81.4985L80.6444 81.499C80.3757 82.2537 79.8095 82.8639 79.0783 83.1887M119.752 87.9144C119.69 76.5648 110.399 67.3301 99.0391 67.3301C90.2916 67.3301 82.4457 72.8627 79.5172 81.0976C79.3584 81.5435 79.0239 81.9038 78.5916 82.0956C78.1592 82.2889 77.6659 82.2943 77.2297 82.1141C75.6536 81.4611 73.9881 81.13 72.281 81.13C65.1411 81.13 59.3332 86.9331 59.3332 94.0666M79.0783 83.1887C79.0788 83.1885 79.0794 83.1882 79.0799 83.188L78.5917 82.0959L79.0767 83.1894C79.0772 83.1892 79.0777 83.1889 79.0783 83.1887ZM79.0783 83.1887C78.3441 83.5163 77.5098 83.5244 76.7729 83.22L76.7717 83.2195C75.341 82.6267 73.8311 82.3265 72.281 82.3265C65.8227 82.3265 60.5651 87.5596 60.5299 94.0015M60.5299 94.0015C60.5291 93.9918 60.5283 93.9818 60.5273 93.9715C60.5272 93.9707 60.5184 93.8532 60.4792 93.7225L59.3332 94.0666M60.5299 94.0015C60.5298 94.0232 60.5297 94.0449 60.5297 94.0666H59.3332" fill="url(#paint1_linear_107_21)" stroke="white" stroke-width="2.39314"/>
</g>
<g filter="url(#filter2_d_107_21)">
<path d="M169.345 61.4066L169.194 61.3873C167.401 61.1569 166.051 59.634 166.043 57.8233M169.345 61.4066L167.24 57.818M169.345 61.4066C179.877 62.8377 187.803 71.8941 187.804 82.5298C187.804 94.2957 178.221 103.872 166.442 103.872H83.0562C73.7205 103.872 66.1258 96.2828 66.1258 86.9574C66.1258 78.5638 72.4099 71.3654 80.738 70.2224C82.5267 69.9788 83.861 68.4502 83.861 66.6446C83.861 66.5809 83.8596 66.5131 83.8566 66.4516C83.8553 66.4254 83.8534 66.3931 83.8504 66.3588C83.8895 57.0668 91.4688 49.5164 100.781 49.5164C103.014 49.5164 105.19 49.9491 107.251 50.803L107.252 50.8035C108.163 51.18 109.195 51.1698 110.102 50.7648M169.345 61.4066L109.615 49.6717M166.043 57.8233L167.24 57.818M166.043 57.8233C166.043 57.8237 166.043 57.8241 166.043 57.8245L167.24 57.818M166.043 57.8233C165.96 42.5937 153.487 30.1966 138.242 30.1966C126.501 30.1966 115.969 37.6243 112.039 48.6755L112.038 48.676C111.706 49.6089 111.006 50.3633 110.102 50.7648M167.24 57.818C167.153 41.9286 154.145 29 138.242 29C125.995 29 115.011 36.7457 110.911 48.2746C110.689 48.8987 110.221 49.4033 109.615 49.6717M110.102 50.7648C110.103 50.7646 110.103 50.7643 110.104 50.7641L109.615 49.6717M110.102 50.7648C110.102 50.7651 110.101 50.7653 110.1 50.7655L109.615 49.6717" fill="url(#paint2_linear_107_21)" stroke="#525B82" stroke-width="2.39314"/>
</g>
<g filter="url(#filter3_d_107_21)">
<path d="M157.14 66.8854L157.034 66.8718C155.583 66.6854 154.491 65.4536 154.484 63.9885M157.14 66.8854L155.681 63.9832M157.14 66.8854C164.493 67.8852 170.027 74.2093 170.028 81.6345C170.028 89.8496 163.336 96.5371 155.111 96.5371H95.5499C89.07 96.5371 83.7986 91.2689 83.7986 84.797C83.7986 78.9726 88.1612 73.975 93.9414 73.1821C95.3879 72.9845 96.4666 71.7482 96.4666 70.2879C96.4666 70.2379 96.4656 70.1839 96.4631 70.1334C96.4622 70.116 96.461 70.0943 96.4591 70.0703M157.14 66.8854L95.2624 70.1354M154.484 63.9885L155.681 63.9832M154.484 63.9885C154.484 63.9889 154.484 63.9893 154.484 63.9897L155.681 63.9832M154.484 63.9885C154.426 53.2987 145.67 44.5955 134.968 44.5955C126.726 44.5955 119.332 49.8101 116.574 57.5674L116.574 57.5679C116.305 58.3225 115.739 58.9327 115.007 59.2575M155.681 63.9832C155.619 52.6337 146.328 43.3989 134.968 43.3989C126.221 43.3989 118.375 48.9316 115.446 57.1665C115.288 57.6123 114.953 57.9727 114.521 58.1644C114.088 58.3577 113.595 58.3631 113.159 58.1829C111.583 57.5299 109.917 57.1988 108.21 57.1988C101.07 57.1988 95.2624 63.0019 95.2624 70.1354M115.007 59.2575C115.008 59.2573 115.009 59.2571 115.009 59.2568L114.521 58.1647L115.006 59.2583C115.006 59.258 115.007 59.2578 115.007 59.2575ZM115.007 59.2575C114.273 59.5852 113.439 59.5932 112.702 59.2888L112.701 59.2884C111.27 58.6956 109.76 58.3954 108.21 58.3954C101.752 58.3954 96.4943 63.6284 96.4591 70.0703M96.4591 70.0703C96.4583 70.0607 96.4575 70.0506 96.4565 70.0403C96.4564 70.0396 96.4476 69.9221 96.4084 69.7913L95.2624 70.1354M96.4591 70.0703C96.459 70.092 96.4589 70.1137 96.4589 70.1354H95.2624" fill="url(#paint3_linear_107_21)" stroke="white" stroke-width="2.39314"/>
</g>
<defs>
<filter id="filter0_d_107_21" x="0.282347" y="24.2135" width="219.797" height="171.794" filterUnits="userSpaceOnUse" color-interpolation-filters="sRGB">
<feFlood flood-opacity="0" result="BackgroundImageFix"/>
<feColorMatrix in="SourceAlpha" type="matrix" values="0 0 0 0 0 0 0 0 0 0 0 0 0 0 0 0 0 0 127 0" result="hardAlpha"/>
<feOffset dx="19.1451" dy="19.1451"/>
<feGaussianBlur stdDeviation="23.9314"/>
<feComposite in2="hardAlpha" operator="out"/>
<feColorMatrix type="matrix" values="0 0 0 0 0 0 0 0 0 0 0 0 0 0 0 0 0 0 0.6 0"/>
<feBlend mode="normal" in2="BackgroundImageFix" result="effect1_dropShadow_107_21"/>
<feBlend mode="normal" in="SourceGraphic" in2="effect1_dropShadow_107_21" result="shape"/>
</filter>
<filter id="filter1_d_107_21" x="17.9552" y="38.6124" width="184.348" height="150.06" filterUnits="userSpaceOnUse" color-interpolation-filters="sRGB">
<feFlood flood-opacity="0" result="BackgroundImageFix"/>
<feColorMatrix in="SourceAlpha" type="matrix" values="0 0 0 0 0 0 0 0 0 0 0 0 0 0 0 0 0 0 127 0" result="hardAlpha"/>
<feOffset dx="19.1451" dy="19.1451"/>
<feGaussianBlur stdDeviation="23.9314"/>
<feComposite in2="hardAlpha" operator="out"/>
<feColorMatrix type="matrix" values="0 0 0 0 0 0 0 0 0 0 0 0 0 0 0 0 0 0 0.6 0"/>
<feBlend mode="normal" in2="BackgroundImageFix" result="effect1_dropShadow_107_21"/>
<feBlend mode="normal" in="SourceGraphic" in2="effect1_dropShadow_107_21" result="shape"/>
</filter>
<filter id="filter2_d_107_21" x="36.2115" y="0.282347" width="219.797" height="171.794" filterUnits="userSpaceOnUse" color-interpolation-filters="sRGB">
<feFlood flood-opacity="0" result="BackgroundImageFix"/>
<feColorMatrix in="SourceAlpha" type="matrix" values="0 0 0 0 0 0 0 0 0 0 0 0 0 0 0 0 0 0 127 0" result="hardAlpha"/>
<feOffset dx="19.1451" dy="19.1451"/>
<feGaussianBlur stdDeviation="23.9314"/>
<feComposite in2="hardAlpha" operator="out"/>
<feColorMatrix type="matrix" values="0 0 0 0 0 0 0 0 0 0 0 0 0 0 0 0 0 0 0.6 0"/>
<feBlend mode="normal" in2="BackgroundImageFix" result="effect1_dropShadow_107_21"/>
<feBlend mode="normal" in="SourceGraphic" in2="effect1_dropShadow_107_21" result="shape"/>
</filter>
<filter id="filter3_d_107_21" x="53.8844" y="14.6813" width="184.348" height="150.06" filterUnits="userSpaceOnUse" color-interpolation-filters="sRGB">
<feFlood flood-opacity="0" result="BackgroundImageFix"/>
<feColorMatrix in="SourceAlpha" type="matrix" values="0 0 0 0 0 0 0 0 0 0 0 0 0 0 0 0 0 0 127 0" result="hardAlpha"/>
<feOffset dx="19.1451" dy="19.1451"/>
<feGaussianBlur stdDeviation="23.9314"/>
<feComposite in2="hardAlpha" operator="out"/>
<feColorMatrix type="matrix" values="0 0 0 0 0 0 0 0 0 0 0 0 0 0 0 0 0 0 0.6 0"/>
<feBlend mode="normal" in2="BackgroundImageFix" result="effect1_dropShadow_107_21"/>
<feBlend mode="normal" in="SourceGraphic" in2="effect1_dropShadow_107_21" result="shape"/>
</filter>
<linearGradient id="paint0_linear_107_21" x1="91.0356" y1="52.9312" x2="124.392" y2="128.75" gradientUnits="userSpaceOnUse">
<stop stop-color="#3D4C72"/>
<stop offset="1" stop-color="#1C243E"/>
</linearGradient>
<linearGradient id="paint1_linear_107_21" x1="90.984" y1="67.3301" x2="120.049" y2="121.278" gradientUnits="userSpaceOnUse">
<stop stop-color="#E5EFFB"/>
<stop offset="1" stop-color="#8697AE"/>
</linearGradient>
<linearGradient id="paint2_linear_107_21" x1="126.965" y1="29" x2="160.321" y2="104.818" gradientUnits="userSpaceOnUse">
<stop stop-color="#3D4C72"/>
<stop offset="1" stop-color="#1C243E"/>
</linearGradient>
<linearGradient id="paint3_linear_107_21" x1="126.913" y1="43.3989" x2="155.979" y2="97.3472" gradientUnits="userSpaceOnUse">
<stop stop-color="#E5EFFB"/>
<stop offset="1" stop-color="#8697AE"/>
</linearGradient>
</defs>
</svg>
