<svg width="185" height="167" viewBox="0 0 185 167" fill="none" xmlns="http://www.w3.org/2000/svg">
<g filter="url(#filter0_d_107_18)">
<path d="M31.6624 21.6981L31.1408 24.6174L31.1075 24.6241L27.9941 25.2017L31.1409 25.7859L31.7139 28.9947L32.2868 25.7859L32.3115 25.7819L35.4335 25.2017L32.2867 24.6174L31.7491 21.6095L31.7138 21.4087L31.6624 21.6981Z" fill="url(#paint0_linear_107_18)"/>
</g>
<g filter="url(#filter1_d_107_18)">
<path d="M63.5493 24.7707L63.027 27.6907L62.9937 27.6974L59.8804 28.275L63.0272 28.8592L63.6014 32.068L64.1737 28.8592L64.199 28.8546L67.3204 28.275L64.1736 27.6907L63.6367 24.6814L63.6013 24.4819L63.5493 24.7707Z" fill="url(#paint1_linear_107_18)"/>
</g>
<g filter="url(#filter2_d_107_18)">
<path d="M32.3264 49.4238L31.456 54.2987L31.4006 54.3093L26.2017 55.2737L31.4559 56.2488L32.413 61.6073L33.3695 56.2488L33.4102 56.2415L38.6231 55.2737L33.3693 54.2986L32.4723 49.2757L32.4129 48.9409L32.3264 49.4238Z" fill="url(#paint2_linear_107_18)"/>
</g>
<g filter="url(#filter3_d_107_18)">
<path d="M40.4871 83.509L40.0402 86.0121L40.0115 86.0181L37.3423 86.513L40.0402 87.0145L40.5311 89.765L41.0226 87.0145L41.0433 87.0105L43.7206 86.513L41.0227 86.0121L40.5618 83.4323L40.5311 83.2603L40.4871 83.509Z" fill="url(#paint3_linear_107_18)"/>
</g>
<g filter="url(#filter4_d_107_18)">
<path d="M90.0099 67.9393L89.6951 69.7L89.675 69.704L87.7969 70.0522L89.695 70.405L90.0398 72.3405L90.386 70.405L90.4007 70.4023L92.2841 70.0522L90.386 69.7L90.0618 67.8852L90.0398 67.7651L90.0099 67.9393Z" fill="url(#paint4_linear_107_18)"/>
</g>
<g filter="url(#filter5_d_107_18)">
<path d="M98.2043 53.0848L97.8909 54.8462L97.8708 54.8495L95.9927 55.1977L97.8908 55.5505L98.2356 57.4861L98.5811 55.5505L98.5965 55.5478L100.479 55.1977L98.5811 54.8462L98.2576 53.0314L98.2356 52.9106L98.2043 53.0848Z" fill="url(#paint5_linear_107_18)"/>
</g>
<g filter="url(#filter6_d_107_18)">
<path d="M87.8998 101.391L87.3035 104.734L87.2648 104.741L83.6992 105.403L87.3034 106.072L87.9591 109.747L88.6147 106.072L88.6434 106.066L92.2189 105.403L88.6147 104.734L88.0004 101.289L87.959 101.06L87.8998 101.391Z" fill="url(#paint6_linear_107_18)"/>
</g>
<g filter="url(#filter7_d_107_18)">
<path d="M63.5007 112.76L63.1872 114.522L63.1666 114.526L61.2891 114.873L63.1872 115.226L63.5327 117.162L63.8775 115.226L63.8929 115.223L65.7756 114.873L63.8775 114.522L63.5547 112.707L63.5327 112.585L63.5007 112.76Z" fill="url(#paint7_linear_107_18)"/>
</g>
<g filter="url(#filter8_d_107_18)">
<path d="M118.073 26.0315L116.665 33.9157L116.574 33.9331L108.166 35.4937L116.665 37.0711L118.212 45.7377L119.759 37.0711L119.826 37.0591L128.258 35.4937L119.759 33.9157L118.309 25.7907L118.212 25.2505L118.073 26.0315Z" fill="url(#paint8_linear_107_18)"/>
</g>
<g filter="url(#filter9_d_107_18)">
<path d="M29.124 101.543L28.2543 106.418L28.1983 106.428L23 107.393L28.2543 108.368L29.2114 113.726L30.1671 108.368L30.2085 108.361L35.4215 107.393L30.1672 106.418L29.2701 101.394L29.2114 101.06L29.124 101.543Z" fill="url(#paint9_linear_107_18)"/>
</g>
<g filter="url(#filter10_d_107_18)">
<path d="M128.241 107.818L127.37 112.692L127.314 112.703L122.116 113.667L127.37 114.643L128.327 120L129.284 114.643L129.324 114.635L134.537 113.667L129.283 112.692L128.386 107.668L128.327 107.335L128.241 107.818Z" fill="url(#paint10_linear_107_18)"/>
</g>
<g filter="url(#filter11_d_107_18)">
<path d="M91.5912 20.3389L90.9796 23.7671L90.9389 23.7744L87.2847 24.4527L90.9797 25.1384L91.6514 28.9053L92.3237 25.1384L92.3537 25.1337L96.0187 24.4527L92.3236 23.7671L91.694 20.2348L91.6513 20L91.5912 20.3389Z" fill="url(#paint11_linear_107_18)"/>
</g>
<g filter="url(#filter12_d_107_18)">
<path d="M134.361 76.7326L133.896 79.3438L133.865 79.3491L131.081 79.8667L133.896 80.3889L134.408 83.259L134.921 80.3889L134.943 80.3849L137.735 79.8667L134.921 79.3438L134.44 76.6532L134.408 76.4731L134.361 76.7326Z" fill="url(#paint12_linear_107_18)"/>
</g>
<g filter="url(#filter13_d_107_18)">
<path fill-rule="evenodd" clip-rule="evenodd" d="M80.1132 32.0605C68.0087 35.8432 59.4349 46.9389 59.4349 60.3043C59.4349 76.6959 72.5474 89.8086 88.9392 89.8086C102.808 89.8086 114.408 80.2262 117.687 67.366C120.461 91.0705 101.801 112 77.8435 112C55.9047 112 38 94.0953 38 71.9053C38 48.9574 57.1652 30.8014 80.1132 32.0619V32.0605Z" fill="url(#paint13_linear_107_18)"/>
</g>
<defs>
<filter id="filter0_d_107_18" x="7.99413" y="1.40868" width="74.1062" height="74.2526" filterUnits="userSpaceOnUse" color-interpolation-filters="sRGB">
<feFlood flood-opacity="0" result="BackgroundImageFix"/>
<feColorMatrix in="SourceAlpha" type="matrix" values="0 0 0 0 0 0 0 0 0 0 0 0 0 0 0 0 0 0 127 0" result="hardAlpha"/>
<feOffset dx="13.3333" dy="13.3333"/>
<feGaussianBlur stdDeviation="16.6667"/>
<feComposite in2="hardAlpha" operator="out"/>
<feColorMatrix type="matrix" values="0 0 0 0 0 0 0 0 0 0 0 0 0 0 0 0 0 0 0.6 0"/>
<feBlend mode="normal" in2="BackgroundImageFix" result="effect1_dropShadow_107_18"/>
<feBlend mode="normal" in="SourceGraphic" in2="effect1_dropShadow_107_18" result="shape"/>
</filter>
<filter id="filter1_d_107_18" x="39.8804" y="4.48192" width="74.1066" height="74.2526" filterUnits="userSpaceOnUse" color-interpolation-filters="sRGB">
<feFlood flood-opacity="0" result="BackgroundImageFix"/>
<feColorMatrix in="SourceAlpha" type="matrix" values="0 0 0 0 0 0 0 0 0 0 0 0 0 0 0 0 0 0 127 0" result="hardAlpha"/>
<feOffset dx="13.3333" dy="13.3333"/>
<feGaussianBlur stdDeviation="16.6667"/>
<feComposite in2="hardAlpha" operator="out"/>
<feColorMatrix type="matrix" values="0 0 0 0 0 0 0 0 0 0 0 0 0 0 0 0 0 0 0.6 0"/>
<feBlend mode="normal" in2="BackgroundImageFix" result="effect1_dropShadow_107_18"/>
<feBlend mode="normal" in="SourceGraphic" in2="effect1_dropShadow_107_18" result="shape"/>
</filter>
<filter id="filter2_d_107_18" x="6.20165" y="28.9409" width="79.0881" height="79.3332" filterUnits="userSpaceOnUse" color-interpolation-filters="sRGB">
<feFlood flood-opacity="0" result="BackgroundImageFix"/>
<feColorMatrix in="SourceAlpha" type="matrix" values="0 0 0 0 0 0 0 0 0 0 0 0 0 0 0 0 0 0 127 0" result="hardAlpha"/>
<feOffset dx="13.3333" dy="13.3333"/>
<feGaussianBlur stdDeviation="16.6667"/>
<feComposite in2="hardAlpha" operator="out"/>
<feColorMatrix type="matrix" values="0 0 0 0 0 0 0 0 0 0 0 0 0 0 0 0 0 0 0.6 0"/>
<feBlend mode="normal" in2="BackgroundImageFix" result="effect1_dropShadow_107_18"/>
<feBlend mode="normal" in="SourceGraphic" in2="effect1_dropShadow_107_18" result="shape"/>
</filter>
<filter id="filter3_d_107_18" x="17.3423" y="63.2602" width="73.0451" height="73.1716" filterUnits="userSpaceOnUse" color-interpolation-filters="sRGB">
<feFlood flood-opacity="0" result="BackgroundImageFix"/>
<feColorMatrix in="SourceAlpha" type="matrix" values="0 0 0 0 0 0 0 0 0 0 0 0 0 0 0 0 0 0 127 0" result="hardAlpha"/>
<feOffset dx="13.3333" dy="13.3333"/>
<feGaussianBlur stdDeviation="16.6667"/>
<feComposite in2="hardAlpha" operator="out"/>
<feColorMatrix type="matrix" values="0 0 0 0 0 0 0 0 0 0 0 0 0 0 0 0 0 0 0.6 0"/>
<feBlend mode="normal" in2="BackgroundImageFix" result="effect1_dropShadow_107_18"/>
<feBlend mode="normal" in="SourceGraphic" in2="effect1_dropShadow_107_18" result="shape"/>
</filter>
<filter id="filter4_d_107_18" x="67.7969" y="47.7651" width="71.154" height="71.2419" filterUnits="userSpaceOnUse" color-interpolation-filters="sRGB">
<feFlood flood-opacity="0" result="BackgroundImageFix"/>
<feColorMatrix in="SourceAlpha" type="matrix" values="0 0 0 0 0 0 0 0 0 0 0 0 0 0 0 0 0 0 127 0" result="hardAlpha"/>
<feOffset dx="13.3333" dy="13.3333"/>
<feGaussianBlur stdDeviation="16.6667"/>
<feComposite in2="hardAlpha" operator="out"/>
<feColorMatrix type="matrix" values="0 0 0 0 0 0 0 0 0 0 0 0 0 0 0 0 0 0 0.6 0"/>
<feBlend mode="normal" in2="BackgroundImageFix" result="effect1_dropShadow_107_18"/>
<feBlend mode="normal" in="SourceGraphic" in2="effect1_dropShadow_107_18" result="shape"/>
</filter>
<filter id="filter5_d_107_18" x="75.9927" y="32.9106" width="71.1535" height="71.2419" filterUnits="userSpaceOnUse" color-interpolation-filters="sRGB">
<feFlood flood-opacity="0" result="BackgroundImageFix"/>
<feColorMatrix in="SourceAlpha" type="matrix" values="0 0 0 0 0 0 0 0 0 0 0 0 0 0 0 0 0 0 127 0" result="hardAlpha"/>
<feOffset dx="13.3333" dy="13.3333"/>
<feGaussianBlur stdDeviation="16.6667"/>
<feComposite in2="hardAlpha" operator="out"/>
<feColorMatrix type="matrix" values="0 0 0 0 0 0 0 0 0 0 0 0 0 0 0 0 0 0 0.6 0"/>
<feBlend mode="normal" in2="BackgroundImageFix" result="effect1_dropShadow_107_18"/>
<feBlend mode="normal" in="SourceGraphic" in2="effect1_dropShadow_107_18" result="shape"/>
</filter>
<filter id="filter6_d_107_18" x="63.6992" y="81.06" width="75.1862" height="75.3532" filterUnits="userSpaceOnUse" color-interpolation-filters="sRGB">
<feFlood flood-opacity="0" result="BackgroundImageFix"/>
<feColorMatrix in="SourceAlpha" type="matrix" values="0 0 0 0 0 0 0 0 0 0 0 0 0 0 0 0 0 0 127 0" result="hardAlpha"/>
<feOffset dx="13.3333" dy="13.3333"/>
<feGaussianBlur stdDeviation="16.6667"/>
<feComposite in2="hardAlpha" operator="out"/>
<feColorMatrix type="matrix" values="0 0 0 0 0 0 0 0 0 0 0 0 0 0 0 0 0 0 0.6 0"/>
<feBlend mode="normal" in2="BackgroundImageFix" result="effect1_dropShadow_107_18"/>
<feBlend mode="normal" in="SourceGraphic" in2="effect1_dropShadow_107_18" result="shape"/>
</filter>
<filter id="filter7_d_107_18" x="41.2891" y="92.5854" width="71.1535" height="71.2429" filterUnits="userSpaceOnUse" color-interpolation-filters="sRGB">
<feFlood flood-opacity="0" result="BackgroundImageFix"/>
<feColorMatrix in="SourceAlpha" type="matrix" values="0 0 0 0 0 0 0 0 0 0 0 0 0 0 0 0 0 0 127 0" result="hardAlpha"/>
<feOffset dx="13.3333" dy="13.3333"/>
<feGaussianBlur stdDeviation="16.6667"/>
<feComposite in2="hardAlpha" operator="out"/>
<feColorMatrix type="matrix" values="0 0 0 0 0 0 0 0 0 0 0 0 0 0 0 0 0 0 0.6 0"/>
<feBlend mode="normal" in2="BackgroundImageFix" result="effect1_dropShadow_107_18"/>
<feBlend mode="normal" in="SourceGraphic" in2="effect1_dropShadow_107_18" result="shape"/>
</filter>
<filter id="filter8_d_107_18" x="88.1655" y="5.25048" width="86.759" height="87.154" filterUnits="userSpaceOnUse" color-interpolation-filters="sRGB">
<feFlood flood-opacity="0" result="BackgroundImageFix"/>
<feColorMatrix in="SourceAlpha" type="matrix" values="0 0 0 0 0 0 0 0 0 0 0 0 0 0 0 0 0 0 127 0" result="hardAlpha"/>
<feOffset dx="13.3333" dy="13.3333"/>
<feGaussianBlur stdDeviation="16.6667"/>
<feComposite in2="hardAlpha" operator="out"/>
<feColorMatrix type="matrix" values="0 0 0 0 0 0 0 0 0 0 0 0 0 0 0 0 0 0 0.6 0"/>
<feBlend mode="normal" in2="BackgroundImageFix" result="effect1_dropShadow_107_18"/>
<feBlend mode="normal" in="SourceGraphic" in2="effect1_dropShadow_107_18" result="shape"/>
</filter>
<filter id="filter9_d_107_18" x="2.99999" y="81.06" width="79.0881" height="79.3322" filterUnits="userSpaceOnUse" color-interpolation-filters="sRGB">
<feFlood flood-opacity="0" result="BackgroundImageFix"/>
<feColorMatrix in="SourceAlpha" type="matrix" values="0 0 0 0 0 0 0 0 0 0 0 0 0 0 0 0 0 0 127 0" result="hardAlpha"/>
<feOffset dx="13.3333" dy="13.3333"/>
<feGaussianBlur stdDeviation="16.6667"/>
<feComposite in2="hardAlpha" operator="out"/>
<feColorMatrix type="matrix" values="0 0 0 0 0 0 0 0 0 0 0 0 0 0 0 0 0 0 0.6 0"/>
<feBlend mode="normal" in2="BackgroundImageFix" result="effect1_dropShadow_107_18"/>
<feBlend mode="normal" in="SourceGraphic" in2="effect1_dropShadow_107_18" result="shape"/>
</filter>
<filter id="filter10_d_107_18" x="102.116" y="87.335" width="79.0876" height="79.3317" filterUnits="userSpaceOnUse" color-interpolation-filters="sRGB">
<feFlood flood-opacity="0" result="BackgroundImageFix"/>
<feColorMatrix in="SourceAlpha" type="matrix" values="0 0 0 0 0 0 0 0 0 0 0 0 0 0 0 0 0 0 127 0" result="hardAlpha"/>
<feOffset dx="13.3333" dy="13.3333"/>
<feGaussianBlur stdDeviation="16.6667"/>
<feComposite in2="hardAlpha" operator="out"/>
<feColorMatrix type="matrix" values="0 0 0 0 0 0 0 0 0 0 0 0 0 0 0 0 0 0 0.6 0"/>
<feBlend mode="normal" in2="BackgroundImageFix" result="effect1_dropShadow_107_18"/>
<feBlend mode="normal" in="SourceGraphic" in2="effect1_dropShadow_107_18" result="shape"/>
</filter>
<filter id="filter11_d_107_18" x="67.2847" y="-1.04904e-05" width="75.4006" height="75.572" filterUnits="userSpaceOnUse" color-interpolation-filters="sRGB">
<feFlood flood-opacity="0" result="BackgroundImageFix"/>
<feColorMatrix in="SourceAlpha" type="matrix" values="0 0 0 0 0 0 0 0 0 0 0 0 0 0 0 0 0 0 127 0" result="hardAlpha"/>
<feOffset dx="13.3333" dy="13.3333"/>
<feGaussianBlur stdDeviation="16.6667"/>
<feComposite in2="hardAlpha" operator="out"/>
<feColorMatrix type="matrix" values="0 0 0 0 0 0 0 0 0 0 0 0 0 0 0 0 0 0 0.6 0"/>
<feBlend mode="normal" in2="BackgroundImageFix" result="effect1_dropShadow_107_18"/>
<feBlend mode="normal" in="SourceGraphic" in2="effect1_dropShadow_107_18" result="shape"/>
</filter>
<filter id="filter12_d_107_18" x="111.081" y="56.4731" width="73.321" height="73.4523" filterUnits="userSpaceOnUse" color-interpolation-filters="sRGB">
<feFlood flood-opacity="0" result="BackgroundImageFix"/>
<feColorMatrix in="SourceAlpha" type="matrix" values="0 0 0 0 0 0 0 0 0 0 0 0 0 0 0 0 0 0 127 0" result="hardAlpha"/>
<feOffset dx="13.3333" dy="13.3333"/>
<feGaussianBlur stdDeviation="16.6667"/>
<feComposite in2="hardAlpha" operator="out"/>
<feColorMatrix type="matrix" values="0 0 0 0 0 0 0 0 0 0 0 0 0 0 0 0 0 0 0.6 0"/>
<feBlend mode="normal" in2="BackgroundImageFix" result="effect1_dropShadow_107_18"/>
<feBlend mode="normal" in="SourceGraphic" in2="effect1_dropShadow_107_18" result="shape"/>
</filter>
<filter id="filter13_d_107_18" x="18" y="12" width="146.628" height="146.667" filterUnits="userSpaceOnUse" color-interpolation-filters="sRGB">
<feFlood flood-opacity="0" result="BackgroundImageFix"/>
<feColorMatrix in="SourceAlpha" type="matrix" values="0 0 0 0 0 0 0 0 0 0 0 0 0 0 0 0 0 0 127 0" result="hardAlpha"/>
<feOffset dx="13.3333" dy="13.3333"/>
<feGaussianBlur stdDeviation="16.6667"/>
<feComposite in2="hardAlpha" operator="out"/>
<feColorMatrix type="matrix" values="0 0 0 0 0 0 0 0 0 0 0 0 0 0 0 0 0 0 0.6 0"/>
<feBlend mode="normal" in2="BackgroundImageFix" result="effect1_dropShadow_107_18"/>
<feBlend mode="normal" in="SourceGraphic" in2="effect1_dropShadow_107_18" result="shape"/>
</filter>
<linearGradient id="paint0_linear_107_18" x1="31.7138" y1="21.4087" x2="31.7138" y2="28.9947" gradientUnits="userSpaceOnUse">
<stop stop-color="#9B8C00"/>
<stop offset="1" stop-color="#FFF6A8"/>
</linearGradient>
<linearGradient id="paint1_linear_107_18" x1="63.6004" y1="24.4819" x2="63.6004" y2="32.068" gradientUnits="userSpaceOnUse">
<stop stop-color="#9B8C00"/>
<stop offset="1" stop-color="#FFF6A8"/>
</linearGradient>
<linearGradient id="paint2_linear_107_18" x1="32.4124" y1="48.9409" x2="32.4124" y2="61.6073" gradientUnits="userSpaceOnUse">
<stop stop-color="#9B8C00"/>
<stop offset="1" stop-color="#FFF6A8"/>
</linearGradient>
<linearGradient id="paint3_linear_107_18" x1="40.5314" y1="83.2603" x2="40.5314" y2="89.765" gradientUnits="userSpaceOnUse">
<stop stop-color="#9B8C00"/>
<stop offset="1" stop-color="#FFF6A8"/>
</linearGradient>
<linearGradient id="paint4_linear_107_18" x1="90.0405" y1="67.7651" x2="90.0405" y2="72.3405" gradientUnits="userSpaceOnUse">
<stop stop-color="#9B8C00"/>
<stop offset="1" stop-color="#FFF6A8"/>
</linearGradient>
<linearGradient id="paint5_linear_107_18" x1="98.236" y1="52.9106" x2="98.236" y2="57.4861" gradientUnits="userSpaceOnUse">
<stop stop-color="#9B8C00"/>
<stop offset="1" stop-color="#FFF6A8"/>
</linearGradient>
<linearGradient id="paint6_linear_107_18" x1="87.9591" y1="101.06" x2="87.9591" y2="109.747" gradientUnits="userSpaceOnUse">
<stop stop-color="#9B8C00"/>
<stop offset="1" stop-color="#FFF6A8"/>
</linearGradient>
<linearGradient id="paint7_linear_107_18" x1="63.5323" y1="112.585" x2="63.5323" y2="117.162" gradientUnits="userSpaceOnUse">
<stop stop-color="#9B8C00"/>
<stop offset="1" stop-color="#FFF6A8"/>
</linearGradient>
<linearGradient id="paint8_linear_107_18" x1="118.212" y1="25.2505" x2="118.212" y2="45.7377" gradientUnits="userSpaceOnUse">
<stop stop-color="#9B8C00"/>
<stop offset="1" stop-color="#FFF6A8"/>
</linearGradient>
<linearGradient id="paint9_linear_107_18" x1="29.2107" y1="101.06" x2="29.2107" y2="113.726" gradientUnits="userSpaceOnUse">
<stop stop-color="#9B8C00"/>
<stop offset="1" stop-color="#FFF6A8"/>
</linearGradient>
<linearGradient id="paint10_linear_107_18" x1="128.327" y1="107.335" x2="128.327" y2="120" gradientUnits="userSpaceOnUse">
<stop stop-color="#9B8C00"/>
<stop offset="1" stop-color="#FFF6A8"/>
</linearGradient>
<linearGradient id="paint11_linear_107_18" x1="91.6517" y1="20" x2="91.6517" y2="28.9053" gradientUnits="userSpaceOnUse">
<stop stop-color="#9B8C00"/>
<stop offset="1" stop-color="#FFF6A8"/>
</linearGradient>
<linearGradient id="paint12_linear_107_18" x1="134.408" y1="76.4731" x2="134.408" y2="83.259" gradientUnits="userSpaceOnUse">
<stop stop-color="#9B8C00"/>
<stop offset="1" stop-color="#FFF6A8"/>
</linearGradient>
<linearGradient id="paint13_linear_107_18" x1="77.9804" y1="32" x2="128.802" y2="89.806" gradientUnits="userSpaceOnUse">
<stop stop-color="#E5EFFB"/>
<stop offset="1" stop-color="#8697AE"/>
</linearGradient>
</defs>
</svg>
