<svg width="180" height="172" viewBox="0 0 180 172" fill="none" xmlns="http://www.w3.org/2000/svg">
<g filter="url(#filter0_d_34_1053)">
<path d="M106.661 72.0004C106.661 79.0671 103.854 85.8442 98.8575 90.8409C93.8608 95.8375 87.0837 98.6447 80.0171 98.6447C72.9504 98.6447 66.1733 95.8375 61.1767 90.8409C56.18 85.8442 53.3728 79.0671 53.3728 72.0004C53.3728 64.9338 56.18 58.1566 61.1767 53.16C66.1733 48.1633 72.9504 45.3561 80.0171 45.3561C87.082 45.3611 93.8559 48.1699 98.8517 53.1657C103.848 58.1616 106.656 64.9353 106.661 72.0004ZM129.567 73.0471L118.891 82.396L123.453 95.84C123.586 96.2248 123.544 96.6471 123.34 96.9994C123.141 97.3491 122.8 97.5945 122.406 97.6722L108.476 100.439L105.709 114.369C105.63 114.764 105.385 115.105 105.035 115.304C104.684 115.508 104.26 115.549 103.876 115.417L90.4317 110.854L81.0829 121.53C80.8166 121.828 80.4368 122 80.0361 122C79.6363 122 79.2557 121.829 78.9894 121.531L69.6406 110.855L56.1966 115.417C55.8126 115.549 55.3894 115.508 55.038 115.304C54.6883 115.105 54.442 114.764 54.3644 114.369L51.5974 100.439L37.6301 97.6914C37.2352 97.6129 36.8947 97.3675 36.6952 97.0178C36.4915 96.6664 36.4506 96.2432 36.5833 95.8584L41.146 82.4144L30.4699 73.0655C30.1711 72.7993 30 72.4195 30 72.0188C30 71.619 30.1703 71.2384 30.4691 70.9721L41.1452 61.6232L36.5834 48.1425C36.4506 47.7577 36.4915 47.3345 36.6952 46.9831C36.8964 46.6275 37.2461 46.3804 37.6493 46.3095L51.5608 43.5424L54.3278 29.6126C54.4063 29.2177 54.6509 28.8772 55.0006 28.6777C55.352 28.474 55.7752 28.4331 56.16 28.5658L69.604 33.1285L78.9528 22.4524C79.2249 22.1644 79.6031 22 79.9996 22C80.3952 22 80.7742 22.1636 81.0463 22.4516L90.3951 33.1276L103.839 28.565C104.223 28.4323 104.646 28.474 104.998 28.6777C105.347 28.8772 105.594 29.2177 105.671 29.6126L108.438 43.5424L122.368 46.3095C122.763 46.388 123.104 46.6334 123.303 46.9831C123.507 47.3345 123.548 47.7577 123.415 48.1425L118.852 61.5865L129.528 70.9353C129.827 71.2016 129.999 71.5814 129.999 71.9821C129.999 72.3819 129.828 72.7625 129.529 73.0288L129.567 73.0471ZM109.467 72.0004C109.467 64.1899 106.364 56.6999 100.842 51.1767C95.3182 45.6542 87.8284 42.5517 80.0179 42.5517C72.2074 42.5517 64.7175 45.6544 59.1943 51.1767C53.6717 56.7001 50.5692 64.1899 50.5692 72.0004C50.5692 79.8109 53.6719 87.3009 59.1943 92.8241C64.7177 98.3466 72.2074 101.449 80.0179 101.449C87.825 101.439 95.3099 98.3332 100.831 92.8132C106.351 87.2924 109.457 79.8075 109.467 72.0004Z" fill="url(#paint0_radial_34_1053)"/>
<path d="M106.767 71.7627C106.767 86.5 94.7843 98.447 80.0027 98.447C65.2212 98.447 53.2383 86.5 53.2383 71.7627C53.2383 57.0254 65.2212 45.0784 80.0027 45.0784C94.7843 45.0784 106.767 57.0254 106.767 71.7627Z" fill="url(#paint1_radial_34_1053)"/>
</g>
<defs>
<filter id="filter0_d_34_1053" x="8.57161" y="0.571613" width="171.427" height="171.428" filterUnits="userSpaceOnUse" color-interpolation-filters="sRGB">
<feFlood flood-opacity="0" result="BackgroundImageFix"/>
<feColorMatrix in="SourceAlpha" type="matrix" values="0 0 0 0 0 0 0 0 0 0 0 0 0 0 0 0 0 0 127 0" result="hardAlpha"/>
<feOffset dx="14.2856" dy="14.2856"/>
<feGaussianBlur stdDeviation="17.857"/>
<feComposite in2="hardAlpha" operator="out"/>
<feColorMatrix type="matrix" values="0 0 0 0 0 0 0 0 0 0 0 0 0 0 0 0 0 0 0.6 0"/>
<feBlend mode="normal" in2="BackgroundImageFix" result="effect1_dropShadow_34_1053"/>
<feBlend mode="normal" in="SourceGraphic" in2="effect1_dropShadow_34_1053" result="shape"/>
</filter>
<radialGradient id="paint0_radial_34_1053" cx="0" cy="0" r="1" gradientUnits="userSpaceOnUse" gradientTransform="translate(84.4503 70.7609) rotate(-120.409) scale(51.0565 51.0561)">
<stop stop-color="#F5B44B"/>
<stop offset="1" stop-color="#FCE76F"/>
</radialGradient>
<radialGradient id="paint1_radial_34_1053" cx="0" cy="0" r="1" gradientUnits="userSpaceOnUse" gradientTransform="translate(80.0025 71.7627) rotate(90) scale(26.6843 26.7644)">
<stop stop-color="#FEF083"/>
<stop offset="1" stop-color="#F6C24F"/>
</radialGradient>
</defs>
</svg>
