<svg width="269" height="211" viewBox="0 0 269 211" fill="none" xmlns="http://www.w3.org/2000/svg">
<g filter="url(#filter0_d_34_1116)">
<path d="M94.6084 73.1378C94.6084 78.6692 92.389 83.974 88.4386 87.8851C84.4883 91.7963 79.1303 93.9936 73.5434 93.9936C67.9565 93.9936 62.5986 91.7963 58.6482 87.8851C54.6979 83.974 52.4785 78.6692 52.4785 73.1378C52.4785 67.6064 54.6979 62.3016 58.6482 58.3904C62.5986 54.4793 67.9565 52.282 73.5434 52.282C79.129 52.2859 84.4844 54.4845 88.4341 58.395C92.3838 62.3054 94.6043 67.6075 94.6084 73.1378V73.1378ZM112.717 73.9571L104.277 81.2749L107.884 91.7982H107.883C107.988 92.0994 107.956 92.43 107.795 92.7057C107.637 92.9795 107.368 93.1716 107.056 93.2323L96.0428 95.3982L93.8552 106.302C93.7932 106.611 93.5991 106.878 93.3226 107.034C93.0448 107.193 92.7102 107.225 92.406 107.122L81.7772 103.55L74.386 111.907L74.3867 111.908C74.1762 112.141 73.8753 112.275 73.5585 112.275C73.2424 112.275 72.9415 112.141 72.7309 111.908L65.3398 103.551L54.711 107.122V107.122C54.4074 107.225 54.0729 107.193 53.795 107.034C53.5185 106.878 53.3238 106.611 53.2625 106.302L51.0748 95.3982L40.0323 93.2474C39.7202 93.186 39.4509 92.9939 39.2932 92.7201C39.1322 92.445 39.0999 92.1138 39.2048 91.8126L42.812 81.2893L34.3715 73.9715L34.3709 73.9722C34.1346 73.7637 34 73.4658 34 73.1522C34 72.8392 34.1346 72.5413 34.3709 72.3329L42.8114 65.0151L39.2048 54.463C39.0999 54.1618 39.1322 53.8306 39.2932 53.5555C39.4523 53.2772 39.7288 53.0838 40.0475 53.0282L51.0459 50.8623L53.2336 39.9587H53.2329C53.2949 39.6497 53.4889 39.3831 53.7654 39.2269C54.0433 39.0675 54.3779 39.0355 54.6821 39.1394L65.3109 42.7108L72.702 34.3541L72.7014 34.3535C72.9165 34.1281 73.2161 34 73.5296 34C73.8424 34 74.142 34.1281 74.3571 34.3535L81.7483 42.7102L92.3771 39.1387V39.1394C92.6807 39.0355 93.0152 39.0675 93.2931 39.2269C93.5696 39.3831 93.7643 39.6497 93.8256 39.9587L96.0132 50.8623L107.026 53.0282C107.338 53.0897 107.608 53.2817 107.765 53.5555C107.926 53.8306 107.959 54.1618 107.854 54.463L104.247 64.9863L112.687 72.3041L112.688 72.3034C112.924 72.5119 113.059 72.8098 113.059 73.1234C113.059 73.4364 112.924 73.7343 112.688 73.9427L112.717 73.9571ZM96.8262 73.1378C96.8262 67.0241 94.3732 61.1613 90.0073 56.8381C85.6405 52.5153 79.7191 50.0868 73.5441 50.0868C67.3691 50.0868 61.4476 52.5155 57.0809 56.8381C52.7148 61.1615 50.262 67.0241 50.262 73.1378C50.262 79.2515 52.715 85.1142 57.0809 89.4375C61.4477 93.7603 67.3691 96.1888 73.5441 96.1888C79.7164 96.1809 85.6339 93.7497 89.9986 89.429C94.3627 85.1075 96.8183 79.2488 96.8262 73.1378Z" fill="url(#paint0_radial_34_1116)"/>
</g>
<g filter="url(#filter1_d_34_1116)">
<ellipse cx="73.531" cy="72.9515" rx="21.1599" ry="20.8871" fill="url(#paint1_radial_34_1116)"/>
</g>
<g filter="url(#filter2_d_34_1116)">
<path d="M167.14 81.7083L166.965 81.686C164.881 81.4206 163.295 79.6623 163.285 77.5513L167.14 81.7083ZM167.14 81.7083C179.39 83.3577 188.592 93.7913 188.593 106.024C188.593 119.557 177.467 130.593 163.764 130.593H66.7839C55.9226 130.593 47.1088 121.847 47.1088 111.127C47.1088 101.478 54.4014 93.1854 64.0889 91.8682C64.0891 91.8682 64.0894 91.8682 64.0896 91.8681L63.9 90.4738C65.2905 90.2862 66.3283 89.1083 66.3283 87.7168C66.3283 87.6062 66.3233 87.4956 66.3157 87.4708M167.14 81.7083L95.4557 68.1857C92.8894 67.1321 90.1775 66.5978 87.398 66.5978C75.7725 66.5978 66.3157 75.961 66.3157 87.4708M66.3157 87.4708H67.7229C67.7229 87.4424 67.723 87.4141 67.7231 87.3858M66.3157 87.4708L67.6624 87.0627C67.708 87.2131 67.7199 87.3503 67.7212 87.3655L67.7213 87.3668C67.7219 87.3731 67.7225 87.3795 67.7231 87.3858M67.7231 87.3858C67.7695 76.7051 76.5651 68.005 87.398 68.005C89.9946 68.005 92.525 68.5036 94.9213 69.4874L94.9226 69.488C95.9839 69.9224 97.1846 69.9107 98.2411 69.4433M67.7231 87.3858L98.2411 69.4433M98.2411 69.4433C99.2947 68.9796 100.115 68.1066 100.504 67.0215L100.505 67.021C105.07 54.3 117.31 45.7392 130.967 45.7392C148.701 45.7392 163.188 60.0261 163.285 77.5506L98.2411 69.4433Z" fill="url(#paint2_linear_34_1116)" stroke="#525B82" stroke-width="2.81434"/>
</g>
<g filter="url(#filter3_d_34_1116)">
<path d="M152.944 88.0217L152.821 88.006C151.135 87.7914 149.849 86.3686 149.841 84.6558L152.944 88.0217ZM152.944 88.0217C161.497 89.1741 167.917 96.4587 167.918 104.992L152.944 88.0217ZM105.778 77.268L105.778 77.2685C105.462 78.1481 104.798 78.855 103.945 79.2302C103.09 79.6085 102.119 79.6177 101.26 79.2664L101.259 79.2658C99.596 78.583 97.8405 78.2371 96.038 78.2371C88.5238 78.2371 82.4284 84.2666 82.3866 91.6626C82.3888 91.6901 82.3902 91.715 82.3912 91.7348C82.3941 91.7938 82.3953 91.8567 82.3953 91.9149C82.3953 93.6225 81.1241 95.0514 79.4426 95.2786M105.778 77.268L167.918 104.992C167.918 114.432 160.154 122.139 150.585 122.139H81.3137C73.7738 122.139 67.6621 116.068 67.6621 108.636C67.6621 101.948 72.7192 96.1929 79.4426 95.2786M105.778 77.268C108.981 68.3432 117.571 62.333 127.158 62.333C139.608 62.333 149.773 72.3627 149.841 84.6552L105.778 77.268ZM79.4426 95.2786C79.4424 95.2786 79.4421 95.2787 79.4419 95.2787L79.2537 93.8842L79.4433 95.2785C79.443 95.2785 79.4428 95.2786 79.4426 95.2786Z" fill="url(#paint3_linear_34_1116)" stroke="white" stroke-width="2.81434"/>
</g>
<defs>
<filter id="filter0_d_34_1116" x="0.227917" y="0.227917" width="191.633" height="190.849" filterUnits="userSpaceOnUse" color-interpolation-filters="sRGB">
<feFlood flood-opacity="0" result="BackgroundImageFix"/>
<feColorMatrix in="SourceAlpha" type="matrix" values="0 0 0 0 0 0 0 0 0 0 0 0 0 0 0 0 0 0 127 0" result="hardAlpha"/>
<feOffset dx="22.5147" dy="22.5147"/>
<feGaussianBlur stdDeviation="28.1434"/>
<feComposite in2="hardAlpha" operator="out"/>
<feColorMatrix type="matrix" values="0 0 0 0 0 0 0 0 0 0 0 0 0 0 0 0 0 0 0.6 0"/>
<feBlend mode="normal" in2="BackgroundImageFix" result="effect1_dropShadow_34_1116"/>
<feBlend mode="normal" in="SourceGraphic" in2="effect1_dropShadow_34_1116" result="shape"/>
</filter>
<filter id="filter1_d_34_1116" x="18.599" y="18.2924" width="154.893" height="154.348" filterUnits="userSpaceOnUse" color-interpolation-filters="sRGB">
<feFlood flood-opacity="0" result="BackgroundImageFix"/>
<feColorMatrix in="SourceAlpha" type="matrix" values="0 0 0 0 0 0 0 0 0 0 0 0 0 0 0 0 0 0 127 0" result="hardAlpha"/>
<feOffset dx="22.5147" dy="22.5147"/>
<feGaussianBlur stdDeviation="28.1434"/>
<feComposite in2="hardAlpha" operator="out"/>
<feColorMatrix type="matrix" values="0 0 0 0 0 0 0 0 0 0 0 0 0 0 0 0 0 0 0.6 0"/>
<feBlend mode="normal" in2="BackgroundImageFix" result="effect1_dropShadow_34_1116"/>
<feBlend mode="normal" in="SourceGraphic" in2="effect1_dropShadow_34_1116" result="shape"/>
</filter>
<filter id="filter2_d_34_1116" x="11.9296" y="10.5599" width="256.872" height="200.242" filterUnits="userSpaceOnUse" color-interpolation-filters="sRGB">
<feFlood flood-opacity="0" result="BackgroundImageFix"/>
<feColorMatrix in="SourceAlpha" type="matrix" values="0 0 0 0 0 0 0 0 0 0 0 0 0 0 0 0 0 0 127 0" result="hardAlpha"/>
<feOffset dx="22.5147" dy="22.5147"/>
<feGaussianBlur stdDeviation="28.1434"/>
<feComposite in2="hardAlpha" operator="out"/>
<feColorMatrix type="matrix" values="0 0 0 0 0 0 0 0 0 0 0 0 0 0 0 0 0 0 0.6 0"/>
<feBlend mode="normal" in2="BackgroundImageFix" result="effect1_dropShadow_34_1116"/>
<feBlend mode="normal" in="SourceGraphic" in2="effect1_dropShadow_34_1116" result="shape"/>
</filter>
<filter id="filter3_d_34_1116" x="32.4828" y="27.1537" width="215.644" height="175.194" filterUnits="userSpaceOnUse" color-interpolation-filters="sRGB">
<feFlood flood-opacity="0" result="BackgroundImageFix"/>
<feColorMatrix in="SourceAlpha" type="matrix" values="0 0 0 0 0 0 0 0 0 0 0 0 0 0 0 0 0 0 127 0" result="hardAlpha"/>
<feOffset dx="22.5147" dy="22.5147"/>
<feGaussianBlur stdDeviation="28.1434"/>
<feComposite in2="hardAlpha" operator="out"/>
<feColorMatrix type="matrix" values="0 0 0 0 0 0 0 0 0 0 0 0 0 0 0 0 0 0 0.6 0"/>
<feBlend mode="normal" in2="BackgroundImageFix" result="effect1_dropShadow_34_1116"/>
<feBlend mode="normal" in="SourceGraphic" in2="effect1_dropShadow_34_1116" result="shape"/>
</filter>
<radialGradient id="paint0_radial_34_1116" cx="0" cy="0" r="1" gradientUnits="userSpaceOnUse" gradientTransform="translate(77.0484 72.1676) rotate(-120.659) scale(40.0675 40.261)">
<stop stop-color="#F5B44B"/>
<stop offset="1" stop-color="#FCE76F"/>
</radialGradient>
<radialGradient id="paint1_radial_34_1116" cx="0" cy="0" r="1" gradientUnits="userSpaceOnUse" gradientTransform="translate(73.531 72.9515) rotate(90) scale(20.8871 21.1599)">
<stop stop-color="#FEF083"/>
<stop offset="1" stop-color="#F6C24F"/>
</radialGradient>
<linearGradient id="paint2_linear_34_1116" x1="117.851" y1="44.332" x2="156.057" y2="131.968" gradientUnits="userSpaceOnUse">
<stop stop-color="#3D4C72"/>
<stop offset="1" stop-color="#1C243E"/>
</linearGradient>
<linearGradient id="paint3_linear_34_1116" x1="117.79" y1="60.9258" x2="151.119" y2="123.354" gradientUnits="userSpaceOnUse">
<stop stop-color="#E5EFFB"/>
<stop offset="1" stop-color="#8697AE"/>
</linearGradient>
</defs>
</svg>
