<svg width="192" height="181" viewBox="0 0 192 181" fill="none" xmlns="http://www.w3.org/2000/svg">
<g filter="url(#filter0_d_105_20)">
<path fill-rule="evenodd" clip-rule="evenodd" d="M59.6018 25.0469C49.9437 27.9814 43.1027 36.5888 43.1027 46.9569C43.1027 59.6726 53.5651 69.8447 66.644 69.8447C77.7102 69.8447 86.9654 62.4112 89.5816 52.435C91.7951 70.8236 76.9061 87.0595 57.7908 87.0595C40.2861 87.0595 26 73.1701 26 55.9563C26 38.1546 41.2918 24.0702 59.6018 25.048V25.0469Z" fill="url(#paint0_linear_105_20)"/>
</g>
<g filter="url(#filter1_d_105_20)">
<path d="M116.961 86.1797L116.831 86.1634C115.299 85.9719 114.108 84.6964 114.101 83.1356M116.961 86.1797L115.131 83.1309M116.961 86.1797C126.117 87.3901 132.969 95.041 132.97 103.982C132.97 113.872 124.684 121.97 114.44 121.97H42.1347C34.0088 121.97 27.4467 115.549 27.4467 107.718C27.4467 100.669 32.8751 94.5858 40.1199 93.6183L116.961 86.1797ZM114.101 83.1356L115.131 83.1309M114.101 83.1356C114.101 83.1359 114.101 83.1363 114.101 83.1366L115.131 83.1309M114.101 83.1356C114.029 70.3225 103.237 59.8452 89.987 59.8452C79.7857 59.8452 70.6574 66.1243 67.2558 75.432L67.2557 75.4324C66.9636 76.2305 66.352 76.8664 65.5741 77.2025M115.131 83.1309C115.056 69.7238 103.777 58.8149 89.987 58.8149C79.3679 58.8149 69.8433 65.3506 66.2882 75.0783C66.0954 75.605 65.6894 76.0307 65.1645 76.2572M65.5741 77.2025C65.5746 77.2023 65.575 77.2021 65.5755 77.202L65.1645 76.2572M65.5741 77.2025C64.7946 77.5412 63.9099 77.5496 63.1271 77.235L63.1261 77.2346C61.3358 76.5128 59.4447 76.1468 57.5038 76.1468C49.3995 76.1468 42.8511 82.5333 42.816 90.3353M65.5741 77.2025C65.5737 77.2027 65.5732 77.2029 65.5727 77.2031L65.1645 76.2572M65.1645 76.2572L42.816 90.3353M42.816 90.3353C42.8186 90.3643 42.8202 90.3914 42.8213 90.4133C42.824 90.4661 42.8252 90.5241 42.8252 90.5785C42.8252 92.1349 41.6478 93.4156 40.1204 93.6182L42.816 90.3353Z" fill="url(#paint1_linear_105_20)" stroke="#525B82" stroke-width="2.06048"/>
</g>
<g filter="url(#filter2_d_105_20)">
<path d="M106.377 90.8026L106.285 90.7911C105.051 90.6367 104.084 89.6068 104.078 88.3376M106.377 90.8026L105.108 88.3329M106.377 90.8026C112.777 91.6491 117.555 96.9944 117.556 103.227C117.556 110.121 111.776 115.78 104.614 115.78H52.9675C47.318 115.78 42.7705 111.318 42.7705 105.895C42.7705 101.014 46.5321 96.7882 51.567 96.1157L106.377 90.8026ZM104.078 88.3376L105.108 88.3329M104.078 88.3376C104.078 88.3379 104.078 88.3383 104.078 88.3386L105.108 88.3329M104.078 88.3376C104.027 79.3551 96.4577 71.9946 87.1477 71.9946C79.9804 71.9946 73.5735 76.4064 71.1876 82.9347L71.1875 82.9351C70.9505 83.5827 70.4549 84.097 69.827 84.3684M105.108 88.3329C105.055 78.7564 96.9976 70.9644 87.1477 70.9644C79.5626 70.9644 72.7594 75.6327 70.22 82.5811C70.0823 82.9573 69.7923 83.2613 69.4174 83.4231M69.827 84.3684C69.8274 84.3682 69.8279 84.3681 69.8283 84.3679L69.4174 83.4231M69.827 84.3684C69.8265 84.3686 69.8261 84.3688 69.8256 84.369L69.4174 83.4231M69.827 84.3684C69.1974 84.6419 68.4838 84.6485 67.8523 84.3946L67.8513 84.3942C66.6077 83.8929 65.2943 83.6386 63.9454 83.6386C58.3155 83.6386 53.7801 88.0699 53.7486 93.4672M69.4174 83.4231C69.0425 83.5862 68.6148 83.5908 68.2365 83.4387C66.8699 82.8877 65.4256 82.6083 63.9454 82.6083C57.7543 82.6083 52.7182 87.5049 52.7182 93.524M53.7486 93.4672C53.7478 93.4582 53.747 93.4487 53.746 93.439L53.746 93.4389C53.7457 93.4349 53.7375 93.3331 53.7026 93.2202L52.7182 93.524M53.7486 93.4672C53.7485 93.4861 53.7484 93.505 53.7484 93.524H52.7182M53.7486 93.4672C53.7502 93.4873 53.7512 93.5054 53.752 93.5198C53.7541 93.5634 53.7551 93.6098 53.7551 93.6526C53.7551 94.9179 52.7987 95.9522 51.5675 96.1156L51.4317 95.0944C52.1722 94.9963 52.7248 94.3803 52.7248 93.6526C52.7248 93.5948 52.7222 93.537 52.7182 93.524" fill="url(#paint2_linear_105_20)" stroke="white" stroke-width="2.06048"/>
</g>
<defs>
<filter id="filter0_d_105_20" x="1.27421" y="0.274206" width="146.22" height="144.479" filterUnits="userSpaceOnUse" color-interpolation-filters="sRGB">
<feFlood flood-opacity="0" result="BackgroundImageFix"/>
<feColorMatrix in="SourceAlpha" type="matrix" values="0 0 0 0 0 0 0 0 0 0 0 0 0 0 0 0 0 0 127 0" result="hardAlpha"/>
<feOffset dx="16.4839" dy="16.4839"/>
<feGaussianBlur stdDeviation="20.6048"/>
<feComposite in2="hardAlpha" operator="out"/>
<feColorMatrix type="matrix" values="0 0 0 0 0 0 0 0 0 0 0 0 0 0 0 0 0 0 0.6 0"/>
<feBlend mode="normal" in2="BackgroundImageFix" result="effect1_dropShadow_105_20"/>
<feBlend mode="normal" in="SourceGraphic" in2="effect1_dropShadow_105_20" result="shape"/>
</filter>
<filter id="filter1_d_105_20" x="1.69071" y="34.0891" width="190.003" height="146.604" filterUnits="userSpaceOnUse" color-interpolation-filters="sRGB">
<feFlood flood-opacity="0" result="BackgroundImageFix"/>
<feColorMatrix in="SourceAlpha" type="matrix" values="0 0 0 0 0 0 0 0 0 0 0 0 0 0 0 0 0 0 127 0" result="hardAlpha"/>
<feOffset dx="16.4839" dy="16.4839"/>
<feGaussianBlur stdDeviation="20.6048"/>
<feComposite in2="hardAlpha" operator="out"/>
<feColorMatrix type="matrix" values="0 0 0 0 0 0 0 0 0 0 0 0 0 0 0 0 0 0 0.6 0"/>
<feBlend mode="normal" in2="BackgroundImageFix" result="effect1_dropShadow_105_20"/>
<feBlend mode="normal" in="SourceGraphic" in2="effect1_dropShadow_105_20" result="shape"/>
</filter>
<filter id="filter2_d_105_20" x="17.0144" y="46.2386" width="159.265" height="128.266" filterUnits="userSpaceOnUse" color-interpolation-filters="sRGB">
<feFlood flood-opacity="0" result="BackgroundImageFix"/>
<feColorMatrix in="SourceAlpha" type="matrix" values="0 0 0 0 0 0 0 0 0 0 0 0 0 0 0 0 0 0 127 0" result="hardAlpha"/>
<feOffset dx="16.4839" dy="16.4839"/>
<feGaussianBlur stdDeviation="20.6048"/>
<feComposite in2="hardAlpha" operator="out"/>
<feColorMatrix type="matrix" values="0 0 0 0 0 0 0 0 0 0 0 0 0 0 0 0 0 0 0.6 0"/>
<feBlend mode="normal" in2="BackgroundImageFix" result="effect1_dropShadow_105_20"/>
<feBlend mode="normal" in="SourceGraphic" in2="effect1_dropShadow_105_20" result="shape"/>
</filter>
<linearGradient id="paint0_linear_105_20" x1="57.9001" y1="25" x2="97.1675" y2="70.9391" gradientUnits="userSpaceOnUse">
<stop stop-color="#E5EFFB"/>
<stop offset="1" stop-color="#8697AE"/>
</linearGradient>
<linearGradient id="paint1_linear_105_20" x1="80.2084" y1="58.8149" x2="107.834" y2="123.344" gradientUnits="userSpaceOnUse">
<stop stop-color="#3D4C72"/>
<stop offset="1" stop-color="#1C243E"/>
</linearGradient>
<linearGradient id="paint2_linear_105_20" x1="80.163" y1="70.9644" x2="104.316" y2="117.035" gradientUnits="userSpaceOnUse">
<stop stop-color="#E5EFFB"/>
<stop offset="1" stop-color="#8697AE"/>
</linearGradient>
</defs>
</svg>
