<svg width="275" height="208" viewBox="0 0 275 208" fill="none" xmlns="http://www.w3.org/2000/svg">
<g filter="url(#filter0_d_107_28)">
<path d="M126.006 63.8364L125.877 63.8196C124.106 63.5907 122.785 62.0812 122.777 60.3002L126.006 63.8364ZM126.006 63.8364C134.984 65.0648 141.754 72.8394 141.755 81.9822L126.006 63.8364ZM76.4656 52.3992L76.4654 52.3998C76.14 53.3193 75.4534 54.0659 74.5626 54.4641C73.668 54.866 72.6505 54.8759 71.7524 54.5025L71.7509 54.5019C70.0031 53.7731 68.1589 53.4041 66.2659 53.4041C58.3816 53.4041 51.9474 59.8365 51.9051 67.7738C51.9074 67.8034 51.909 67.8302 51.91 67.8517C51.913 67.9131 51.9143 67.979 51.9143 68.04C51.9143 69.8158 50.6093 71.3313 48.8429 71.5736C41.786 72.5484 36.4475 78.6928 36.4475 85.8682C36.4475 93.8419 42.8983 100.317 50.8085 100.317H123.529C133.57 100.317 141.755 92.098 141.755 81.9823L76.4656 52.3992ZM76.4656 52.3992C79.838 42.8553 88.8731 36.4475 98.9358 36.4475C112.001 36.4475 122.705 47.143 122.777 60.2995L76.4656 52.3992Z" fill="url(#paint0_linear_107_28)" stroke="#525B82" stroke-width="2.89492"/>
</g>
<g filter="url(#filter1_d_107_28)">
<path d="M115.363 68.6451L115.273 68.6333C113.801 68.443 112.705 67.189 112.698 65.7113L115.363 68.6451ZM115.363 68.6451C121.569 69.495 126.253 74.8714 126.253 81.1964L115.363 68.6451ZM80.4218 60.2035L80.4216 60.2041C80.1516 60.967 79.5817 61.5871 78.8417 61.918C78.0979 62.252 77.2525 62.26 76.5065 61.9499L76.5051 61.9493C75.3071 61.4498 74.0439 61.1971 72.7464 61.1971C67.3499 61.1971 62.9401 65.5967 62.9023 71.0335C62.9036 71.0526 62.9046 71.0695 62.9052 71.0832C62.9077 71.1349 62.9088 71.1887 62.9088 71.2377C62.9088 72.7107 61.8262 73.9699 60.3578 74.1714M80.4218 60.2035L126.253 81.1965C126.253 88.1957 120.59 93.8789 113.649 93.8789H61.7054C56.2858 93.8789 51.861 89.4414 51.861 83.9721C51.861 79.0518 55.5234 74.8393 60.3578 74.1714M80.4218 60.2035C82.7727 53.5506 89.0708 49.0852 96.082 49.0852C105.184 49.0852 112.648 56.5386 112.698 65.7106L80.4218 60.2035ZM60.3578 74.1714C60.3576 74.1714 60.3575 74.1714 60.3573 74.1715L60.1607 72.7374L60.3587 74.1713C60.3584 74.1713 60.3581 74.1714 60.3578 74.1714Z" fill="url(#paint1_linear_107_28)" stroke="white" stroke-width="2.89492"/>
</g>
<g filter="url(#filter2_d_107_28)">
<path d="M175.804 88.8725L175.675 88.8558C173.904 88.6268 172.583 87.1173 172.575 85.3363L175.804 88.8725ZM175.804 88.8725C184.782 90.1009 191.552 97.8755 191.552 107.018L175.804 88.8725ZM126.263 77.4353L126.263 77.4359C125.938 78.3554 125.251 79.102 124.36 79.5002C123.466 79.9021 122.448 79.912 121.55 79.5386L121.549 79.538C119.801 78.8093 117.957 78.4403 116.064 78.4403C108.179 78.4403 101.745 84.8726 101.703 92.81C101.705 92.8395 101.707 92.8664 101.708 92.8878C101.711 92.9492 101.712 93.0151 101.712 93.0761C101.712 94.8519 100.407 96.3675 98.6408 96.6097C91.5838 97.5845 86.2453 103.729 86.2453 110.904C86.2453 118.878 92.6961 125.353 100.606 125.353H173.327C183.367 125.353 191.552 117.134 191.552 107.018L126.263 77.4353ZM126.263 77.4353C129.636 67.8914 138.671 61.4836 148.734 61.4836C161.798 61.4836 172.503 72.1792 172.575 85.3356L126.263 77.4353Z" fill="url(#paint2_linear_107_28)" stroke="#525B82" stroke-width="2.89492"/>
</g>
<g filter="url(#filter3_d_107_28)">
<path d="M165.162 93.6805L165.071 93.6687C163.599 93.4784 162.503 92.2244 162.496 90.7467L165.162 93.6805ZM165.162 93.6805C171.367 94.5304 176.051 99.9068 176.052 106.232L165.162 93.6805ZM130.22 85.2389L130.22 85.2395C129.95 86.0024 129.38 86.6225 128.64 86.9534C127.896 87.2874 127.051 87.2954 126.305 86.9853L126.303 86.9847C125.105 86.4852 123.842 86.2325 122.545 86.2325C117.148 86.2325 112.738 90.6321 112.701 96.0689C112.702 96.088 112.703 96.1049 112.704 96.1186C112.706 96.1703 112.707 96.2241 112.707 96.2731C112.707 97.7461 111.625 99.0053 110.156 99.2068M130.22 85.2389L176.052 106.232C176.052 113.231 170.388 118.914 163.447 118.914H111.504C106.084 118.914 101.659 114.477 101.659 109.008C101.659 104.087 105.322 99.8747 110.156 99.2068M130.22 85.2389C132.571 78.586 138.869 74.1206 145.88 74.1206C154.982 74.1206 162.446 81.574 162.496 90.746L130.22 85.2389ZM110.156 99.2068C110.156 99.2068 110.156 99.2068 110.156 99.2069L109.959 97.7728L110.157 99.2067C110.157 99.2067 110.156 99.2068 110.156 99.2068Z" fill="url(#paint3_linear_107_28)" stroke="white" stroke-width="2.89492"/>
</g>
<rect x="70.8094" y="124.893" width="59.0405" height="0.953774" rx="0.476887" fill="#8798AF" stroke="#FAFAFA" stroke-width="0.953774"/>
<rect x="109.462" y="131.569" width="59.0405" height="0.953774" rx="0.476887" fill="#8798AF" stroke="#FAFAFA" stroke-width="0.953774"/>
<rect x="133.412" y="105.818" width="59.0405" height="0.953774" rx="0.476887" fill="#8798AF" stroke="#FAFAFA" stroke-width="0.953774"/>
<rect x="85.2747" y="96.9952" width="59.0405" height="0.953774" rx="0.476887" fill="#8798AF" stroke="#FAFAFA" stroke-width="0.953774"/>
<rect x="117.999" y="88.1727" width="59.0405" height="0.953774" rx="0.476887" fill="#8798AF" stroke="#FAFAFA" stroke-width="0.953774"/>
<rect x="70.8094" y="80.7811" width="59.0405" height="0.953774" rx="0.476887" fill="#8798AF" stroke="#FAFAFA" stroke-width="0.953774"/>
<rect x="87.8831" y="66.7127" width="59.0405" height="0.953774" rx="0.476887" fill="#8798AF" stroke="#FAFAFA" stroke-width="0.953774"/>
<rect x="40.931" y="107.725" width="59.0405" height="0.953774" rx="0.476887" fill="#8798AF" stroke="#FAFAFA" stroke-width="0.953774"/>
<rect x="57.7669" y="56.4598" width="59.0405" height="0.953774" rx="0.476887" fill="#8798AF" stroke="#FAFAFA" stroke-width="0.953774"/>
<defs>
<filter id="filter0_d_107_28" x="0.260914" y="0.260914" width="223.999" height="182.561" filterUnits="userSpaceOnUse" color-interpolation-filters="sRGB">
<feFlood flood-opacity="0" result="BackgroundImageFix"/>
<feColorMatrix in="SourceAlpha" type="matrix" values="0 0 0 0 0 0 0 0 0 0 0 0 0 0 0 0 0 0 127 0" result="hardAlpha"/>
<feOffset dx="23.1594" dy="23.1594"/>
<feGaussianBlur stdDeviation="28.9492"/>
<feComposite in2="hardAlpha" operator="out"/>
<feColorMatrix type="matrix" values="0 0 0 0 0 0 0 0 0 0 0 0 0 0 0 0 0 0 0.6 0"/>
<feBlend mode="normal" in2="BackgroundImageFix" result="effect1_dropShadow_107_28"/>
<feBlend mode="normal" in="SourceGraphic" in2="effect1_dropShadow_107_28" result="shape"/>
</filter>
<filter id="filter1_d_107_28" x="15.6745" y="12.8986" width="193.084" height="163.486" filterUnits="userSpaceOnUse" color-interpolation-filters="sRGB">
<feFlood flood-opacity="0" result="BackgroundImageFix"/>
<feColorMatrix in="SourceAlpha" type="matrix" values="0 0 0 0 0 0 0 0 0 0 0 0 0 0 0 0 0 0 127 0" result="hardAlpha"/>
<feOffset dx="23.1594" dy="23.1594"/>
<feGaussianBlur stdDeviation="28.9492"/>
<feComposite in2="hardAlpha" operator="out"/>
<feColorMatrix type="matrix" values="0 0 0 0 0 0 0 0 0 0 0 0 0 0 0 0 0 0 0.6 0"/>
<feBlend mode="normal" in2="BackgroundImageFix" result="effect1_dropShadow_107_28"/>
<feBlend mode="normal" in="SourceGraphic" in2="effect1_dropShadow_107_28" result="shape"/>
</filter>
<filter id="filter2_d_107_28" x="50.0588" y="25.297" width="223.999" height="182.561" filterUnits="userSpaceOnUse" color-interpolation-filters="sRGB">
<feFlood flood-opacity="0" result="BackgroundImageFix"/>
<feColorMatrix in="SourceAlpha" type="matrix" values="0 0 0 0 0 0 0 0 0 0 0 0 0 0 0 0 0 0 127 0" result="hardAlpha"/>
<feOffset dx="23.1594" dy="23.1594"/>
<feGaussianBlur stdDeviation="28.9492"/>
<feComposite in2="hardAlpha" operator="out"/>
<feColorMatrix type="matrix" values="0 0 0 0 0 0 0 0 0 0 0 0 0 0 0 0 0 0 0.6 0"/>
<feBlend mode="normal" in2="BackgroundImageFix" result="effect1_dropShadow_107_28"/>
<feBlend mode="normal" in="SourceGraphic" in2="effect1_dropShadow_107_28" result="shape"/>
</filter>
<filter id="filter3_d_107_28" x="65.4728" y="37.934" width="193.084" height="163.486" filterUnits="userSpaceOnUse" color-interpolation-filters="sRGB">
<feFlood flood-opacity="0" result="BackgroundImageFix"/>
<feColorMatrix in="SourceAlpha" type="matrix" values="0 0 0 0 0 0 0 0 0 0 0 0 0 0 0 0 0 0 127 0" result="hardAlpha"/>
<feOffset dx="23.1594" dy="23.1594"/>
<feGaussianBlur stdDeviation="28.9492"/>
<feComposite in2="hardAlpha" operator="out"/>
<feColorMatrix type="matrix" values="0 0 0 0 0 0 0 0 0 0 0 0 0 0 0 0 0 0 0.6 0"/>
<feBlend mode="normal" in2="BackgroundImageFix" result="effect1_dropShadow_107_28"/>
<feBlend mode="normal" in="SourceGraphic" in2="effect1_dropShadow_107_28" result="shape"/>
</filter>
<linearGradient id="paint0_linear_107_28" x1="89.101" y1="35" x2="118.503" y2="101.406" gradientUnits="userSpaceOnUse">
<stop stop-color="#3D4C72"/>
<stop offset="1" stop-color="#1C243E"/>
</linearGradient>
<linearGradient id="paint1_linear_107_28" x1="89.0572" y1="47.6377" x2="114.657" y2="94.8507" gradientUnits="userSpaceOnUse">
<stop stop-color="#E5EFFB"/>
<stop offset="1" stop-color="#8697AE"/>
</linearGradient>
<linearGradient id="paint2_linear_107_28" x1="138.899" y1="60.0361" x2="168.301" y2="126.442" gradientUnits="userSpaceOnUse">
<stop stop-color="#3D4C72"/>
<stop offset="1" stop-color="#1C243E"/>
</linearGradient>
<linearGradient id="paint3_linear_107_28" x1="138.856" y1="72.6731" x2="164.455" y2="119.886" gradientUnits="userSpaceOnUse">
<stop stop-color="#E5EFFB"/>
<stop offset="1" stop-color="#8697AE"/>
</linearGradient>
</defs>
</svg>
