<svg width="249" height="202" viewBox="0 0 249 202" fill="none" xmlns="http://www.w3.org/2000/svg">
<g filter="url(#filter0_d_105_542)">
<path d="M139.814 70.7679L139.671 70.7495C137.72 70.4986 136.253 68.8417 136.244 66.8729L139.814 70.7679ZM139.814 70.7679C149.77 72.1227 157.265 80.6931 157.266 90.7582L139.814 70.7679ZM84.9241 58.1706L84.9239 58.1712C84.5628 59.1859 83.802 60.0069 82.8187 60.4441C81.8316 60.8851 80.7095 60.8959 79.7185 60.4862L79.717 60.4856C77.7791 59.682 75.7341 59.275 73.6347 59.275C64.8878 59.275 57.7648 66.3693 57.7177 75.1052C57.7203 75.1377 57.722 75.1672 57.7232 75.1909C57.7265 75.2587 57.7279 75.3314 57.7279 75.3987C57.7279 77.3618 56.2789 79.0256 54.3332 79.2915C46.5049 80.3663 40.5946 87.1412 40.5946 95.0393C40.5946 103.815 47.7361 110.957 56.5118 110.957H137.068C148.203 110.957 157.266 101.894 157.266 90.7584L84.9241 58.1706ZM84.9241 58.1706C88.6589 47.6593 98.6684 40.5946 109.825 40.5946C124.31 40.5946 136.165 52.3861 136.244 66.8721L84.9241 58.1706Z" fill="url(#paint0_linear_105_542)" stroke="#525B82" stroke-width="3.18921"/>
</g>
<g filter="url(#filter1_d_105_542)">
<path d="M128.025 76.0654L127.924 76.0525C126.304 75.8442 125.086 74.4687 125.078 72.8341L128.025 76.0654ZM128.025 76.0654C134.909 77.0031 140.093 82.9317 140.094 89.8925L128.025 76.0654ZM89.3065 66.7682L89.3062 66.7688C89.0065 67.6111 88.375 68.2927 87.5588 68.6557C86.7387 69.0219 85.8072 69.0307 84.9848 68.6907L84.9833 68.6901C83.6545 68.139 82.253 67.8601 80.8133 67.8601C74.8224 67.8601 69.9418 72.7151 69.8997 78.6962C69.9012 78.7172 69.9022 78.7358 69.903 78.7508C69.9058 78.8079 69.9069 78.8674 69.9069 78.9215C69.9069 80.5512 68.7038 81.9329 67.0877 82.1535C61.7218 82.8906 57.6688 87.537 57.6688 92.9504C57.6688 98.9674 62.5659 103.864 68.5827 103.864H126.122C133.825 103.864 140.094 97.5951 140.094 89.8927L89.3065 66.7682ZM89.3065 66.7682C91.9096 59.4419 98.8873 54.517 106.663 54.517C116.759 54.517 125.023 62.7368 125.078 72.8333L89.3065 66.7682Z" fill="url(#paint1_linear_105_542)" stroke="white" stroke-width="3.18921"/>
</g>
<rect x="67.6548" y="127.037" width="65.4077" height="1.05073" rx="0.525365" fill="#8798AF" stroke="#FAFAFA" stroke-width="1.05073"/>
<rect x="98.9087" y="136.414" width="65.4077" height="1.05073" rx="0.525365" fill="#8798AF" stroke="#FAFAFA" stroke-width="1.05073"/>
<rect x="45.5674" y="119.118" width="65.4077" height="1.05073" rx="0.525365" fill="#8798AF" stroke="#FAFAFA" stroke-width="1.05073"/>
<defs>
<filter id="filter0_d_105_542" x="0.729454" y="0.729454" width="247.429" height="201.12" filterUnits="userSpaceOnUse" color-interpolation-filters="sRGB">
<feFlood flood-opacity="0" result="BackgroundImageFix"/>
<feColorMatrix in="SourceAlpha" type="matrix" values="0 0 0 0 0 0 0 0 0 0 0 0 0 0 0 0 0 0 127 0" result="hardAlpha"/>
<feOffset dx="25.5137" dy="25.5137"/>
<feGaussianBlur stdDeviation="31.8921"/>
<feComposite in2="hardAlpha" operator="out"/>
<feColorMatrix type="matrix" values="0 0 0 0 0 0 0 0 0 0 0 0 0 0 0 0 0 0 0.6 0"/>
<feBlend mode="normal" in2="BackgroundImageFix" result="effect1_dropShadow_105_542"/>
<feBlend mode="normal" in="SourceGraphic" in2="effect1_dropShadow_105_542" result="shape"/>
</filter>
<filter id="filter1_d_105_542" x="17.8037" y="14.6518" width="213.183" height="180.105" filterUnits="userSpaceOnUse" color-interpolation-filters="sRGB">
<feFlood flood-opacity="0" result="BackgroundImageFix"/>
<feColorMatrix in="SourceAlpha" type="matrix" values="0 0 0 0 0 0 0 0 0 0 0 0 0 0 0 0 0 0 127 0" result="hardAlpha"/>
<feOffset dx="25.5137" dy="25.5137"/>
<feGaussianBlur stdDeviation="31.8921"/>
<feComposite in2="hardAlpha" operator="out"/>
<feColorMatrix type="matrix" values="0 0 0 0 0 0 0 0 0 0 0 0 0 0 0 0 0 0 0.6 0"/>
<feBlend mode="normal" in2="BackgroundImageFix" result="effect1_dropShadow_105_542"/>
<feBlend mode="normal" in="SourceGraphic" in2="effect1_dropShadow_105_542" result="shape"/>
</filter>
<linearGradient id="paint0_linear_105_542" x1="98.9302" y1="39" x2="131.201" y2="112.288" gradientUnits="userSpaceOnUse">
<stop stop-color="#3D4C72"/>
<stop offset="1" stop-color="#1C243E"/>
</linearGradient>
<linearGradient id="paint1_linear_105_542" x1="98.8815" y1="52.9224" x2="126.998" y2="105.065" gradientUnits="userSpaceOnUse">
<stop stop-color="#E5EFFB"/>
<stop offset="1" stop-color="#8697AE"/>
</linearGradient>
</defs>
</svg>
