<svg width="165" height="125" viewBox="0 0 165 125" fill="none" xmlns="http://www.w3.org/2000/svg">
<g filter="url(#filter0_d_107_24)">
<path d="M70.6986 40.6416C70.6986 43.6892 69.488 46.612 67.3331 48.7669C65.1782 50.9217 62.2554 52.1324 59.2078 52.1324C56.1602 52.1324 53.2375 50.9217 51.0826 48.7669C48.9277 46.612 47.7171 43.6892 47.7171 40.6416C47.7171 37.594 48.9277 34.6713 51.0826 32.5164C53.2375 30.3615 56.1602 29.1508 59.2078 29.1508C62.2547 29.153 65.1761 30.3643 67.3306 32.5189C69.4851 34.6734 70.6964 37.5946 70.6986 40.6416V40.6416ZM80.5768 41.093L75.9726 45.1249L77.9403 50.9228H77.94C77.9972 51.0888 77.9796 51.2709 77.8917 51.4228C77.8057 51.5736 77.6588 51.6795 77.4885 51.713L71.4811 52.9063L70.2877 58.9138C70.2539 59.0841 70.1481 59.2313 69.9972 59.317C69.8457 59.4048 69.6632 59.4224 69.4972 59.3656L63.6993 57.3978L59.6675 62.0021L59.6678 62.0024C59.553 62.1309 59.3888 62.2047 59.2161 62.2047C59.0436 62.2047 58.8795 62.1309 58.7646 62.0024L54.7328 57.3982L48.9349 59.3659V59.3656C48.7693 59.4224 48.5868 59.4048 48.4352 59.317C48.2844 59.2313 48.1782 59.0841 48.1447 58.9138L46.9514 52.9063L40.9278 51.7213C40.7575 51.6874 40.6106 51.5816 40.5246 51.4308C40.4368 51.2792 40.4191 51.0967 40.4764 50.9307L42.4441 45.1328L37.8399 41.101L37.8395 41.1013C37.7106 40.9865 37.6372 40.8223 37.6372 40.6495C37.6372 40.4771 37.7106 40.313 37.8395 40.1981L42.4437 36.1663L40.4764 30.3525C40.4191 30.1866 40.4368 30.004 40.5246 29.8525C40.6114 29.6991 40.7622 29.5926 40.9361 29.562L46.9356 28.3687L48.129 22.3612H48.1286C48.1624 22.1909 48.2683 22.044 48.4191 21.958C48.5707 21.8701 48.7532 21.8525 48.9191 21.9097L54.717 23.8775L58.7489 19.2732L58.7485 19.2729C58.8659 19.1487 59.0293 19.0781 59.2003 19.0781C59.3709 19.0781 59.5344 19.1487 59.6517 19.2729L63.6835 23.8771L69.4815 21.9094V21.9097C69.647 21.8525 69.8295 21.8701 69.9811 21.958C70.1319 22.044 70.2381 22.1909 70.2716 22.3612L71.4649 28.3687L77.4724 29.562C77.6427 29.5958 77.7899 29.7017 77.8756 29.8525C77.9634 30.004 77.9811 30.1866 77.9238 30.3525L75.9561 36.1504L80.5603 40.1823L80.5607 40.1819C80.6896 40.2968 80.7634 40.4609 80.7634 40.6337C80.7634 40.8061 80.6896 40.9703 80.5607 41.0851L80.5768 41.093ZM71.9084 40.6416C71.9084 37.2732 70.5703 34.043 68.1887 31.6611C65.8067 29.2794 62.5766 27.9414 59.2082 27.9414C55.8398 27.9414 52.6096 29.2795 50.2277 31.6611C47.846 34.0431 46.508 37.2732 46.508 40.6416C46.508 44.01 47.8461 47.2402 50.2277 49.6222C52.6097 52.0038 55.8398 53.3419 59.2082 53.3419C62.5751 53.3375 65.8031 51.998 68.184 49.6175C70.5646 47.2365 71.9041 44.0085 71.9084 40.6416Z" fill="url(#paint0_radial_107_24)"/>
</g>
<g filter="url(#filter1_d_107_24)">
<ellipse cx="59.2008" cy="40.5393" rx="11.5426" ry="11.508" fill="url(#paint1_radial_107_24)"/>
</g>
<g filter="url(#filter2_d_107_24)">
<path d="M108.377 52.6241L108.276 52.6111C107.09 52.4589 106.196 51.4526 106.191 50.255M108.377 52.6241L106.951 50.2516M108.377 52.6241C115.508 53.5919 120.873 59.7166 120.874 66.9083C120.874 74.8641 114.387 81.3405 106.412 81.3405L50.1494 81.3405C43.8232 81.3405 38.6782 76.2034 38.6782 69.8926C38.6782 64.212 42.9357 59.3396 48.5794 58.5662M108.377 52.6241L108.408 52.6281L108.538 52.599L108.539 52.5987L108.374 51.8572M108.377 52.6241C108.344 52.6196 108.31 52.6151 108.277 52.6108L108.373 51.8605L108.374 51.8572M108.377 52.6241L108.373 51.8575L108.374 51.8572M106.191 50.255L106.951 50.2516M106.191 50.255C106.191 50.2552 106.191 50.2555 106.191 50.2557L106.951 50.2516M106.191 50.255C106.135 39.9645 97.6985 31.5869 87.385 31.5869C79.4425 31.5869 72.3182 36.6064 69.6599 44.0737L69.6598 44.0741C69.4399 44.691 68.9766 45.1896 68.3785 45.4549M106.951 50.2516C106.893 39.5415 98.1154 30.8271 87.385 30.8271C79.1219 30.8271 71.7105 36.048 68.9441 43.8189C68.7941 44.2397 68.4782 44.5797 68.0697 44.7607C67.6613 44.9431 67.1954 44.9481 66.7833 44.7781C65.2945 44.1619 63.7212 43.8495 62.1086 43.8495C55.3641 43.8495 49.8777 49.3256 49.8777 56.0572M68.3785 45.4549C68.3789 45.4547 68.3792 45.4546 68.3795 45.4544L68.0698 44.7607L68.3775 45.4553C68.3778 45.4552 68.3782 45.455 68.3785 45.4549ZM68.3785 45.4549C67.7786 45.7224 67.0963 45.7292 66.4935 45.4805L66.4928 45.4801C65.0962 44.9021 63.6216 44.6092 62.1086 44.6092C55.798 44.6092 50.663 49.7212 50.6376 56.0104M50.6376 56.0104C50.6374 56.008 50.6372 56.0055 50.6369 56.0031L50.6369 56.0022C50.6361 55.9931 50.6296 55.9191 50.6054 55.8385L49.8777 56.0572M50.6376 56.0104C50.6376 56.026 50.6375 56.0416 50.6375 56.0572L49.8777 56.0572M50.6376 56.0104C50.6397 56.0334 50.641 56.0553 50.6419 56.0732C50.6439 56.1138 50.6448 56.1587 50.6448 56.201C50.6448 57.3951 49.7618 58.405 48.5794 58.5662M49.8777 56.0572C49.8821 56.0717 49.885 56.1364 49.885 56.201C49.885 57.0149 49.2829 57.7037 48.4763 57.8135M48.4763 57.8135L48.5794 58.5662M48.4763 57.8135C42.4576 58.6382 37.9185 63.8309 37.9185 69.8926C37.9185 76.6244 43.405 82.1003 50.1494 82.1003L106.412 82.1003C114.805 82.1003 121.633 75.285 121.633 66.9083C121.633 59.2996 115.932 52.8294 108.374 51.8572M48.4763 57.8135L48.5787 58.5663C48.5789 58.5663 48.5792 58.5663 48.5794 58.5662" fill="url(#paint2_linear_107_24)" stroke="#525B82" stroke-width="1.51958"/>
</g>
<g filter="url(#filter3_d_107_24)">
<path d="M100.143 56.3177L100.071 56.3085C99.1163 56.1859 98.3968 55.3761 98.3923 54.4116M100.143 56.3177L99.1521 54.4078M100.143 56.3177C105.128 56.9947 108.879 61.2777 108.88 66.3054M100.143 56.3177L108.88 66.3054M98.3923 54.4116C98.3923 54.4114 98.3923 54.4113 98.3923 54.4112L99.1521 54.4078M98.3923 54.4116C98.3923 54.4117 98.3923 54.4118 98.3923 54.4119L99.1521 54.4078M98.3923 54.4116C98.3527 47.181 92.4242 41.293 85.1765 41.293C79.5948 41.293 74.5881 44.8208 72.7202 50.0679L72.7201 50.0682C72.543 50.5649 72.1701 50.9663 71.6887 51.1799M99.1521 54.4078C99.1105 46.7578 92.8411 40.5332 85.1765 40.5332C79.2743 40.5332 73.9804 44.2624 72.0044 49.813C71.8973 50.1136 71.6716 50.3565 71.3799 50.4857M71.6887 51.1799C71.689 51.1798 71.6894 51.1796 71.6897 51.1795L71.3799 50.4857M71.6887 51.1799C71.6883 51.1801 71.688 51.1802 71.6876 51.1804L71.3799 50.4857M71.6887 51.1799C71.2055 51.3954 70.6563 51.4007 70.1712 51.2005L70.1705 51.2002C69.1992 50.7982 68.1742 50.5946 67.122 50.5946C62.7368 50.5946 59.1683 54.1445 59.1455 58.5125M71.3799 50.4857C71.0882 50.616 70.7553 50.6196 70.461 50.4982C69.3976 50.058 68.2738 49.8348 67.122 49.8348C62.3044 49.8348 58.3856 53.7464 58.3856 58.5546M59.1455 58.5125C59.145 58.5068 59.1445 58.5009 59.1439 58.495L59.1439 58.4948C59.1436 58.4902 59.1376 58.417 59.1132 58.3359L58.3856 58.5546M59.1455 58.5125C59.1454 58.5265 59.1454 58.5406 59.1454 58.5546H58.3856M59.1455 58.5125C59.1468 58.5288 59.1477 58.5436 59.1483 58.5555C59.1499 58.5886 59.1506 58.6243 59.1506 58.6574C59.1506 59.6192 58.4393 60.4325 57.487 60.562M58.3856 58.5546C58.3887 58.565 58.3908 58.6112 58.3908 58.6574C58.3908 59.2387 57.9607 59.7308 57.3846 59.8091M57.3846 59.8091L57.4877 60.5619C57.4875 60.5619 57.4872 60.562 57.487 60.562M57.3846 59.8091C53.0855 60.3982 49.8433 64.1073 49.8433 68.4371C49.8433 73.2455 53.7622 77.1569 58.5796 77.1569H98.7676C104.762 77.1569 109.64 72.2888 109.64 66.3054M57.3846 59.8091L57.487 60.562M57.487 60.562C53.5632 61.1001 50.6031 64.4887 50.6031 68.4371C50.6031 72.8245 54.1805 76.3971 58.5796 76.3971H98.7676C104.344 76.3971 108.88 71.8679 108.88 66.3055L109.64 66.3054M109.64 66.3054H108.88M109.64 66.3054C109.639 60.8707 105.567 56.2491 100.168 55.5547L100.168 55.5549L108.88 66.3054" fill="url(#paint3_linear_107_24)" stroke="white" stroke-width="1.51958"/>
</g>
<path d="M53.603 106.944C53.4453 107.648 52.7443 108.091 52.039 107.934C51.3338 107.777 50.889 107.077 51.0466 106.373C51.2033 105.667 52.8385 104.36 52.8385 104.36C52.8385 104.36 53.7612 106.238 53.6032 106.944L53.603 106.944Z" fill="url(#paint4_radial_107_24)"/>
<path d="M44.6138 110.992C44.4561 111.696 43.755 112.14 43.0498 111.982C42.3446 111.825 41.8997 111.125 42.0574 110.421C42.214 109.716 43.8492 108.408 43.8492 108.408C43.8492 108.408 44.7719 110.287 44.6139 110.992L44.6138 110.992Z" fill="url(#paint5_radial_107_24)"/>
<path d="M50.312 97.2682C50.644 95.7861 48.8297 91.3079 48.8297 91.3079C48.8297 91.3079 45.2726 94.5872 44.9405 96.0694C44.6085 97.5516 45.5437 99.0162 47.0239 99.3465C48.504 99.6768 49.981 98.7455 50.312 97.2682V97.2682Z" fill="url(#paint6_radial_107_24)"/>
<path d="M61.3586 94.1028C61.3586 94.1028 57.8063 97.3831 57.4742 98.8653C57.1422 100.348 58.0774 101.812 59.5576 102.142C61.0377 102.473 62.5099 101.54 62.8409 100.063C63.1777 98.582 61.3586 94.1028 61.3586 94.1028V94.1028Z" fill="url(#paint7_radial_107_24)"/>
<path d="M60.4061 107.24C60.4061 107.24 58.0372 109.427 57.8158 110.416C57.5943 111.404 58.218 112.381 59.205 112.601C60.1921 112.821 61.1738 112.199 61.3945 111.214C61.6191 110.227 60.4061 107.24 60.4061 107.24V107.24Z" fill="url(#paint8_radial_107_24)"/>
<path d="M105.341 106.944C105.183 107.648 104.482 108.091 103.777 107.934C103.072 107.777 102.627 107.077 102.784 106.373C102.941 105.667 104.576 104.36 104.576 104.36C104.576 104.36 105.499 106.238 105.341 106.944L105.341 106.944Z" fill="url(#paint9_radial_107_24)"/>
<path d="M96.3506 110.991C96.1929 111.695 95.4918 112.139 94.7866 111.981C94.0814 111.824 93.6365 111.124 93.7942 110.42C93.9508 109.715 95.586 108.407 95.586 108.407C95.586 108.407 96.5087 110.286 96.3507 110.991L96.3506 110.991Z" fill="url(#paint10_radial_107_24)"/>
<path d="M102.05 97.2682C102.382 95.7861 100.567 91.3079 100.567 91.3079C100.567 91.3079 97.0104 94.5872 96.6783 96.0694C96.3463 97.5516 97.2815 99.0162 98.7617 99.3465C100.242 99.6768 101.719 98.7455 102.05 97.2682V97.2682Z" fill="url(#paint11_radial_107_24)"/>
<path d="M113.095 94.1028C113.095 94.1028 109.543 97.3831 109.211 98.8653C108.878 100.348 109.814 101.812 111.294 102.142C112.774 102.473 114.246 101.54 114.577 100.063C114.914 98.582 113.095 94.1028 113.095 94.1028V94.1028Z" fill="url(#paint12_radial_107_24)"/>
<path d="M112.142 107.24C112.142 107.24 109.773 109.427 109.552 110.416C109.33 111.404 109.954 112.381 110.941 112.601C111.928 112.821 112.91 112.199 113.13 111.214C113.355 110.227 112.142 107.24 112.142 107.24V107.24Z" fill="url(#paint13_radial_107_24)"/>
<path d="M53.9942 106.977C53.8365 107.681 53.1354 108.125 52.4302 107.968C51.7249 107.81 51.2801 107.111 51.4378 106.407C51.5944 105.701 53.2296 104.393 53.2296 104.393C53.2296 104.393 54.1523 106.272 53.9943 106.977L53.9942 106.977Z" fill="url(#paint14_radial_107_24)"/>
<path d="M44.6138 110.992C44.4561 111.696 43.755 112.14 43.0498 111.982C42.3446 111.825 41.8997 111.125 42.0574 110.421C42.214 109.716 43.8492 108.408 43.8492 108.408C43.8492 108.408 44.7719 110.287 44.6139 110.992L44.6138 110.992Z" fill="url(#paint15_radial_107_24)"/>
<path d="M50.312 97.2682C50.644 95.7861 48.8297 91.3079 48.8297 91.3079C48.8297 91.3079 45.2726 94.5872 44.9405 96.0694C44.6085 97.5516 45.5437 99.0162 47.0239 99.3465C48.504 99.6768 49.981 98.7455 50.312 97.2682V97.2682Z" fill="url(#paint16_radial_107_24)"/>
<path d="M61.7498 94.1369C61.7498 94.1369 58.1974 97.4172 57.8653 98.8995C57.5333 100.382 58.4685 101.846 59.9487 102.177C61.4289 102.507 62.9011 101.575 63.232 100.097C63.5688 98.6161 61.7498 94.1369 61.7498 94.1369V94.1369Z" fill="url(#paint17_radial_107_24)"/>
<path d="M77.0715 100.215C77.0715 100.215 73.5192 103.495 73.1871 104.978C72.8551 106.46 73.7903 107.924 75.2705 108.255C76.7506 108.585 78.2228 107.653 78.5538 106.175C78.8906 104.694 77.0715 100.215 77.0715 100.215V100.215Z" fill="url(#paint18_radial_107_24)"/>
<path d="M60.4061 107.24C60.4061 107.24 58.0372 109.427 57.8158 110.416C57.5943 111.404 58.218 112.381 59.205 112.601C60.1921 112.821 61.1738 112.199 61.3945 111.214C61.6191 110.227 60.4061 107.24 60.4061 107.24V107.24Z" fill="url(#paint19_radial_107_24)"/>
<path d="M105.341 106.944C105.183 107.648 104.482 108.091 103.777 107.934C103.072 107.777 102.627 107.077 102.784 106.373C102.941 105.667 104.576 104.36 104.576 104.36C104.576 104.36 105.499 106.238 105.341 106.944L105.341 106.944Z" fill="url(#paint20_radial_107_24)"/>
<path d="M90.4644 108.563C90.3067 109.267 89.6056 109.711 88.9004 109.554C88.1951 109.396 87.7503 108.697 87.908 107.993C88.0646 107.287 89.6998 105.979 89.6998 105.979C89.6998 105.979 90.6225 107.858 90.4645 108.563L90.4644 108.563Z" fill="url(#paint21_radial_107_24)"/>
<path d="M102.05 97.2682C102.382 95.7861 100.567 91.3079 100.567 91.3079C100.567 91.3079 97.0104 94.5872 96.6783 96.0694C96.3463 97.5516 97.2815 99.0162 98.7617 99.3465C100.242 99.6768 101.719 98.7455 102.05 97.2682V97.2682Z" fill="url(#paint22_radial_107_24)"/>
<path d="M113.095 94.1028C113.095 94.1028 109.543 97.3831 109.211 98.8653C108.878 100.348 109.814 101.812 111.294 102.142C112.774 102.473 114.246 101.54 114.577 100.063C114.914 98.582 113.095 94.1028 113.095 94.1028V94.1028Z" fill="url(#paint23_radial_107_24)"/>
<path d="M112.142 107.24C112.142 107.24 109.773 109.427 109.552 110.416C109.33 111.404 109.954 112.381 110.941 112.601C111.928 112.821 112.91 112.199 113.13 111.214C113.355 110.227 112.142 107.24 112.142 107.24V107.24Z" fill="url(#paint24_radial_107_24)"/>
<path d="M82.8662 94.8869C82.7085 95.5909 82.0075 96.0348 81.3022 95.8774C80.597 95.7201 80.1521 95.0203 80.3098 94.3164C80.4665 93.6108 82.1017 92.303 82.1017 92.303C82.1017 92.303 83.0243 94.1817 82.8664 94.887L82.8662 94.8869Z" fill="url(#paint25_radial_107_24)"/>
<defs>
<filter id="filter0_d_107_24" x="19.4022" y="0.843155" width="103.909" height="103.91" filterUnits="userSpaceOnUse" color-interpolation-filters="sRGB">
<feFlood flood-opacity="0" result="BackgroundImageFix"/>
<feColorMatrix in="SourceAlpha" type="matrix" values="0 0 0 0 0 0 0 0 0 0 0 0 0 0 0 0 0 0 127 0" result="hardAlpha"/>
<feOffset dx="12.1566" dy="12.1566"/>
<feGaussianBlur stdDeviation="15.1958"/>
<feComposite in2="hardAlpha" operator="out"/>
<feColorMatrix type="matrix" values="0 0 0 0 0 0 0 0 0 0 0 0 0 0 0 0 0 0 0.6 0"/>
<feBlend mode="normal" in2="BackgroundImageFix" result="effect1_dropShadow_107_24"/>
<feBlend mode="normal" in="SourceGraphic" in2="effect1_dropShadow_107_24" result="shape"/>
</filter>
<filter id="filter1_d_107_24" x="29.4232" y="10.7963" width="83.8682" height="83.7993" filterUnits="userSpaceOnUse" color-interpolation-filters="sRGB">
<feFlood flood-opacity="0" result="BackgroundImageFix"/>
<feColorMatrix in="SourceAlpha" type="matrix" values="0 0 0 0 0 0 0 0 0 0 0 0 0 0 0 0 0 0 127 0" result="hardAlpha"/>
<feOffset dx="12.1566" dy="12.1566"/>
<feGaussianBlur stdDeviation="15.1958"/>
<feComposite in2="hardAlpha" operator="out"/>
<feColorMatrix type="matrix" values="0 0 0 0 0 0 0 0 0 0 0 0 0 0 0 0 0 0 0.6 0"/>
<feBlend mode="normal" in2="BackgroundImageFix" result="effect1_dropShadow_107_24"/>
<feBlend mode="normal" in="SourceGraphic" in2="effect1_dropShadow_107_24" result="shape"/>
</filter>
<filter id="filter2_d_107_24" x="19.6835" y="12.5922" width="144.498" height="112.056" filterUnits="userSpaceOnUse" color-interpolation-filters="sRGB">
<feFlood flood-opacity="0" result="BackgroundImageFix"/>
<feColorMatrix in="SourceAlpha" type="matrix" values="0 0 0 0 0 0 0 0 0 0 0 0 0 0 0 0 0 0 127 0" result="hardAlpha"/>
<feOffset dx="12.1566" dy="12.1566"/>
<feGaussianBlur stdDeviation="15.1958"/>
<feComposite in2="hardAlpha" operator="out"/>
<feColorMatrix type="matrix" values="0 0 0 0 0 0 0 0 0 0 0 0 0 0 0 0 0 0 0.6 0"/>
<feBlend mode="normal" in2="BackgroundImageFix" result="effect1_dropShadow_107_24"/>
<feBlend mode="normal" in="SourceGraphic" in2="effect1_dropShadow_107_24" result="shape"/>
</filter>
<filter id="filter3_d_107_24" x="31.6083" y="22.2982" width="120.58" height="97.4068" filterUnits="userSpaceOnUse" color-interpolation-filters="sRGB">
<feFlood flood-opacity="0" result="BackgroundImageFix"/>
<feColorMatrix in="SourceAlpha" type="matrix" values="0 0 0 0 0 0 0 0 0 0 0 0 0 0 0 0 0 0 127 0" result="hardAlpha"/>
<feOffset dx="12.1566" dy="12.1566"/>
<feGaussianBlur stdDeviation="15.1958"/>
<feComposite in2="hardAlpha" operator="out"/>
<feColorMatrix type="matrix" values="0 0 0 0 0 0 0 0 0 0 0 0 0 0 0 0 0 0 0.6 0"/>
<feBlend mode="normal" in2="BackgroundImageFix" result="effect1_dropShadow_107_24"/>
<feBlend mode="normal" in="SourceGraphic" in2="effect1_dropShadow_107_24" result="shape"/>
</filter>
<radialGradient id="paint0_radial_107_24" cx="0" cy="0" r="1" gradientUnits="userSpaceOnUse" gradientTransform="translate(61.1198 40.1071) rotate(-120.409) scale(22.0189 22.0187)">
<stop stop-color="#F5B44B"/>
<stop offset="1" stop-color="#FCE76F"/>
</radialGradient>
<radialGradient id="paint1_radial_107_24" cx="0" cy="0" r="1" gradientUnits="userSpaceOnUse" gradientTransform="translate(59.2008 40.5393) rotate(90) scale(11.508 11.5426)">
<stop stop-color="#FEF083"/>
<stop offset="1" stop-color="#F6C24F"/>
</radialGradient>
<linearGradient id="paint2_linear_107_24" x1="79.7759" y1="30.8271" x2="102.244" y2="81.9487" gradientUnits="userSpaceOnUse">
<stop stop-color="#3D4C72"/>
<stop offset="1" stop-color="#1C243E"/>
</linearGradient>
<linearGradient id="paint3_linear_107_24" x1="79.7415" y1="40.5332" x2="99.3215" y2="76.9133" gradientUnits="userSpaceOnUse">
<stop stop-color="#E5EFFB"/>
<stop offset="1" stop-color="#8697AE"/>
</linearGradient>
<radialGradient id="paint4_radial_107_24" cx="0" cy="0" r="1" gradientUnits="userSpaceOnUse" gradientTransform="translate(52.4394 106.147) rotate(102.627) scale(1.83135 1.30971)">
<stop stop-color="#93CDFF"/>
<stop offset="1" stop-color="#1291FF" stop-opacity="0.4"/>
</radialGradient>
<radialGradient id="paint5_radial_107_24" cx="0" cy="0" r="1" gradientUnits="userSpaceOnUse" gradientTransform="translate(43.4502 110.195) rotate(102.627) scale(1.83135 1.30971)">
<stop stop-color="#93CDFF"/>
<stop offset="1" stop-color="#1291FF" stop-opacity="0.4"/>
</radialGradient>
<radialGradient id="paint6_radial_107_24" cx="0" cy="0" r="1" gradientUnits="userSpaceOnUse" gradientTransform="translate(47.9268 95.3272) rotate(102.627) scale(4.11946 2.75179)">
<stop stop-color="#93CDFF"/>
<stop offset="1" stop-color="#1291FF" stop-opacity="0.4"/>
</radialGradient>
<radialGradient id="paint7_radial_107_24" cx="0" cy="0" r="1" gradientUnits="userSpaceOnUse" gradientTransform="translate(60.4581 98.1226) rotate(102.627) scale(4.11946 2.74936)">
<stop stop-color="#93CDFF"/>
<stop offset="1" stop-color="#1291FF" stop-opacity="0.4"/>
</radialGradient>
<radialGradient id="paint8_radial_107_24" cx="0" cy="0" r="1" gradientUnits="userSpaceOnUse" gradientTransform="translate(59.8056 109.92) rotate(102.627) scale(2.74703 1.83339)">
<stop stop-color="#93CDFF"/>
<stop offset="1" stop-color="#1291FF" stop-opacity="0.4"/>
</radialGradient>
<radialGradient id="paint9_radial_107_24" cx="0" cy="0" r="1" gradientUnits="userSpaceOnUse" gradientTransform="translate(104.177 106.147) rotate(102.627) scale(1.83135 1.30971)">
<stop stop-color="#93CDFF"/>
<stop offset="1" stop-color="#1291FF" stop-opacity="0.4"/>
</radialGradient>
<radialGradient id="paint10_radial_107_24" cx="0" cy="0" r="1" gradientUnits="userSpaceOnUse" gradientTransform="translate(95.187 110.194) rotate(102.627) scale(1.83135 1.30971)">
<stop stop-color="#93CDFF"/>
<stop offset="1" stop-color="#1291FF" stop-opacity="0.4"/>
</radialGradient>
<radialGradient id="paint11_radial_107_24" cx="0" cy="0" r="1" gradientUnits="userSpaceOnUse" gradientTransform="translate(99.6646 95.3272) rotate(102.627) scale(4.11946 2.75179)">
<stop stop-color="#93CDFF"/>
<stop offset="1" stop-color="#1291FF" stop-opacity="0.4"/>
</radialGradient>
<radialGradient id="paint12_radial_107_24" cx="0" cy="0" r="1" gradientUnits="userSpaceOnUse" gradientTransform="translate(112.194 98.1226) rotate(102.627) scale(4.11946 2.74936)">
<stop stop-color="#93CDFF"/>
<stop offset="1" stop-color="#1291FF" stop-opacity="0.4"/>
</radialGradient>
<radialGradient id="paint13_radial_107_24" cx="0" cy="0" r="1" gradientUnits="userSpaceOnUse" gradientTransform="translate(111.541 109.92) rotate(102.627) scale(2.74703 1.83339)">
<stop stop-color="#93CDFF"/>
<stop offset="1" stop-color="#1291FF" stop-opacity="0.4"/>
</radialGradient>
<radialGradient id="paint14_radial_107_24" cx="0" cy="0" r="1" gradientUnits="userSpaceOnUse" gradientTransform="translate(52.8306 106.181) rotate(102.627) scale(1.83135 1.30971)">
<stop stop-color="#93CDFF"/>
<stop offset="1" stop-color="#1291FF" stop-opacity="0.4"/>
</radialGradient>
<radialGradient id="paint15_radial_107_24" cx="0" cy="0" r="1" gradientUnits="userSpaceOnUse" gradientTransform="translate(43.4502 110.195) rotate(102.627) scale(1.83135 1.30971)">
<stop stop-color="#93CDFF"/>
<stop offset="1" stop-color="#1291FF" stop-opacity="0.4"/>
</radialGradient>
<radialGradient id="paint16_radial_107_24" cx="0" cy="0" r="1" gradientUnits="userSpaceOnUse" gradientTransform="translate(47.9268 95.3272) rotate(102.627) scale(4.11946 2.75179)">
<stop stop-color="#93CDFF"/>
<stop offset="1" stop-color="#1291FF" stop-opacity="0.4"/>
</radialGradient>
<radialGradient id="paint17_radial_107_24" cx="0" cy="0" r="1" gradientUnits="userSpaceOnUse" gradientTransform="translate(60.8492 98.1568) rotate(102.627) scale(4.11946 2.74936)">
<stop stop-color="#93CDFF"/>
<stop offset="1" stop-color="#1291FF" stop-opacity="0.4"/>
</radialGradient>
<radialGradient id="paint18_radial_107_24" cx="0" cy="0" r="1" gradientUnits="userSpaceOnUse" gradientTransform="translate(76.171 104.235) rotate(102.627) scale(4.11946 2.74936)">
<stop stop-color="#93CDFF"/>
<stop offset="1" stop-color="#1291FF" stop-opacity="0.4"/>
</radialGradient>
<radialGradient id="paint19_radial_107_24" cx="0" cy="0" r="1" gradientUnits="userSpaceOnUse" gradientTransform="translate(59.8056 109.92) rotate(102.627) scale(2.74703 1.83339)">
<stop stop-color="#93CDFF"/>
<stop offset="1" stop-color="#1291FF" stop-opacity="0.4"/>
</radialGradient>
<radialGradient id="paint20_radial_107_24" cx="0" cy="0" r="1" gradientUnits="userSpaceOnUse" gradientTransform="translate(104.177 106.147) rotate(102.627) scale(1.83135 1.30971)">
<stop stop-color="#93CDFF"/>
<stop offset="1" stop-color="#1291FF" stop-opacity="0.4"/>
</radialGradient>
<radialGradient id="paint21_radial_107_24" cx="0" cy="0" r="1" gradientUnits="userSpaceOnUse" gradientTransform="translate(89.3008 107.767) rotate(102.627) scale(1.83135 1.30971)">
<stop stop-color="#93CDFF"/>
<stop offset="1" stop-color="#1291FF" stop-opacity="0.4"/>
</radialGradient>
<radialGradient id="paint22_radial_107_24" cx="0" cy="0" r="1" gradientUnits="userSpaceOnUse" gradientTransform="translate(99.6646 95.3272) rotate(102.627) scale(4.11946 2.75179)">
<stop stop-color="#93CDFF"/>
<stop offset="1" stop-color="#1291FF" stop-opacity="0.4"/>
</radialGradient>
<radialGradient id="paint23_radial_107_24" cx="0" cy="0" r="1" gradientUnits="userSpaceOnUse" gradientTransform="translate(112.194 98.1226) rotate(102.627) scale(4.11946 2.74936)">
<stop stop-color="#93CDFF"/>
<stop offset="1" stop-color="#1291FF" stop-opacity="0.4"/>
</radialGradient>
<radialGradient id="paint24_radial_107_24" cx="0" cy="0" r="1" gradientUnits="userSpaceOnUse" gradientTransform="translate(111.541 109.92) rotate(102.627) scale(2.74703 1.83339)">
<stop stop-color="#93CDFF"/>
<stop offset="1" stop-color="#1291FF" stop-opacity="0.4"/>
</radialGradient>
<radialGradient id="paint25_radial_107_24" cx="0" cy="0" r="1" gradientUnits="userSpaceOnUse" gradientTransform="translate(81.7026 94.0904) rotate(102.627) scale(1.83135 1.30971)">
<stop stop-color="#93CDFF"/>
<stop offset="1" stop-color="#1291FF" stop-opacity="0.4"/>
</radialGradient>
</defs>
</svg>
