<svg width="165" height="131" viewBox="0 0 165 131" fill="none" xmlns="http://www.w3.org/2000/svg">
<g filter="url(#filter0_d_107_26)">
<path fill-rule="evenodd" clip-rule="evenodd" d="M56.8355 19.0276C51.3174 20.752 47.4088 25.8103 47.4088 31.9032C47.4088 39.3757 53.3865 45.3535 60.859 45.3535C67.1817 45.3535 72.4696 40.9851 73.9644 35.1225C75.229 45.9287 66.7222 55.47 55.8008 55.47C45.7995 55.47 37.6372 47.3077 37.6372 37.1918C37.6372 26.7304 46.3741 18.4536 56.8355 19.0282V19.0276Z" fill="url(#paint0_linear_107_26)"/>
</g>
<g filter="url(#filter1_d_107_26)">
<path d="M108.377 58.6241L108.276 58.6111C107.09 58.4589 106.196 57.4526 106.191 56.255M108.377 58.6241L106.951 56.2516M108.377 58.6241C115.508 59.5919 120.873 65.7166 120.874 72.9083C120.874 80.8641 114.387 87.3405 106.412 87.3405L50.1494 87.3405C43.8232 87.3405 38.6782 82.2034 38.6782 75.8926C38.6782 70.212 42.9357 65.3396 48.5794 64.5662M108.377 58.6241L108.408 58.6281L108.538 58.599L108.539 58.5987L108.374 57.8572M108.377 58.6241C108.344 58.6196 108.31 58.6151 108.277 58.6108L108.373 57.8605L108.374 57.8572M108.377 58.6241L108.373 57.8575L108.374 57.8572M106.191 56.255L106.951 56.2516M106.191 56.255C106.191 56.2552 106.191 56.2555 106.191 56.2557L106.951 56.2516M106.191 56.255C106.135 45.9645 97.6985 37.5869 87.385 37.5869C79.4425 37.5869 72.3182 42.6064 69.6599 50.0737L69.6598 50.0741C69.4399 50.691 68.9766 51.1896 68.3785 51.4549M106.951 56.2516C106.893 45.5415 98.1154 36.8271 87.385 36.8271C79.1219 36.8271 71.7105 42.048 68.9441 49.8189C68.7941 50.2397 68.4782 50.5797 68.0697 50.7607C67.6613 50.9431 67.1954 50.9481 66.7833 50.7781C65.2945 50.1619 63.7212 49.8495 62.1086 49.8495C55.3641 49.8495 49.8777 55.3256 49.8777 62.0572M68.3785 51.4549C68.3789 51.4547 68.3792 51.4546 68.3795 51.4544L68.0698 50.7607L68.3775 51.4553C68.3778 51.4552 68.3782 51.455 68.3785 51.4549ZM68.3785 51.4549C67.7786 51.7224 67.0963 51.7292 66.4935 51.4805L66.4928 51.4801C65.0962 50.9021 63.6216 50.6092 62.1086 50.6092C55.798 50.6092 50.663 55.7212 50.6376 62.0104M50.6376 62.0104C50.6374 62.008 50.6372 62.0055 50.6369 62.0031L50.6369 62.0022C50.6361 61.9931 50.6296 61.9191 50.6054 61.8385L49.8777 62.0572M50.6376 62.0104C50.6376 62.026 50.6375 62.0416 50.6375 62.0572L49.8777 62.0572M50.6376 62.0104C50.6397 62.0334 50.641 62.0553 50.6419 62.0732C50.6439 62.1138 50.6448 62.1587 50.6448 62.201C50.6448 63.3951 49.7618 64.405 48.5794 64.5662M49.8777 62.0572C49.8821 62.0717 49.885 62.1364 49.885 62.201C49.885 63.0149 49.2829 63.7037 48.4763 63.8135M48.4763 63.8135L48.5794 64.5662M48.4763 63.8135C42.4576 64.6382 37.9185 69.8309 37.9185 75.8926C37.9185 82.6244 43.405 88.1003 50.1494 88.1003L106.412 88.1003C114.805 88.1003 121.633 81.285 121.633 72.9083C121.633 65.2996 115.932 58.8294 108.374 57.8572M48.4763 63.8135L48.5787 64.5663C48.5789 64.5663 48.5792 64.5663 48.5794 64.5662" fill="url(#paint1_linear_107_26)" stroke="#525B82" stroke-width="1.51958"/>
</g>
<g filter="url(#filter2_d_107_26)">
<path d="M100.143 62.3177L100.071 62.3085C99.1163 62.1859 98.3968 61.3761 98.3923 60.4116M100.143 62.3177L99.1521 60.4078M100.143 62.3177C105.128 62.9947 108.879 67.2777 108.88 72.3054M100.143 62.3177L108.88 72.3054M98.3923 60.4116C98.3923 60.4114 98.3923 60.4113 98.3923 60.4112L99.1521 60.4078M98.3923 60.4116C98.3923 60.4117 98.3923 60.4118 98.3923 60.4119L99.1521 60.4078M98.3923 60.4116C98.3527 53.181 92.4242 47.293 85.1765 47.293C79.5948 47.293 74.5881 50.8208 72.7202 56.0679L72.7201 56.0682C72.543 56.5649 72.1701 56.9663 71.6887 57.1799M99.1521 60.4078C99.1105 52.7578 92.8411 46.5332 85.1765 46.5332C79.2743 46.5332 73.9804 50.2624 72.0044 55.813C71.8973 56.1136 71.6716 56.3565 71.3799 56.4857M71.6887 57.1799C71.689 57.1798 71.6894 57.1796 71.6897 57.1795L71.3799 56.4857M71.6887 57.1799C71.6883 57.1801 71.688 57.1802 71.6876 57.1804L71.3799 56.4857M71.6887 57.1799C71.2055 57.3954 70.6563 57.4007 70.1712 57.2005L70.1705 57.2002C69.1992 56.7982 68.1742 56.5946 67.122 56.5946C62.7368 56.5946 59.1683 60.1445 59.1455 64.5125M71.3799 56.4857C71.0882 56.616 70.7553 56.6196 70.461 56.4982C69.3976 56.058 68.2738 55.8348 67.122 55.8348C62.3044 55.8348 58.3856 59.7464 58.3856 64.5546M59.1455 64.5125C59.145 64.5068 59.1445 64.5009 59.1439 64.495L59.1439 64.4948C59.1436 64.4902 59.1376 64.417 59.1132 64.3359L58.3856 64.5546M59.1455 64.5125C59.1454 64.5265 59.1454 64.5406 59.1454 64.5546H58.3856M59.1455 64.5125C59.1468 64.5288 59.1477 64.5436 59.1483 64.5555C59.1499 64.5886 59.1506 64.6243 59.1506 64.6574C59.1506 65.6192 58.4393 66.4325 57.487 66.562M58.3856 64.5546C58.3887 64.565 58.3908 64.6112 58.3908 64.6574C58.3908 65.2387 57.9607 65.7308 57.3846 65.8091M57.3846 65.8091L57.4877 66.5619C57.4875 66.5619 57.4872 66.562 57.487 66.562M57.3846 65.8091C53.0855 66.3982 49.8433 70.1073 49.8433 74.4371C49.8433 79.2455 53.7622 83.1569 58.5796 83.1569H98.7676C104.762 83.1569 109.64 78.2888 109.64 72.3054M57.3846 65.8091L57.487 66.562M57.487 66.562C53.5632 67.1001 50.6031 70.4887 50.6031 74.4371C50.6031 78.8245 54.1805 82.3971 58.5796 82.3971H98.7676C104.344 82.3971 108.88 77.8679 108.88 72.3055L109.64 72.3054M109.64 72.3054H108.88M109.64 72.3054C109.639 66.8707 105.567 62.2491 100.168 61.5547L100.168 61.5549L108.88 72.3054" fill="url(#paint2_linear_107_26)" stroke="white" stroke-width="1.51958"/>
</g>
<path d="M53.603 112.944C53.4453 113.648 52.7443 114.091 52.039 113.934C51.3338 113.777 50.889 113.077 51.0466 112.373C51.2033 111.667 52.8385 110.36 52.8385 110.36C52.8385 110.36 53.7612 112.238 53.6032 112.944L53.603 112.944Z" fill="url(#paint3_radial_107_26)"/>
<path d="M44.6138 116.992C44.4561 117.696 43.755 118.14 43.0498 117.982C42.3446 117.825 41.8997 117.125 42.0574 116.421C42.214 115.716 43.8492 114.408 43.8492 114.408C43.8492 114.408 44.7719 116.287 44.6139 116.992L44.6138 116.992Z" fill="url(#paint4_radial_107_26)"/>
<path d="M50.312 103.268C50.644 101.786 48.8297 97.3079 48.8297 97.3079C48.8297 97.3079 45.2726 100.587 44.9405 102.069C44.6085 103.552 45.5437 105.016 47.0239 105.347C48.504 105.677 49.981 104.746 50.312 103.268V103.268Z" fill="url(#paint5_radial_107_26)"/>
<path d="M61.3586 100.103C61.3586 100.103 57.8063 103.383 57.4742 104.865C57.1422 106.348 58.0774 107.812 59.5576 108.142C61.0377 108.473 62.5099 107.54 62.8409 106.063C63.1777 104.582 61.3586 100.103 61.3586 100.103V100.103Z" fill="url(#paint6_radial_107_26)"/>
<path d="M60.4061 113.24C60.4061 113.24 58.0372 115.427 57.8158 116.416C57.5943 117.404 58.218 118.381 59.205 118.601C60.1921 118.821 61.1738 118.199 61.3945 117.214C61.6191 116.227 60.4061 113.24 60.4061 113.24V113.24Z" fill="url(#paint7_radial_107_26)"/>
<path d="M105.341 112.944C105.183 113.648 104.482 114.091 103.777 113.934C103.072 113.777 102.627 113.077 102.784 112.373C102.941 111.667 104.576 110.36 104.576 110.36C104.576 110.36 105.499 112.238 105.341 112.944L105.341 112.944Z" fill="url(#paint8_radial_107_26)"/>
<path d="M96.3506 116.991C96.1929 117.695 95.4918 118.139 94.7866 117.981C94.0814 117.824 93.6365 117.124 93.7942 116.42C93.9508 115.715 95.586 114.407 95.586 114.407C95.586 114.407 96.5087 116.286 96.3507 116.991L96.3506 116.991Z" fill="url(#paint9_radial_107_26)"/>
<path d="M102.05 103.268C102.382 101.786 100.567 97.3079 100.567 97.3079C100.567 97.3079 97.0104 100.587 96.6783 102.069C96.3463 103.552 97.2815 105.016 98.7617 105.347C100.242 105.677 101.719 104.746 102.05 103.268V103.268Z" fill="url(#paint10_radial_107_26)"/>
<path d="M113.095 100.103C113.095 100.103 109.543 103.383 109.211 104.865C108.878 106.348 109.814 107.812 111.294 108.142C112.774 108.473 114.246 107.54 114.577 106.063C114.914 104.582 113.095 100.103 113.095 100.103V100.103Z" fill="url(#paint11_radial_107_26)"/>
<path d="M112.142 113.24C112.142 113.24 109.773 115.427 109.552 116.416C109.33 117.404 109.954 118.381 110.941 118.601C111.928 118.821 112.91 118.199 113.13 117.214C113.355 116.227 112.142 113.24 112.142 113.24V113.24Z" fill="url(#paint12_radial_107_26)"/>
<path d="M53.9942 112.977C53.8365 113.681 53.1354 114.125 52.4302 113.968C51.7249 113.81 51.2801 113.111 51.4378 112.407C51.5944 111.701 53.2296 110.393 53.2296 110.393C53.2296 110.393 54.1523 112.272 53.9943 112.977L53.9942 112.977Z" fill="url(#paint13_radial_107_26)"/>
<path d="M44.6138 116.992C44.4561 117.696 43.755 118.14 43.0498 117.982C42.3446 117.825 41.8997 117.125 42.0574 116.421C42.214 115.716 43.8492 114.408 43.8492 114.408C43.8492 114.408 44.7719 116.287 44.6139 116.992L44.6138 116.992Z" fill="url(#paint14_radial_107_26)"/>
<path d="M50.312 103.268C50.644 101.786 48.8297 97.3079 48.8297 97.3079C48.8297 97.3079 45.2726 100.587 44.9405 102.069C44.6085 103.552 45.5437 105.016 47.0239 105.347C48.504 105.677 49.981 104.746 50.312 103.268V103.268Z" fill="url(#paint15_radial_107_26)"/>
<path d="M61.7498 100.137C61.7498 100.137 58.1974 103.417 57.8653 104.899C57.5333 106.382 58.4685 107.846 59.9487 108.177C61.4289 108.507 62.9011 107.575 63.232 106.097C63.5688 104.616 61.7498 100.137 61.7498 100.137V100.137Z" fill="url(#paint16_radial_107_26)"/>
<path d="M77.0715 106.215C77.0715 106.215 73.5192 109.495 73.1871 110.978C72.8551 112.46 73.7903 113.924 75.2705 114.255C76.7506 114.585 78.2228 113.653 78.5538 112.175C78.8906 110.694 77.0715 106.215 77.0715 106.215V106.215Z" fill="url(#paint17_radial_107_26)"/>
<path d="M60.4061 113.24C60.4061 113.24 58.0372 115.427 57.8158 116.416C57.5943 117.404 58.218 118.381 59.205 118.601C60.1921 118.821 61.1738 118.199 61.3945 117.214C61.6191 116.227 60.4061 113.24 60.4061 113.24V113.24Z" fill="url(#paint18_radial_107_26)"/>
<path d="M105.341 112.944C105.183 113.648 104.482 114.091 103.777 113.934C103.072 113.777 102.627 113.077 102.784 112.373C102.941 111.667 104.576 110.36 104.576 110.36C104.576 110.36 105.499 112.238 105.341 112.944L105.341 112.944Z" fill="url(#paint19_radial_107_26)"/>
<path d="M90.4644 114.563C90.3067 115.267 89.6056 115.711 88.9004 115.554C88.1951 115.396 87.7503 114.697 87.908 113.993C88.0646 113.287 89.6998 111.979 89.6998 111.979C89.6998 111.979 90.6225 113.858 90.4645 114.563L90.4644 114.563Z" fill="url(#paint20_radial_107_26)"/>
<path d="M102.05 103.268C102.382 101.786 100.567 97.3079 100.567 97.3079C100.567 97.3079 97.0104 100.587 96.6783 102.069C96.3463 103.552 97.2815 105.016 98.7617 105.347C100.242 105.677 101.719 104.746 102.05 103.268V103.268Z" fill="url(#paint21_radial_107_26)"/>
<path d="M113.095 100.103C113.095 100.103 109.543 103.383 109.211 104.865C108.878 106.348 109.814 107.812 111.294 108.142C112.774 108.473 114.246 107.54 114.577 106.063C114.914 104.582 113.095 100.103 113.095 100.103V100.103Z" fill="url(#paint22_radial_107_26)"/>
<path d="M112.142 113.24C112.142 113.24 109.773 115.427 109.552 116.416C109.33 117.404 109.954 118.381 110.941 118.601C111.928 118.821 112.91 118.199 113.13 117.214C113.355 116.227 112.142 113.24 112.142 113.24V113.24Z" fill="url(#paint23_radial_107_26)"/>
<path d="M82.8662 100.887C82.7085 101.591 82.0075 102.035 81.3022 101.877C80.597 101.72 80.1521 101.02 80.3098 100.316C80.4665 99.6108 82.1017 98.303 82.1017 98.303C82.1017 98.303 83.0243 100.182 82.8664 100.887L82.8662 100.887Z" fill="url(#paint24_radial_107_26)"/>
<defs>
<filter id="filter0_d_107_26" x="19.4022" y="0.76503" width="97.2354" height="97.2534" filterUnits="userSpaceOnUse" color-interpolation-filters="sRGB">
<feFlood flood-opacity="0" result="BackgroundImageFix"/>
<feColorMatrix in="SourceAlpha" type="matrix" values="0 0 0 0 0 0 0 0 0 0 0 0 0 0 0 0 0 0 127 0" result="hardAlpha"/>
<feOffset dx="12.1566" dy="12.1566"/>
<feGaussianBlur stdDeviation="15.1958"/>
<feComposite in2="hardAlpha" operator="out"/>
<feColorMatrix type="matrix" values="0 0 0 0 0 0 0 0 0 0 0 0 0 0 0 0 0 0 0.6 0"/>
<feBlend mode="normal" in2="BackgroundImageFix" result="effect1_dropShadow_107_26"/>
<feBlend mode="normal" in="SourceGraphic" in2="effect1_dropShadow_107_26" result="shape"/>
</filter>
<filter id="filter1_d_107_26" x="19.6835" y="18.5922" width="144.498" height="112.056" filterUnits="userSpaceOnUse" color-interpolation-filters="sRGB">
<feFlood flood-opacity="0" result="BackgroundImageFix"/>
<feColorMatrix in="SourceAlpha" type="matrix" values="0 0 0 0 0 0 0 0 0 0 0 0 0 0 0 0 0 0 127 0" result="hardAlpha"/>
<feOffset dx="12.1566" dy="12.1566"/>
<feGaussianBlur stdDeviation="15.1958"/>
<feComposite in2="hardAlpha" operator="out"/>
<feColorMatrix type="matrix" values="0 0 0 0 0 0 0 0 0 0 0 0 0 0 0 0 0 0 0.6 0"/>
<feBlend mode="normal" in2="BackgroundImageFix" result="effect1_dropShadow_107_26"/>
<feBlend mode="normal" in="SourceGraphic" in2="effect1_dropShadow_107_26" result="shape"/>
</filter>
<filter id="filter2_d_107_26" x="31.6083" y="28.2982" width="120.58" height="97.4068" filterUnits="userSpaceOnUse" color-interpolation-filters="sRGB">
<feFlood flood-opacity="0" result="BackgroundImageFix"/>
<feColorMatrix in="SourceAlpha" type="matrix" values="0 0 0 0 0 0 0 0 0 0 0 0 0 0 0 0 0 0 127 0" result="hardAlpha"/>
<feOffset dx="12.1566" dy="12.1566"/>
<feGaussianBlur stdDeviation="15.1958"/>
<feComposite in2="hardAlpha" operator="out"/>
<feColorMatrix type="matrix" values="0 0 0 0 0 0 0 0 0 0 0 0 0 0 0 0 0 0 0.6 0"/>
<feBlend mode="normal" in2="BackgroundImageFix" result="effect1_dropShadow_107_26"/>
<feBlend mode="normal" in="SourceGraphic" in2="effect1_dropShadow_107_26" result="shape"/>
</filter>
<linearGradient id="paint0_linear_107_26" x1="55.8632" y1="19" x2="79.0315" y2="45.3522" gradientUnits="userSpaceOnUse">
<stop stop-color="#E5EFFB"/>
<stop offset="1" stop-color="#8697AE"/>
</linearGradient>
<linearGradient id="paint1_linear_107_26" x1="79.7759" y1="36.8271" x2="102.244" y2="87.9487" gradientUnits="userSpaceOnUse">
<stop stop-color="#3D4C72"/>
<stop offset="1" stop-color="#1C243E"/>
</linearGradient>
<linearGradient id="paint2_linear_107_26" x1="79.7415" y1="46.5332" x2="99.3215" y2="82.9133" gradientUnits="userSpaceOnUse">
<stop stop-color="#E5EFFB"/>
<stop offset="1" stop-color="#8697AE"/>
</linearGradient>
<radialGradient id="paint3_radial_107_26" cx="0" cy="0" r="1" gradientUnits="userSpaceOnUse" gradientTransform="translate(52.4394 112.147) rotate(102.627) scale(1.83135 1.30971)">
<stop stop-color="#93CDFF"/>
<stop offset="1" stop-color="#1291FF" stop-opacity="0.4"/>
</radialGradient>
<radialGradient id="paint4_radial_107_26" cx="0" cy="0" r="1" gradientUnits="userSpaceOnUse" gradientTransform="translate(43.4502 116.195) rotate(102.627) scale(1.83135 1.30971)">
<stop stop-color="#93CDFF"/>
<stop offset="1" stop-color="#1291FF" stop-opacity="0.4"/>
</radialGradient>
<radialGradient id="paint5_radial_107_26" cx="0" cy="0" r="1" gradientUnits="userSpaceOnUse" gradientTransform="translate(47.9268 101.327) rotate(102.627) scale(4.11946 2.75179)">
<stop stop-color="#93CDFF"/>
<stop offset="1" stop-color="#1291FF" stop-opacity="0.4"/>
</radialGradient>
<radialGradient id="paint6_radial_107_26" cx="0" cy="0" r="1" gradientUnits="userSpaceOnUse" gradientTransform="translate(60.4581 104.123) rotate(102.627) scale(4.11946 2.74936)">
<stop stop-color="#93CDFF"/>
<stop offset="1" stop-color="#1291FF" stop-opacity="0.4"/>
</radialGradient>
<radialGradient id="paint7_radial_107_26" cx="0" cy="0" r="1" gradientUnits="userSpaceOnUse" gradientTransform="translate(59.8056 115.92) rotate(102.627) scale(2.74703 1.83339)">
<stop stop-color="#93CDFF"/>
<stop offset="1" stop-color="#1291FF" stop-opacity="0.4"/>
</radialGradient>
<radialGradient id="paint8_radial_107_26" cx="0" cy="0" r="1" gradientUnits="userSpaceOnUse" gradientTransform="translate(104.177 112.147) rotate(102.627) scale(1.83135 1.30971)">
<stop stop-color="#93CDFF"/>
<stop offset="1" stop-color="#1291FF" stop-opacity="0.4"/>
</radialGradient>
<radialGradient id="paint9_radial_107_26" cx="0" cy="0" r="1" gradientUnits="userSpaceOnUse" gradientTransform="translate(95.187 116.194) rotate(102.627) scale(1.83135 1.30971)">
<stop stop-color="#93CDFF"/>
<stop offset="1" stop-color="#1291FF" stop-opacity="0.4"/>
</radialGradient>
<radialGradient id="paint10_radial_107_26" cx="0" cy="0" r="1" gradientUnits="userSpaceOnUse" gradientTransform="translate(99.6646 101.327) rotate(102.627) scale(4.11946 2.75179)">
<stop stop-color="#93CDFF"/>
<stop offset="1" stop-color="#1291FF" stop-opacity="0.4"/>
</radialGradient>
<radialGradient id="paint11_radial_107_26" cx="0" cy="0" r="1" gradientUnits="userSpaceOnUse" gradientTransform="translate(112.194 104.123) rotate(102.627) scale(4.11946 2.74936)">
<stop stop-color="#93CDFF"/>
<stop offset="1" stop-color="#1291FF" stop-opacity="0.4"/>
</radialGradient>
<radialGradient id="paint12_radial_107_26" cx="0" cy="0" r="1" gradientUnits="userSpaceOnUse" gradientTransform="translate(111.541 115.92) rotate(102.627) scale(2.74703 1.83339)">
<stop stop-color="#93CDFF"/>
<stop offset="1" stop-color="#1291FF" stop-opacity="0.4"/>
</radialGradient>
<radialGradient id="paint13_radial_107_26" cx="0" cy="0" r="1" gradientUnits="userSpaceOnUse" gradientTransform="translate(52.8306 112.181) rotate(102.627) scale(1.83135 1.30971)">
<stop stop-color="#93CDFF"/>
<stop offset="1" stop-color="#1291FF" stop-opacity="0.4"/>
</radialGradient>
<radialGradient id="paint14_radial_107_26" cx="0" cy="0" r="1" gradientUnits="userSpaceOnUse" gradientTransform="translate(43.4502 116.195) rotate(102.627) scale(1.83135 1.30971)">
<stop stop-color="#93CDFF"/>
<stop offset="1" stop-color="#1291FF" stop-opacity="0.4"/>
</radialGradient>
<radialGradient id="paint15_radial_107_26" cx="0" cy="0" r="1" gradientUnits="userSpaceOnUse" gradientTransform="translate(47.9268 101.327) rotate(102.627) scale(4.11946 2.75179)">
<stop stop-color="#93CDFF"/>
<stop offset="1" stop-color="#1291FF" stop-opacity="0.4"/>
</radialGradient>
<radialGradient id="paint16_radial_107_26" cx="0" cy="0" r="1" gradientUnits="userSpaceOnUse" gradientTransform="translate(60.8492 104.157) rotate(102.627) scale(4.11946 2.74936)">
<stop stop-color="#93CDFF"/>
<stop offset="1" stop-color="#1291FF" stop-opacity="0.4"/>
</radialGradient>
<radialGradient id="paint17_radial_107_26" cx="0" cy="0" r="1" gradientUnits="userSpaceOnUse" gradientTransform="translate(76.171 110.235) rotate(102.627) scale(4.11946 2.74936)">
<stop stop-color="#93CDFF"/>
<stop offset="1" stop-color="#1291FF" stop-opacity="0.4"/>
</radialGradient>
<radialGradient id="paint18_radial_107_26" cx="0" cy="0" r="1" gradientUnits="userSpaceOnUse" gradientTransform="translate(59.8056 115.92) rotate(102.627) scale(2.74703 1.83339)">
<stop stop-color="#93CDFF"/>
<stop offset="1" stop-color="#1291FF" stop-opacity="0.4"/>
</radialGradient>
<radialGradient id="paint19_radial_107_26" cx="0" cy="0" r="1" gradientUnits="userSpaceOnUse" gradientTransform="translate(104.177 112.147) rotate(102.627) scale(1.83135 1.30971)">
<stop stop-color="#93CDFF"/>
<stop offset="1" stop-color="#1291FF" stop-opacity="0.4"/>
</radialGradient>
<radialGradient id="paint20_radial_107_26" cx="0" cy="0" r="1" gradientUnits="userSpaceOnUse" gradientTransform="translate(89.3008 113.767) rotate(102.627) scale(1.83135 1.30971)">
<stop stop-color="#93CDFF"/>
<stop offset="1" stop-color="#1291FF" stop-opacity="0.4"/>
</radialGradient>
<radialGradient id="paint21_radial_107_26" cx="0" cy="0" r="1" gradientUnits="userSpaceOnUse" gradientTransform="translate(99.6646 101.327) rotate(102.627) scale(4.11946 2.75179)">
<stop stop-color="#93CDFF"/>
<stop offset="1" stop-color="#1291FF" stop-opacity="0.4"/>
</radialGradient>
<radialGradient id="paint22_radial_107_26" cx="0" cy="0" r="1" gradientUnits="userSpaceOnUse" gradientTransform="translate(112.194 104.123) rotate(102.627) scale(4.11946 2.74936)">
<stop stop-color="#93CDFF"/>
<stop offset="1" stop-color="#1291FF" stop-opacity="0.4"/>
</radialGradient>
<radialGradient id="paint23_radial_107_26" cx="0" cy="0" r="1" gradientUnits="userSpaceOnUse" gradientTransform="translate(111.541 115.92) rotate(102.627) scale(2.74703 1.83339)">
<stop stop-color="#93CDFF"/>
<stop offset="1" stop-color="#1291FF" stop-opacity="0.4"/>
</radialGradient>
<radialGradient id="paint24_radial_107_26" cx="0" cy="0" r="1" gradientUnits="userSpaceOnUse" gradientTransform="translate(81.7026 100.09) rotate(102.627) scale(1.83135 1.30971)">
<stop stop-color="#93CDFF"/>
<stop offset="1" stop-color="#1291FF" stop-opacity="0.4"/>
</radialGradient>
</defs>
</svg>
