<svg width="193" height="155" viewBox="0 0 193 155" fill="none" xmlns="http://www.w3.org/2000/svg">
<g filter="url(#filter0_d_105_34)">
<path d="M116.987 57.878L116.856 57.8612C115.295 57.6604 114.121 56.3341 114.114 54.7586M116.987 57.878L115.156 54.7539M116.987 57.878C126.146 59.1237 133.04 67.0072 133.041 76.2667C133.041 86.5103 124.705 94.8462 114.462 94.8462H41.9337C33.8149 94.8462 27.2087 88.2401 27.2087 80.1211C27.2087 72.8131 32.6754 66.5468 39.9186 65.5524M116.987 57.878L117.038 57.8845L117.216 57.8445L117.218 57.8442L116.99 56.8277M116.987 57.878C116.943 57.8721 116.9 57.8664 116.857 57.8608L116.99 56.8319L116.99 56.8277M116.987 57.878L116.989 56.828L116.99 56.8277M114.114 54.7586L115.156 54.7539M114.114 54.7586C114.114 54.7589 114.114 54.7592 114.114 54.7596L115.156 54.7539M114.114 54.7586C114.042 41.4996 103.193 30.7082 89.9338 30.7082C79.7226 30.7082 70.5618 37.1738 67.1433 46.7947L67.1432 46.7951C66.8543 47.6071 66.2455 48.264 65.4587 48.6137M115.156 54.7539C115.081 40.9215 103.766 29.6665 89.9338 29.6665C79.2819 29.6665 69.7279 36.4095 66.1618 46.4459C65.9685 46.9893 65.5612 47.4285 65.0347 47.6622C64.5082 47.8978 63.9075 47.9043 63.3764 47.6847C61.4571 46.8889 59.429 46.4853 57.3503 46.4853C48.6559 46.4853 41.5836 53.5579 41.5836 62.252M65.4587 48.6137C65.4592 48.6135 65.4596 48.6132 65.4601 48.613L65.035 47.6629L65.4573 48.6143C65.4577 48.6141 65.4582 48.6139 65.4587 48.6137ZM65.4587 48.6137C64.6693 48.9664 63.7715 48.9753 62.9784 48.6474L62.9774 48.6469C61.1847 47.9036 59.2922 47.527 57.3503 47.527C49.2522 47.527 42.6594 54.0991 42.6254 62.1891M42.6254 62.1891C42.625 62.185 42.6246 62.1808 42.6242 62.1765L42.6241 62.1756C42.6231 62.1639 42.6144 62.0631 42.5813 61.9527L41.5836 62.252M42.6254 62.1891C42.6253 62.2101 42.6252 62.2311 42.6252 62.252H41.5836M42.6254 62.1891C42.628 62.219 42.6297 62.2471 42.6308 62.2699C42.6334 62.3235 42.6346 62.3824 42.6346 62.4379C42.6346 64.0087 41.475 65.3398 39.9186 65.5524M41.5836 62.252C41.5892 62.2708 41.5929 62.3543 41.5929 62.4379C41.5929 63.489 40.8168 64.3787 39.777 64.5204M39.777 64.5204L39.9186 65.5524M39.777 64.5204C32.0184 65.5856 26.167 72.2922 26.167 80.1211C26.167 88.8154 33.2396 95.8878 41.9337 95.8878H114.462C125.281 95.8878 134.083 87.0856 134.083 76.2667C134.082 66.4398 126.734 58.0833 116.99 56.8277M39.777 64.5204L39.9176 65.5525C39.918 65.5525 39.9183 65.5524 39.9186 65.5524" fill="url(#paint0_linear_105_34)" stroke="#525B82" stroke-width="2.08333"/>
</g>
<g filter="url(#filter1_d_105_34)">
<path d="M106.278 62.6354L106.37 62.6472C112.765 63.5174 117.579 69.0223 117.58 75.487C117.58 82.6395 111.759 88.4604 104.606 88.4604H52.8005C47.1657 88.4604 42.5802 83.8751 42.5802 78.2402C42.5802 73.169 46.3752 68.8189 51.4017 68.1288C52.6609 67.9567 53.5988 66.8798 53.5988 65.6093C53.5988 65.5658 53.5978 65.5187 53.5957 65.4748C53.595 65.4597 53.5939 65.4408 53.5922 65.4199C53.6228 59.8111 58.1963 55.2563 63.8124 55.2563C65.1603 55.2563 66.4734 55.5176 67.7177 56.0335L67.7187 56.034C68.36 56.2991 69.0863 56.2921 69.7252 56.0067C70.3616 55.7238 70.854 55.1924 71.0877 54.5356L71.0878 54.5352C73.4874 47.7819 79.9185 43.2428 87.0863 43.2428C96.3934 43.2428 104.01 50.8191 104.06 60.1264C104.067 61.4007 105.016 62.473 106.278 62.6354ZM69.3012 55.0552C68.9251 55.2235 68.4961 55.2282 68.1167 55.0713L105.102 60.1207C105.048 50.2404 96.9666 42.2012 87.0863 42.2012C79.4778 42.2012 72.6535 47.0176 70.1063 54.1865C69.9682 54.5746 69.6773 54.8883 69.3012 55.0552Z" fill="url(#paint1_linear_105_34)" stroke="white" stroke-width="2.08333"/>
</g>
<g filter="url(#filter2_d_105_34)">
<path d="M41.5646 22.0584L41.7774 22.5376C42.1738 22.3617 42.4805 22.0309 42.626 21.6219L42.6261 21.6217C44.3468 16.7789 48.958 13.5243 54.098 13.5243C60.7723 13.5243 66.2333 18.9566 66.2695 25.6309C66.2733 26.4238 66.864 27.0911 67.6496 27.1921L67.7154 27.2006C72.3259 27.8276 75.7964 31.7959 75.7968 36.4568C75.7968 41.613 71.6009 45.809 66.4446 45.809H29.9364C25.8497 45.809 22.5243 42.4838 22.5243 38.397C22.5243 34.7185 25.2759 31.5645 28.9216 31.0637C29.7053 30.9569 30.2892 30.2868 30.2892 29.4959C30.2892 29.468 30.2886 29.4383 30.2873 29.4113C30.2867 29.3998 30.2859 29.3857 30.2846 29.3707C30.3017 25.2985 33.6203 21.9903 37.6966 21.9903C38.6741 21.9903 39.6267 22.1799 40.5291 22.554L40.5296 22.5543C40.929 22.7194 41.3813 22.7148 41.7788 22.537L41.5646 22.0584ZM41.5646 22.0584C41.2996 22.1769 40.9973 22.1802 40.7299 22.0697L67.7165 26.6721C67.1912 26.6045 66.7962 26.1581 66.7939 25.6281C66.7561 18.6653 61.0608 13 54.098 13C48.7362 13 43.9271 16.3942 42.132 21.4461C42.0347 21.7196 41.8297 21.9407 41.5646 22.0584Z" fill="url(#paint2_linear_105_34)" stroke="#525B82" stroke-width="1.04867"/>
</g>
<g filter="url(#filter3_d_105_34)">
<path d="M62.3255 29.5954L62.3719 29.6014C65.5907 30.0393 68.014 32.8103 68.0143 36.0644C68.0143 39.6647 65.0842 42.5947 61.4839 42.5947H35.4067C32.5703 42.5947 30.2621 40.2867 30.2621 37.4502C30.2621 34.8977 32.1722 32.7081 34.7023 32.3606C35.3363 32.2741 35.8085 31.732 35.8085 31.0923C35.8085 31.0704 35.808 31.0468 35.8069 31.0247C35.8066 31.017 35.806 31.0075 35.8052 30.997C35.8206 28.1737 38.1227 25.881 40.9496 25.881C41.6282 25.881 42.2891 26.0126 42.9155 26.2723L42.916 26.2725C43.2388 26.4059 43.6044 26.4024 43.926 26.2588C44.2463 26.1163 44.4942 25.8489 44.6118 25.5183L44.6119 25.5181C45.8197 22.1187 49.0569 19.8339 52.6649 19.8339C57.3498 19.8339 61.1837 23.6475 61.2091 28.3325C61.2122 28.9739 61.69 29.5137 62.3255 29.5954Z" fill="url(#paint3_linear_105_34)" stroke="white" stroke-width="1.04867"/>
</g>
<g filter="url(#filter4_d_105_34)">
<path d="M130.203 97.4728C130.206 98.0676 130.649 98.5683 131.238 98.6441L131.288 98.6504L130.596 97.471M130.203 97.4728L130.596 97.471M130.203 97.4728C130.203 97.4729 130.203 97.4731 130.203 97.4732L130.596 97.471M130.203 97.4728C130.176 92.4672 126.08 88.3933 121.075 88.3933C117.22 88.3933 113.761 90.8342 112.471 94.4663L112.471 94.4664C112.361 94.7729 112.132 95.0209 111.835 95.1529M130.596 97.471C130.568 92.249 126.297 88 121.075 88C117.053 88 113.446 90.5456 112.1 94.3346C112.027 94.5397 111.873 94.7055 111.674 94.7938M111.835 95.1529C111.835 95.1528 111.835 95.1528 111.835 95.1527L111.674 94.7938M111.835 95.1529C111.834 95.153 111.834 95.1531 111.834 95.1532L111.674 94.7938M111.835 95.1529C111.537 95.2861 111.198 95.2895 110.898 95.1657L110.898 95.1655C110.221 94.8849 109.507 94.7427 108.773 94.7427C105.716 94.7427 103.227 97.2239 103.214 100.278M111.674 94.7938C111.476 94.8827 111.249 94.8852 111.048 94.8023C110.324 94.5018 109.558 94.3495 108.773 94.3495C105.491 94.3495 102.821 97.0195 102.821 100.302M102.821 100.302L103.198 100.189C103.211 100.232 103.214 100.272 103.214 100.273C103.214 100.275 103.214 100.276 103.214 100.278M102.821 100.302C102.823 100.309 102.825 100.34 102.825 100.372C102.825 100.769 102.532 101.105 102.139 101.158L102.192 101.548C102.78 101.468 103.218 100.965 103.218 100.372C103.218 100.351 103.217 100.329 103.216 100.309C103.216 100.3 103.215 100.289 103.214 100.278M102.821 100.302H103.214C103.214 100.294 103.214 100.286 103.214 100.278" fill="url(#paint4_linear_105_34)" stroke="#525B82" stroke-width="0.786507"/>
</g>
<g filter="url(#filter5_d_105_34)">
<path d="M127.279 100.451L127.245 100.447C126.768 100.385 126.409 99.9805 126.407 99.4994M127.279 100.451L126.8 99.4975M127.279 100.451C129.693 100.78 131.511 102.858 131.511 105.299L127.279 100.451ZM126.407 99.4994C126.407 99.4993 126.407 99.4993 126.407 99.4992L126.8 99.4975M126.407 99.4994C126.407 99.4995 126.407 99.4995 126.407 99.4996L126.8 99.4975M126.407 99.4994C126.388 95.9858 123.513 93.1257 119.999 93.1257C117.293 93.1257 114.865 94.8393 113.959 97.3888L113.959 97.389C113.871 97.6369 113.685 97.8375 113.445 97.9443M126.8 99.4975C126.78 95.7674 123.729 92.7324 119.999 92.7324C117.127 92.7324 114.55 94.5507 113.589 97.2571C113.537 97.4037 113.427 97.5221 113.285 97.5851M113.445 97.9443C113.445 97.9442 113.445 97.9442 113.445 97.9441L113.285 97.5851M113.445 97.9443C113.204 98.0521 112.929 98.0547 112.687 97.9546L112.687 97.9544C112.217 97.7597 111.722 97.661 111.213 97.661C109.092 97.661 107.366 99.3805 107.354 101.498M113.445 97.9443C113.445 97.9444 113.445 97.9445 113.444 97.9445L113.285 97.5851M113.285 97.5851L107.354 101.498M107.354 101.498C107.355 101.506 107.355 101.513 107.356 101.519C107.356 101.535 107.357 101.553 107.357 101.569C107.357 102.049 107.002 102.456 106.527 102.521M107.354 101.498L106.527 102.521M106.527 102.521C104.629 102.781 103.197 104.424 103.197 106.338C103.197 108.465 104.928 110.196 107.055 110.196H126.613C129.314 110.196 131.511 107.999 131.511 105.299L106.527 102.521Z" fill="url(#paint5_linear_105_34)" stroke="white" stroke-width="0.786507"/>
</g>
<defs>
<filter id="filter0_d_105_34" x="1.16699" y="4.66651" width="191.249" height="149.555" filterUnits="userSpaceOnUse" color-interpolation-filters="sRGB">
<feFlood flood-opacity="0" result="BackgroundImageFix"/>
<feColorMatrix in="SourceAlpha" type="matrix" values="0 0 0 0 0 0 0 0 0 0 0 0 0 0 0 0 0 0 127 0" result="hardAlpha"/>
<feOffset dx="16.6667" dy="16.6667"/>
<feGaussianBlur stdDeviation="20.8333"/>
<feComposite in2="hardAlpha" operator="out"/>
<feColorMatrix type="matrix" values="0 0 0 0 0 0 0 0 0 0 0 0 0 0 0 0 0 0 0.6 0"/>
<feBlend mode="normal" in2="BackgroundImageFix" result="effect1_dropShadow_105_34"/>
<feBlend mode="normal" in="SourceGraphic" in2="effect1_dropShadow_105_34" result="shape"/>
</filter>
<filter id="filter1_d_105_34" x="16.5386" y="17.2012" width="160.416" height="130.634" filterUnits="userSpaceOnUse" color-interpolation-filters="sRGB">
<feFlood flood-opacity="0" result="BackgroundImageFix"/>
<feColorMatrix in="SourceAlpha" type="matrix" values="0 0 0 0 0 0 0 0 0 0 0 0 0 0 0 0 0 0 127 0" result="hardAlpha"/>
<feOffset dx="16.6667" dy="16.6667"/>
<feGaussianBlur stdDeviation="20.8333"/>
<feComposite in2="hardAlpha" operator="out"/>
<feColorMatrix type="matrix" values="0 0 0 0 0 0 0 0 0 0 0 0 0 0 0 0 0 0 0.6 0"/>
<feBlend mode="normal" in2="BackgroundImageFix" result="effect1_dropShadow_105_34"/>
<feBlend mode="normal" in="SourceGraphic" in2="effect1_dropShadow_105_34" result="shape"/>
</filter>
<filter id="filter2_d_105_34" x="9.4159" y="0.415903" width="96.2683" height="75.2805" filterUnits="userSpaceOnUse" color-interpolation-filters="sRGB">
<feFlood flood-opacity="0" result="BackgroundImageFix"/>
<feColorMatrix in="SourceAlpha" type="matrix" values="0 0 0 0 0 0 0 0 0 0 0 0 0 0 0 0 0 0 127 0" result="hardAlpha"/>
<feOffset dx="8.3894" dy="8.3894"/>
<feGaussianBlur stdDeviation="10.4867"/>
<feComposite in2="hardAlpha" operator="out"/>
<feColorMatrix type="matrix" values="0 0 0 0 0 0 0 0 0 0 0 0 0 0 0 0 0 0 0.6 0"/>
<feBlend mode="normal" in2="BackgroundImageFix" result="effect1_dropShadow_105_34"/>
<feBlend mode="normal" in="SourceGraphic" in2="effect1_dropShadow_105_34" result="shape"/>
</filter>
<filter id="filter3_d_105_34" x="17.1537" y="6.72547" width="80.7478" height="65.7566" filterUnits="userSpaceOnUse" color-interpolation-filters="sRGB">
<feFlood flood-opacity="0" result="BackgroundImageFix"/>
<feColorMatrix in="SourceAlpha" type="matrix" values="0 0 0 0 0 0 0 0 0 0 0 0 0 0 0 0 0 0 127 0" result="hardAlpha"/>
<feOffset dx="8.3894" dy="8.3894"/>
<feGaussianBlur stdDeviation="10.4867"/>
<feComposite in2="hardAlpha" operator="out"/>
<feColorMatrix type="matrix" values="0 0 0 0 0 0 0 0 0 0 0 0 0 0 0 0 0 0 0.6 0"/>
<feBlend mode="normal" in2="BackgroundImageFix" result="effect1_dropShadow_105_34"/>
<feBlend mode="normal" in="SourceGraphic" in2="effect1_dropShadow_105_34" result="shape"/>
</filter>
<filter id="filter4_d_105_34" x="87.5629" y="78.5619" width="72.2015" height="56.4603" filterUnits="userSpaceOnUse" color-interpolation-filters="sRGB">
<feFlood flood-opacity="0" result="BackgroundImageFix"/>
<feColorMatrix in="SourceAlpha" type="matrix" values="0 0 0 0 0 0 0 0 0 0 0 0 0 0 0 0 0 0 127 0" result="hardAlpha"/>
<feOffset dx="6.29206" dy="6.29206"/>
<feGaussianBlur stdDeviation="7.86507"/>
<feComposite in2="hardAlpha" operator="out"/>
<feColorMatrix type="matrix" values="0 0 0 0 0 0 0 0 0 0 0 0 0 0 0 0 0 0 0.6 0"/>
<feBlend mode="normal" in2="BackgroundImageFix" result="effect1_dropShadow_105_34"/>
<feBlend mode="normal" in="SourceGraphic" in2="effect1_dropShadow_105_34" result="shape"/>
</filter>
<filter id="filter5_d_105_34" x="93.3656" y="83.2943" width="60.5609" height="49.3172" filterUnits="userSpaceOnUse" color-interpolation-filters="sRGB">
<feFlood flood-opacity="0" result="BackgroundImageFix"/>
<feColorMatrix in="SourceAlpha" type="matrix" values="0 0 0 0 0 0 0 0 0 0 0 0 0 0 0 0 0 0 127 0" result="hardAlpha"/>
<feOffset dx="6.29206" dy="6.29206"/>
<feGaussianBlur stdDeviation="7.86507"/>
<feComposite in2="hardAlpha" operator="out"/>
<feColorMatrix type="matrix" values="0 0 0 0 0 0 0 0 0 0 0 0 0 0 0 0 0 0 0.6 0"/>
<feBlend mode="normal" in2="BackgroundImageFix" result="effect1_dropShadow_105_34"/>
<feBlend mode="normal" in="SourceGraphic" in2="effect1_dropShadow_105_34" result="shape"/>
</filter>
<linearGradient id="paint0_linear_105_34" x1="80.125" y1="29.6665" x2="109.18" y2="95.6513" gradientUnits="userSpaceOnUse">
<stop stop-color="#3D4C72"/>
<stop offset="1" stop-color="#1C243E"/>
</linearGradient>
<linearGradient id="paint1_linear_105_34" x1="80.08" y1="42.2012" x2="105.395" y2="89.1474" gradientUnits="userSpaceOnUse">
<stop stop-color="#E5EFFB"/>
<stop offset="1" stop-color="#8697AE"/>
</linearGradient>
<linearGradient id="paint2_linear_105_34" x1="49.1606" y1="13" x2="63.7858" y2="46.2143" gradientUnits="userSpaceOnUse">
<stop stop-color="#3D4C72"/>
<stop offset="1" stop-color="#1C243E"/>
</linearGradient>
<linearGradient id="paint3_linear_105_34" x1="49.1382" y1="19.3096" x2="61.8807" y2="42.9406" gradientUnits="userSpaceOnUse">
<stop stop-color="#E5EFFB"/>
<stop offset="1" stop-color="#8697AE"/>
</linearGradient>
<linearGradient id="paint4_linear_105_34" x1="117.371" y1="88" x2="128.34" y2="112.911" gradientUnits="userSpaceOnUse">
<stop stop-color="#3D4C72"/>
<stop offset="1" stop-color="#1C243E"/>
</linearGradient>
<linearGradient id="paint5_linear_105_34" x1="117.354" y1="92.7324" x2="126.911" y2="110.456" gradientUnits="userSpaceOnUse">
<stop stop-color="#E5EFFB"/>
<stop offset="1" stop-color="#8697AE"/>
</linearGradient>
</defs>
</svg>
