<svg width="181" height="136" viewBox="0 0 181 136" fill="none" xmlns="http://www.w3.org/2000/svg">
<g filter="url(#filter0_d_34_1028)">
<path d="M113.357 48.9977L113.475 49.0132C121.793 50.1635 128.075 57.4491 128.075 66.0305C128.075 75.5247 120.481 83.224 111.182 83.224L45.318 83.224C37.9479 83.224 31.9246 77.122 31.9246 69.5897C31.9246 62.8103 36.9096 57.018 43.4872 56.0998C44.9006 55.9034 45.9331 54.6804 45.9331 53.261C45.9331 53.2105 45.9321 53.1569 45.9297 53.1085C45.9287 53.0872 45.9272 53.0611 45.9247 53.0336C45.9544 45.5272 51.9659 39.4551 59.318 39.4551C61.0821 39.4551 62.8017 39.803 64.4311 40.49L64.432 40.4904C65.15 40.7922 65.9636 40.7839 66.6779 40.4594C67.3893 40.1379 67.9347 39.5365 68.1926 38.7994L68.1927 38.7991C71.3041 29.8951 79.6353 23.9246 88.9075 23.9246C100.946 23.9246 110.822 33.8919 110.887 46.1706C110.894 47.5939 111.939 48.8123 113.357 48.9977Z" fill="url(#paint0_linear_34_1028)" stroke="#525B82" stroke-width="1.84925"/>
</g>
<g filter="url(#filter1_d_34_1028)">
<path d="M103.835 53.4179L103.752 53.4069C102.605 53.2569 101.763 52.272 101.758 51.1262M103.835 53.4179L102.683 51.1221M103.835 53.4179C109.642 54.2213 114.035 59.3106 114.035 65.3113C114.035 71.9511 108.725 77.3282 102.233 77.3282H55.1871C50.0728 77.3282 45.8846 73.092 45.8846 67.8535C45.8846 63.14 49.3509 59.1173 53.915 58.4797M103.835 53.4179L103.916 53.4284L104.077 53.3916L104.078 53.3914L103.873 52.4899M103.835 53.4179C103.808 53.414 103.78 53.4103 103.752 53.4067L103.872 52.4926L103.873 52.4899M103.835 53.4179L103.872 52.4901L103.873 52.4899M101.758 51.1262L102.683 51.1221M101.758 51.1262C101.758 51.1264 101.758 51.1267 101.758 51.127L102.683 51.1221M101.758 51.1262C101.712 42.4972 94.7714 35.4998 86.3225 35.4998C79.814 35.4998 73.9617 39.6913 71.7756 45.9474L71.7754 45.9478C71.5677 46.5415 71.128 47.027 70.5532 47.2868M102.683 51.1221C102.634 41.9986 95.2949 34.5752 86.3225 34.5752C79.4131 34.5752 73.2159 39.0227 70.9027 45.6424C70.7773 46.0008 70.5131 46.2905 70.1716 46.4446M70.5532 47.2868C70.5536 47.2866 70.5541 47.2864 70.5545 47.2862L70.1716 46.4446M70.5532 47.2868C70.5528 47.287 70.5524 47.2872 70.552 47.2874L70.1716 46.4446M70.5532 47.2868C69.9755 47.5492 69.3177 47.5557 68.7376 47.3118L68.7367 47.3115C67.6053 46.8344 66.4118 46.593 65.1871 46.593C60.089 46.593 55.9114 50.8022 55.8847 56.0173M70.1716 46.4446C69.8301 46.6 69.4405 46.6043 69.0959 46.4595C67.851 45.9346 66.5354 45.6684 65.1871 45.6684C59.5475 45.6684 54.96 50.3333 54.96 56.0676M54.96 56.0676L55.8468 55.806C55.8754 55.9032 55.8824 55.9908 55.8829 55.9961L55.8829 55.9963C55.8836 56.0035 55.8842 56.0105 55.8847 56.0173M54.96 56.0676C54.9636 56.08 54.966 56.1351 54.966 56.1902C54.966 56.8835 54.4626 57.4703 53.7881 57.5638C48.7555 58.2664 44.96 62.6898 44.96 67.8535C44.96 73.5881 49.5476 78.2528 55.1871 78.2528H102.233C109.25 78.2528 114.96 72.4471 114.96 65.3113C114.959 58.8298 110.193 53.318 103.873 52.4899M54.96 56.0676H55.8846C55.8846 56.0509 55.8846 56.0341 55.8847 56.0173M55.8847 56.0173C55.8862 56.0367 55.8872 56.0544 55.8879 56.0686C55.8898 56.1082 55.8907 56.1507 55.8907 56.1902C55.8907 57.3326 55.059 58.3211 53.915 58.4797M53.915 58.4797C53.9153 58.4796 53.9156 58.4796 53.9159 58.4795L53.7882 57.5643L53.915 58.4797Z" fill="url(#paint1_linear_34_1028)" stroke="white" stroke-width="1.84925"/>
</g>
<path d="M49.3611 113.777C49.1765 114.616 48.3558 115.146 47.5302 114.958C46.7046 114.77 46.1839 113.936 46.3685 113.096C46.5518 112.255 48.466 110.695 48.466 110.695C48.466 110.695 49.5462 112.936 49.3612 113.777L49.3611 113.777Z" fill="url(#paint2_radial_34_1028)"/>
<path d="M38.8372 118.605C38.6525 119.445 37.8318 119.974 37.0063 119.786C36.1807 119.599 35.6599 118.764 35.8445 117.925C36.0279 117.083 37.9421 115.523 37.9421 115.523C37.9421 115.523 39.0222 117.764 38.8373 118.605L38.8372 118.605Z" fill="url(#paint3_radial_34_1028)"/>
<path d="M45.508 102.238C45.8967 100.47 43.7728 95.1295 43.7728 95.1295C43.7728 95.1295 39.6087 99.0404 39.22 100.808C38.8312 102.576 39.9261 104.322 41.6588 104.716C43.3915 105.11 45.1205 104 45.508 102.238V102.238Z" fill="url(#paint4_radial_34_1028)"/>
<path d="M58.4386 98.4627C58.4386 98.4627 54.2801 102.375 53.8913 104.143C53.5026 105.91 54.5975 107.657 56.3302 108.051C58.0629 108.445 59.7864 107.333 60.1738 105.571C60.5681 103.805 58.4386 98.4627 58.4386 98.4627V98.4627Z" fill="url(#paint5_radial_34_1028)"/>
<path d="M57.3237 114.13C57.3237 114.13 54.5506 116.739 54.2914 117.918C54.0322 119.096 54.7623 120.261 55.9177 120.524C57.0732 120.787 58.2225 120.045 58.4808 118.87C58.7437 117.692 57.3237 114.13 57.3237 114.13V114.13Z" fill="url(#paint6_radial_34_1028)"/>
<path d="M109.927 113.777C109.742 114.616 108.922 115.146 108.096 114.958C107.271 114.77 106.75 113.936 106.934 113.096C107.118 112.255 109.032 110.695 109.032 110.695C109.032 110.695 110.112 112.936 109.927 113.777L109.927 113.777Z" fill="url(#paint7_radial_34_1028)"/>
<path d="M99.4021 118.604C99.2175 119.443 98.3968 119.973 97.5712 119.785C96.7456 119.597 96.2249 118.763 96.4095 117.923C96.5928 117.082 98.5071 115.522 98.5071 115.522C98.5071 115.522 99.5872 117.763 99.4022 118.604L99.4021 118.604Z" fill="url(#paint8_radial_34_1028)"/>
<path d="M71.9904 98.8237C72.3791 97.0561 70.2552 91.7155 70.2552 91.7155C70.2552 91.7155 66.0911 95.6263 65.7024 97.394C65.3137 99.1617 66.4085 100.908 68.1412 101.302C69.874 101.696 71.603 100.586 71.9904 98.8237V98.8237Z" fill="url(#paint9_radial_34_1028)"/>
<path d="M119.004 98.4627C119.004 98.4627 114.845 102.375 114.457 104.143C114.068 105.91 115.163 107.657 116.896 108.051C118.628 108.445 120.352 107.333 120.739 105.571C121.133 103.805 119.004 98.4627 119.004 98.4627V98.4627Z" fill="url(#paint10_radial_34_1028)"/>
<path d="M117.888 114.13C117.888 114.13 115.115 116.739 114.856 117.918C114.597 119.096 115.327 120.261 116.482 120.524C117.638 120.787 118.787 120.045 119.045 118.87C119.308 117.692 117.888 114.13 117.888 114.13V114.13Z" fill="url(#paint11_radial_34_1028)"/>
<path d="M49.8186 113.816C49.634 114.656 48.8133 115.185 47.9877 114.998C47.1621 114.81 46.6414 113.975 46.826 113.136C47.0093 112.295 48.9236 110.735 48.9236 110.735C48.9236 110.735 50.0037 112.975 49.8187 113.816L49.8186 113.816Z" fill="url(#paint12_radial_34_1028)"/>
<path d="M38.8372 118.605C38.6525 119.445 37.8318 119.974 37.0063 119.786C36.1807 119.599 35.6599 118.764 35.8445 117.925C36.0279 117.083 37.9421 115.523 37.9421 115.523C37.9421 115.523 39.0222 117.764 38.8373 118.605L38.8372 118.605Z" fill="url(#paint13_radial_34_1028)"/>
<path d="M45.508 102.238C45.8967 100.47 43.7728 95.1295 43.7728 95.1295C43.7728 95.1295 39.6087 99.0404 39.22 100.808C38.8312 102.576 39.9261 104.322 41.6588 104.716C43.3915 105.11 45.1205 104 45.508 102.238V102.238Z" fill="url(#paint14_radial_34_1028)"/>
<path d="M58.8971 98.5028C58.8971 98.5028 54.7386 102.415 54.3498 104.183C53.9611 105.95 55.056 107.697 56.7887 108.091C58.5214 108.485 60.2449 107.373 60.6323 105.611C61.0266 103.845 58.8971 98.5028 58.8971 98.5028V98.5028Z" fill="url(#paint15_radial_34_1028)"/>
<path d="M57.3237 114.13C57.3237 114.13 54.5506 116.739 54.2914 117.918C54.0322 119.096 54.7623 120.261 55.9177 120.524C57.0732 120.787 58.2225 120.045 58.4808 118.87C58.7437 117.692 57.3237 114.13 57.3237 114.13V114.13Z" fill="url(#paint16_radial_34_1028)"/>
<path d="M109.927 113.777C109.742 114.616 108.922 115.146 108.096 114.958C107.271 114.77 106.75 113.936 106.934 113.096C107.118 112.255 109.032 110.695 109.032 110.695C109.032 110.695 110.112 112.936 109.927 113.777L109.927 113.777Z" fill="url(#paint17_radial_34_1028)"/>
<path d="M92.5115 115.709C92.3269 116.548 91.5062 117.078 90.6806 116.89C89.855 116.702 89.3342 115.868 89.5188 115.028C89.7022 114.187 91.6164 112.627 91.6164 112.627C91.6164 112.627 92.6966 114.867 92.5116 115.709L92.5115 115.709Z" fill="url(#paint18_radial_34_1028)"/>
<path d="M93.9904 105.824C94.3791 104.056 92.2552 98.7155 92.2552 98.7155C92.2552 98.7155 88.0911 102.626 87.7024 104.394C87.3137 106.162 88.4085 107.908 90.1412 108.302C91.874 108.696 93.603 107.586 93.9904 105.824V105.824Z" fill="url(#paint19_radial_34_1028)"/>
<path d="M79.9904 117.824C80.3791 116.056 78.2552 110.715 78.2552 110.715C78.2552 110.715 74.0911 114.626 73.7024 116.394C73.3137 118.162 74.4085 119.908 76.1412 120.302C77.874 120.696 79.603 119.586 79.9904 117.824V117.824Z" fill="url(#paint20_radial_34_1028)"/>
<path d="M119.004 98.4627C119.004 98.4627 114.845 102.375 114.457 104.143C114.068 105.91 115.163 107.657 116.896 108.051C118.628 108.445 120.352 107.333 120.739 105.571C121.133 103.805 119.004 98.4627 119.004 98.4627V98.4627Z" fill="url(#paint21_radial_34_1028)"/>
<path d="M117.888 114.13C117.888 114.13 115.115 116.739 114.856 117.918C114.597 119.096 115.327 120.261 116.482 120.524C117.638 120.787 118.787 120.045 119.045 118.87C119.308 117.692 117.888 114.13 117.888 114.13V114.13Z" fill="url(#paint22_radial_34_1028)"/>
<path d="M83.6174 99.398C83.4328 100.238 82.6121 100.767 81.7865 100.579C80.961 100.392 80.4402 99.557 80.6248 98.7176C80.8082 97.8761 82.7224 96.3164 82.7224 96.3164C82.7224 96.3164 83.8025 98.5569 83.6176 99.398L83.6174 99.398Z" fill="url(#paint23_radial_34_1028)"/>
<path d="M74.8274 107.94C74.6428 108.78 73.8221 109.309 72.9965 109.122C72.1709 108.934 71.6502 108.1 71.8348 107.26C72.0181 106.419 73.9324 104.859 73.9324 104.859C73.9324 104.859 75.0125 107.099 74.8275 107.94L74.8274 107.94Z" fill="url(#paint24_radial_34_1028)"/>
<path d="M105.951 94.3941C105.951 94.3941 103.613 96.5528 103.395 97.5282C103.176 98.5036 103.792 99.4674 104.766 99.6848C105.74 99.9022 106.709 99.2886 106.926 98.3164C107.148 97.3417 105.951 94.3941 105.951 94.3941V94.3941Z" fill="url(#paint25_radial_34_1028)"/>
<defs>
<filter id="filter0_d_34_1028" x="8.80905" y="0.80905" width="171.97" height="135.118" filterUnits="userSpaceOnUse" color-interpolation-filters="sRGB">
<feFlood flood-opacity="0" result="BackgroundImageFix"/>
<feColorMatrix in="SourceAlpha" type="matrix" values="0 0 0 0 0 0 0 0 0 0 0 0 0 0 0 0 0 0 127 0" result="hardAlpha"/>
<feOffset dx="14.794" dy="14.794"/>
<feGaussianBlur stdDeviation="18.4925"/>
<feComposite in2="hardAlpha" operator="out"/>
<feColorMatrix type="matrix" values="0 0 0 0 0 0 0 0 0 0 0 0 0 0 0 0 0 0 0.6 0"/>
<feBlend mode="normal" in2="BackgroundImageFix" result="effect1_dropShadow_34_1028"/>
<feBlend mode="normal" in="SourceGraphic" in2="effect1_dropShadow_34_1028" result="shape"/>
</filter>
<filter id="filter1_d_34_1028" x="22.769" y="12.3842" width="143.97" height="117.648" filterUnits="userSpaceOnUse" color-interpolation-filters="sRGB">
<feFlood flood-opacity="0" result="BackgroundImageFix"/>
<feColorMatrix in="SourceAlpha" type="matrix" values="0 0 0 0 0 0 0 0 0 0 0 0 0 0 0 0 0 0 127 0" result="hardAlpha"/>
<feOffset dx="14.794" dy="14.794"/>
<feGaussianBlur stdDeviation="18.4925"/>
<feComposite in2="hardAlpha" operator="out"/>
<feColorMatrix type="matrix" values="0 0 0 0 0 0 0 0 0 0 0 0 0 0 0 0 0 0 0.6 0"/>
<feBlend mode="normal" in2="BackgroundImageFix" result="effect1_dropShadow_34_1028"/>
<feBlend mode="normal" in="SourceGraphic" in2="effect1_dropShadow_34_1028" result="shape"/>
</filter>
<linearGradient id="paint0_linear_34_1028" x1="80" y1="23" x2="107.131" y2="83.5962" gradientUnits="userSpaceOnUse">
<stop stop-color="#3D4C72"/>
<stop offset="1" stop-color="#1C243E"/>
</linearGradient>
<linearGradient id="paint1_linear_34_1028" x1="79.96" y1="34.5752" x2="103.549" y2="77.5962" gradientUnits="userSpaceOnUse">
<stop stop-color="#E5EFFB"/>
<stop offset="1" stop-color="#8697AE"/>
</linearGradient>
<radialGradient id="paint2_radial_34_1028" cx="0" cy="0" r="1" gradientUnits="userSpaceOnUse" gradientTransform="translate(47.9989 112.827) rotate(102.402) scale(2.18217 1.53454)">
<stop stop-color="#93CDFF"/>
<stop offset="1" stop-color="#1291FF" stop-opacity="0.4"/>
</radialGradient>
<radialGradient id="paint3_radial_34_1028" cx="0" cy="0" r="1" gradientUnits="userSpaceOnUse" gradientTransform="translate(37.475 117.655) rotate(102.402) scale(2.18217 1.53454)">
<stop stop-color="#93CDFF"/>
<stop offset="1" stop-color="#1291FF" stop-opacity="0.4"/>
</radialGradient>
<radialGradient id="paint4_radial_34_1028" cx="0" cy="0" r="1" gradientUnits="userSpaceOnUse" gradientTransform="translate(42.7158 99.9229) rotate(102.402) scale(4.9086 3.22417)">
<stop stop-color="#93CDFF"/>
<stop offset="1" stop-color="#1291FF" stop-opacity="0.4"/>
</radialGradient>
<radialGradient id="paint5_radial_34_1028" cx="0" cy="0" r="1" gradientUnits="userSpaceOnUse" gradientTransform="translate(57.3844 103.257) rotate(102.402) scale(4.9086 3.22132)">
<stop stop-color="#93CDFF"/>
<stop offset="1" stop-color="#1291FF" stop-opacity="0.4"/>
</radialGradient>
<radialGradient id="paint6_radial_34_1028" cx="0" cy="0" r="1" gradientUnits="userSpaceOnUse" gradientTransform="translate(56.6207 117.327) rotate(102.402) scale(3.27326 2.14811)">
<stop stop-color="#93CDFF"/>
<stop offset="1" stop-color="#1291FF" stop-opacity="0.4"/>
</radialGradient>
<radialGradient id="paint7_radial_34_1028" cx="0" cy="0" r="1" gradientUnits="userSpaceOnUse" gradientTransform="translate(108.565 112.827) rotate(102.402) scale(2.18217 1.53454)">
<stop stop-color="#93CDFF"/>
<stop offset="1" stop-color="#1291FF" stop-opacity="0.4"/>
</radialGradient>
<radialGradient id="paint8_radial_34_1028" cx="0" cy="0" r="1" gradientUnits="userSpaceOnUse" gradientTransform="translate(98.0399 117.654) rotate(102.402) scale(2.18217 1.53454)">
<stop stop-color="#93CDFF"/>
<stop offset="1" stop-color="#1291FF" stop-opacity="0.4"/>
</radialGradient>
<radialGradient id="paint9_radial_34_1028" cx="0" cy="0" r="1" gradientUnits="userSpaceOnUse" gradientTransform="translate(69.1982 96.5089) rotate(102.402) scale(4.9086 3.22417)">
<stop stop-color="#93CDFF"/>
<stop offset="1" stop-color="#1291FF" stop-opacity="0.4"/>
</radialGradient>
<radialGradient id="paint10_radial_34_1028" cx="0" cy="0" r="1" gradientUnits="userSpaceOnUse" gradientTransform="translate(117.95 103.257) rotate(102.402) scale(4.9086 3.22132)">
<stop stop-color="#93CDFF"/>
<stop offset="1" stop-color="#1291FF" stop-opacity="0.4"/>
</radialGradient>
<radialGradient id="paint11_radial_34_1028" cx="0" cy="0" r="1" gradientUnits="userSpaceOnUse" gradientTransform="translate(117.185 117.327) rotate(102.402) scale(3.27326 2.14811)">
<stop stop-color="#93CDFF"/>
<stop offset="1" stop-color="#1291FF" stop-opacity="0.4"/>
</radialGradient>
<radialGradient id="paint12_radial_34_1028" cx="0" cy="0" r="1" gradientUnits="userSpaceOnUse" gradientTransform="translate(48.4564 112.866) rotate(102.402) scale(2.18217 1.53454)">
<stop stop-color="#93CDFF"/>
<stop offset="1" stop-color="#1291FF" stop-opacity="0.4"/>
</radialGradient>
<radialGradient id="paint13_radial_34_1028" cx="0" cy="0" r="1" gradientUnits="userSpaceOnUse" gradientTransform="translate(37.475 117.655) rotate(102.402) scale(2.18217 1.53454)">
<stop stop-color="#93CDFF"/>
<stop offset="1" stop-color="#1291FF" stop-opacity="0.4"/>
</radialGradient>
<radialGradient id="paint14_radial_34_1028" cx="0" cy="0" r="1" gradientUnits="userSpaceOnUse" gradientTransform="translate(42.7158 99.9229) rotate(102.402) scale(4.9086 3.22417)">
<stop stop-color="#93CDFF"/>
<stop offset="1" stop-color="#1291FF" stop-opacity="0.4"/>
</radialGradient>
<radialGradient id="paint15_radial_34_1028" cx="0" cy="0" r="1" gradientUnits="userSpaceOnUse" gradientTransform="translate(57.8429 103.297) rotate(102.402) scale(4.9086 3.22132)">
<stop stop-color="#93CDFF"/>
<stop offset="1" stop-color="#1291FF" stop-opacity="0.4"/>
</radialGradient>
<radialGradient id="paint16_radial_34_1028" cx="0" cy="0" r="1" gradientUnits="userSpaceOnUse" gradientTransform="translate(56.6207 117.327) rotate(102.402) scale(3.27326 2.14811)">
<stop stop-color="#93CDFF"/>
<stop offset="1" stop-color="#1291FF" stop-opacity="0.4"/>
</radialGradient>
<radialGradient id="paint17_radial_34_1028" cx="0" cy="0" r="1" gradientUnits="userSpaceOnUse" gradientTransform="translate(108.565 112.827) rotate(102.402) scale(2.18217 1.53454)">
<stop stop-color="#93CDFF"/>
<stop offset="1" stop-color="#1291FF" stop-opacity="0.4"/>
</radialGradient>
<radialGradient id="paint18_radial_34_1028" cx="0" cy="0" r="1" gradientUnits="userSpaceOnUse" gradientTransform="translate(91.1493 114.759) rotate(102.402) scale(2.18217 1.53454)">
<stop stop-color="#93CDFF"/>
<stop offset="1" stop-color="#1291FF" stop-opacity="0.4"/>
</radialGradient>
<radialGradient id="paint19_radial_34_1028" cx="0" cy="0" r="1" gradientUnits="userSpaceOnUse" gradientTransform="translate(91.1982 103.509) rotate(102.402) scale(4.9086 3.22417)">
<stop stop-color="#93CDFF"/>
<stop offset="1" stop-color="#1291FF" stop-opacity="0.4"/>
</radialGradient>
<radialGradient id="paint20_radial_34_1028" cx="0" cy="0" r="1" gradientUnits="userSpaceOnUse" gradientTransform="translate(77.1982 115.509) rotate(102.402) scale(4.9086 3.22417)">
<stop stop-color="#93CDFF"/>
<stop offset="1" stop-color="#1291FF" stop-opacity="0.4"/>
</radialGradient>
<radialGradient id="paint21_radial_34_1028" cx="0" cy="0" r="1" gradientUnits="userSpaceOnUse" gradientTransform="translate(117.95 103.257) rotate(102.402) scale(4.9086 3.22132)">
<stop stop-color="#93CDFF"/>
<stop offset="1" stop-color="#1291FF" stop-opacity="0.4"/>
</radialGradient>
<radialGradient id="paint22_radial_34_1028" cx="0" cy="0" r="1" gradientUnits="userSpaceOnUse" gradientTransform="translate(117.185 117.327) rotate(102.402) scale(3.27326 2.14811)">
<stop stop-color="#93CDFF"/>
<stop offset="1" stop-color="#1291FF" stop-opacity="0.4"/>
</radialGradient>
<radialGradient id="paint23_radial_34_1028" cx="0" cy="0" r="1" gradientUnits="userSpaceOnUse" gradientTransform="translate(82.2553 98.448) rotate(102.402) scale(2.18217 1.53454)">
<stop stop-color="#93CDFF"/>
<stop offset="1" stop-color="#1291FF" stop-opacity="0.4"/>
</radialGradient>
<radialGradient id="paint24_radial_34_1028" cx="0" cy="0" r="1" gradientUnits="userSpaceOnUse" gradientTransform="translate(73.4652 106.991) rotate(102.402) scale(2.18217 1.53454)">
<stop stop-color="#93CDFF"/>
<stop offset="1" stop-color="#1291FF" stop-opacity="0.4"/>
</radialGradient>
<radialGradient id="paint25_radial_34_1028" cx="0" cy="0" r="1" gradientUnits="userSpaceOnUse" gradientTransform="translate(105.358 97.0394) rotate(102.627) scale(2.71091 1.80929)">
<stop stop-color="#93CDFF"/>
<stop offset="1" stop-color="#1291FF" stop-opacity="0.4"/>
</radialGradient>
</defs>
</svg>
