<svg width="160" height="110" viewBox="0 0 160 110" fill="none" xmlns="http://www.w3.org/2000/svg">
<g filter="url(#filter0_d_34_1032)">
<path d="M108.826 33.9546L108.913 33.9658L108.913 33.9657C116.334 34.9637 121.92 41.3336 121.92 48.8161C121.92 57.0864 115.178 63.8176 106.889 63.8176H49.4801C42.8735 63.8176 37.5 58.453 37.5 51.8612C37.5 45.9268 41.9462 40.8391 47.8408 40.0314C48.9111 39.8855 49.7103 38.9714 49.7103 37.8907C49.7103 37.8511 49.7094 37.8099 49.7077 37.7737C49.7068 37.756 49.7056 37.7356 49.7036 37.7154C49.7035 37.7144 49.7033 37.7121 49.7029 37.7087C49.722 31.1331 55.088 25.7876 61.683 25.7876C63.2628 25.7876 64.8032 26.0935 66.2616 26.6971L66.2621 26.6973C66.8081 26.9226 67.4259 26.9163 67.9687 26.6742C68.5103 26.434 68.9296 25.9827 69.1286 25.4243L69.1287 25.4241C71.8803 17.6947 79.2537 12.5 87.4743 12.5C98.149 12.5 106.881 21.1705 106.939 31.8228C106.944 32.9061 107.752 33.8168 108.826 33.9546Z" fill="url(#paint0_linear_34_1032)" stroke="#525B82"/>
</g>
<g filter="url(#filter1_d_34_1032)">
<path d="M100.529 37.7369L100.454 37.7274C99.6166 37.6198 98.9855 36.9091 98.9817 36.0632M100.529 37.7369L99.4817 36.061M100.529 37.7369C105.752 38.4458 109.682 42.9324 109.683 48.201C109.683 54.0292 104.931 58.7735 99.0894 58.7735H58.0828C53.4425 58.7735 49.6685 55.0054 49.6685 50.3761C49.6685 46.2091 52.7911 42.6353 56.9308 42.0678M100.529 37.7369L100.541 37.7385L100.627 37.7194L100.628 37.7192L100.519 37.2313M100.529 37.7369C100.504 37.7336 100.48 37.7303 100.455 37.7272L100.518 37.2336L100.519 37.2313M100.529 37.7369L100.518 37.2314L100.519 37.2313M98.9817 36.0632L99.4817 36.061M98.9817 36.0632C98.9817 36.0634 98.9817 36.0636 98.9817 36.0637L99.4817 36.061M98.9817 36.0632C98.9405 28.5335 92.7678 22.4038 85.2215 22.4038C79.41 22.4038 74.1972 26.0764 72.2521 31.5404L72.252 31.5406C72.0967 31.9763 71.7695 32.3285 71.347 32.5159M99.4817 36.061C99.4393 28.2552 93.0422 21.9038 85.2215 21.9038C79.199 21.9038 73.7973 25.709 71.7811 31.3727C71.6718 31.6793 71.4415 31.9272 71.1438 32.059M71.347 32.5159C71.3472 32.5158 71.3475 32.5157 71.3477 32.5156L71.1438 32.059M71.347 32.5159C71.3468 32.516 71.3466 32.5161 71.3463 32.5162L71.1438 32.059M71.347 32.5159C70.9233 32.7049 70.4413 32.7097 70.0155 32.534L70.015 32.5338C68.9906 32.1098 67.9089 31.8949 66.7991 31.8949C62.1693 31.8949 58.4021 35.6459 58.3849 40.2606M71.1438 32.059C70.8461 32.192 70.5065 32.1957 70.2062 32.0718C69.1211 31.6226 67.9744 31.3949 66.7991 31.3949C61.8835 31.3949 57.8848 35.3861 57.8848 40.2923M58.3849 40.2606C58.3848 40.2598 58.3847 40.2589 58.3846 40.2581C58.3843 40.2552 58.3804 40.2041 58.3636 40.1484L57.8848 40.2923M58.3849 40.2606C58.3848 40.2712 58.3848 40.2817 58.3848 40.2923H57.8848M58.3849 40.2606C58.3864 40.2773 58.3874 40.2934 58.3881 40.3066C58.3895 40.3352 58.3901 40.367 58.3901 40.3972C58.3901 41.2407 57.7662 41.9542 56.9308 42.0678M57.8848 40.2923C57.888 40.3029 57.8901 40.35 57.8901 40.3972C57.8901 40.9903 57.4513 41.4924 56.8634 41.5724M56.8634 41.5724L56.9313 42.0677C56.9311 42.0678 56.9309 42.0678 56.9308 42.0678M56.8634 41.5724C52.4768 42.1735 49.1685 45.9581 49.1685 50.3761C49.1685 55.2824 53.1672 59.2735 58.0828 59.2735H99.0894C105.206 59.2735 110.183 54.3063 110.183 48.201C110.182 42.6555 106.028 37.9398 100.519 37.2313M56.8634 41.5724L56.9308 42.0678" fill="url(#paint1_linear_34_1032)" stroke="white"/>
</g>
<path d="M87.9083 64.645L87.4504 64.8458C87.4577 64.8627 87.4554 64.8821 87.4442 64.8966L87.4441 64.8964L87.4359 64.9078L79.2329 76.2437L78.659 77.0368H79.638H89.8521C89.8673 77.0416 89.88 77.0532 89.886 77.0688C89.8928 77.0871 89.8888 77.1081 89.8747 77.123L89.8746 77.123L89.8687 77.1294L74.7421 93.6885C74.7417 93.6874 74.7414 93.6864 74.7411 93.6853C74.7398 93.6802 74.739 93.6741 74.7397 93.6665C74.7404 93.6592 74.7426 93.6465 74.751 93.6281L80.1468 81.8592L80.4716 81.1508H79.6923H69.5459C69.5332 81.1471 69.5228 81.1384 69.5169 81.127C69.5094 81.1124 69.5102 81.0956 69.5184 81.0821L69.5233 81.074L69.5279 81.0658L78.5563 64.8214L78.5564 64.8215L78.5583 64.8179H87.4185C87.4328 64.8222 87.4445 64.8325 87.4506 64.8463L87.9083 64.645ZM87.9083 64.645C87.8275 64.4613 87.6531 64.3359 87.453 64.3179L90.354 76.8927C90.2794 76.6951 90.0988 76.5567 89.8883 76.5368H80.2551L80.043 76.8299L79.638 76.5368V76.0368H79.9998L87.841 65.2009C87.9631 65.0417 87.9888 64.8288 87.9083 64.645ZM79.463 82.1508L74.2965 93.4198C74.0435 93.9717 74.6905 94.4863 75.0888 94.0502M79.463 82.1508L90.2379 77.4666L75.0888 94.0502M79.463 82.1508H79.6923V81.6508L79.2378 81.4425L79.1422 81.6508H69.5139L79.463 82.1508ZM75.0888 94.0502L74.7236 93.7166L74.7417 93.7137C74.7351 93.7139 74.729 93.715 74.7236 93.7165L75.0888 94.0502Z" fill="url(#paint2_linear_34_1032)" stroke="#FEBA0A"/>
<path d="M53.004 89.667C52.8431 90.3853 52.1277 90.8383 51.4081 90.6777C50.6885 90.5171 50.2346 89.8031 50.3955 89.0849C50.5554 88.3649 52.2239 87.0305 52.2239 87.0305C52.2239 87.0305 53.1653 88.9475 53.0041 89.6671L53.004 89.667Z" fill="url(#paint3_radial_34_1032)"/>
<path d="M43.8316 93.7979C43.6707 94.5162 42.9554 94.9692 42.2358 94.8086C41.5162 94.648 41.0623 93.934 41.2232 93.2158C41.383 92.4958 43.0515 91.1614 43.0515 91.1614C43.0515 91.1614 43.993 93.0783 43.8318 93.7979L43.8316 93.7979Z" fill="url(#paint4_radial_34_1032)"/>
<path d="M49.6455 79.7941C49.9843 78.2818 48.133 73.7125 48.133 73.7125C48.133 73.7125 44.5034 77.0585 44.1646 78.5709C43.8258 80.0834 44.7801 81.5777 46.2904 81.9148C47.8007 82.2519 49.3078 81.3016 49.6455 79.7941V79.7941Z" fill="url(#paint5_radial_34_1032)"/>
<path d="M60.9172 76.5652C60.9172 76.5652 57.2925 79.9123 56.9537 81.4247C56.6148 82.9371 57.5691 84.4315 59.0795 84.7686C60.5898 85.1056 62.092 84.1542 62.4297 82.6468C62.7733 81.1356 60.9172 76.5652 60.9172 76.5652V76.5652Z" fill="url(#paint6_radial_34_1032)"/>
<path d="M59.945 89.9695C59.945 89.9695 57.5278 92.2015 57.3019 93.21C57.076 94.2186 57.7123 95.2151 58.7195 95.4399C59.7266 95.6646 60.7283 95.0302 60.9535 94.025C61.1827 93.0172 59.945 89.9695 59.945 89.9695V89.9695Z" fill="url(#paint7_radial_34_1032)"/>
<path d="M105.796 89.667C105.635 90.3853 104.919 90.8383 104.2 90.6777C103.48 90.5171 103.026 89.8031 103.187 89.0849C103.347 88.3649 105.015 87.0305 105.015 87.0305C105.015 87.0305 105.957 88.9475 105.796 89.6671L105.796 89.667Z" fill="url(#paint8_radial_34_1032)"/>
<path d="M96.6217 93.7972C96.4608 94.5155 95.7454 94.9685 95.0258 94.8079C94.3062 94.6473 93.8523 93.9333 94.0132 93.215C94.173 92.495 95.8415 91.1607 95.8415 91.1607C95.8415 91.1607 96.783 93.0776 96.6218 93.7972L96.6217 93.7972Z" fill="url(#paint9_radial_34_1032)"/>
<path d="M102.437 79.7941C102.776 78.2818 100.925 73.7125 100.925 73.7125C100.925 73.7125 97.2954 77.0585 96.9566 78.5709C96.6178 80.0834 97.5721 81.5777 99.0824 81.9148C100.593 82.2519 102.1 81.3016 102.437 79.7941V79.7941Z" fill="url(#paint10_radial_34_1032)"/>
<path d="M113.708 76.5652C113.708 76.5652 110.083 79.9123 109.744 81.4247C109.405 82.9371 110.36 84.4315 111.87 84.7686C113.38 85.1056 114.882 84.1542 115.22 82.6468C115.564 81.1356 113.708 76.5652 113.708 76.5652V76.5652Z" fill="url(#paint11_radial_34_1032)"/>
<path d="M112.736 89.9695C112.736 89.9695 110.319 92.2015 110.093 93.21C109.867 94.2186 110.504 95.2151 111.511 95.4399C112.518 95.6646 113.52 95.0302 113.745 94.025C113.974 93.0172 112.736 89.9695 112.736 89.9695V89.9695Z" fill="url(#paint12_radial_34_1032)"/>
<path d="M53.004 89.667C52.8431 90.3853 52.1277 90.8383 51.4081 90.6777C50.6885 90.5171 50.2346 89.8031 50.3955 89.0849C50.5554 88.3649 52.2239 87.0305 52.2239 87.0305C52.2239 87.0305 53.1653 88.9475 53.0041 89.6671L53.004 89.667Z" fill="url(#paint13_radial_34_1032)"/>
<path d="M43.8316 93.7979C43.6707 94.5162 42.9554 94.9692 42.2358 94.8086C41.5162 94.648 41.0623 93.934 41.2232 93.2158C41.383 92.4958 43.0515 91.1614 43.0515 91.1614C43.0515 91.1614 43.993 93.0783 43.8318 93.7979L43.8316 93.7979Z" fill="url(#paint14_radial_34_1032)"/>
<path d="M49.6455 79.7941C49.9843 78.2818 48.133 73.7125 48.133 73.7125C48.133 73.7125 44.5034 77.0585 44.1646 78.5709C43.8258 80.0834 44.7801 81.5777 46.2904 81.9148C47.8007 82.2519 49.3078 81.3016 49.6455 79.7941V79.7941Z" fill="url(#paint15_radial_34_1032)"/>
<path d="M60.9172 76.5652C60.9172 76.5652 57.2925 79.9123 56.9537 81.4247C56.6148 82.9371 57.5691 84.4315 59.0795 84.7686C60.5898 85.1056 62.092 84.1542 62.4297 82.6468C62.7733 81.1356 60.9172 76.5652 60.9172 76.5652V76.5652Z" fill="url(#paint16_radial_34_1032)"/>
<path d="M59.945 89.9695C59.945 89.9695 57.5278 92.2015 57.3019 93.21C57.076 94.2186 57.7123 95.2151 58.7195 95.4399C59.7266 95.6646 60.7283 95.0302 60.9535 94.025C61.1827 93.0172 59.945 89.9695 59.945 89.9695V89.9695Z" fill="url(#paint17_radial_34_1032)"/>
<path d="M105.796 89.667C105.635 90.3853 104.919 90.8383 104.2 90.6777C103.48 90.5171 103.026 89.8031 103.187 89.0849C103.347 88.3649 105.015 87.0305 105.015 87.0305C105.015 87.0305 105.957 88.9475 105.796 89.6671L105.796 89.667Z" fill="url(#paint18_radial_34_1032)"/>
<path d="M96.6217 93.7972C96.4608 94.5155 95.7454 94.9685 95.0258 94.8079C94.3062 94.6473 93.8523 93.9333 94.0132 93.215C94.173 92.495 95.8415 91.1607 95.8415 91.1607C95.8415 91.1607 96.783 93.0776 96.6218 93.7972L96.6217 93.7972Z" fill="url(#paint19_radial_34_1032)"/>
<path d="M102.437 79.7941C102.776 78.2818 100.925 73.7125 100.925 73.7125C100.925 73.7125 97.2954 77.0585 96.9566 78.5709C96.6178 80.0834 97.5721 81.5777 99.0824 81.9148C100.593 82.2519 102.1 81.3016 102.437 79.7941V79.7941Z" fill="url(#paint20_radial_34_1032)"/>
<path d="M113.708 76.5652C113.708 76.5652 110.083 79.9123 109.744 81.4247C109.405 82.9371 110.36 84.4315 111.87 84.7686C113.38 85.1056 114.882 84.1542 115.22 82.6468C115.564 81.1356 113.708 76.5652 113.708 76.5652V76.5652Z" fill="url(#paint21_radial_34_1032)"/>
<path d="M112.736 89.9695C112.736 89.9695 110.319 92.2015 110.093 93.21C109.867 94.2186 110.504 95.2151 111.511 95.4399C112.518 95.6646 113.52 95.0302 113.745 94.025C113.974 93.0172 112.736 89.9695 112.736 89.9695V89.9695Z" fill="url(#paint22_radial_34_1032)"/>
<defs>
<filter id="filter0_d_34_1032" x="25" y="0" width="125.42" height="92.3176" filterUnits="userSpaceOnUse" color-interpolation-filters="sRGB">
<feFlood flood-opacity="0" result="BackgroundImageFix"/>
<feColorMatrix in="SourceAlpha" type="matrix" values="0 0 0 0 0 0 0 0 0 0 0 0 0 0 0 0 0 0 127 0" result="hardAlpha"/>
<feOffset dx="8" dy="8"/>
<feGaussianBlur stdDeviation="10"/>
<feComposite in2="hardAlpha" operator="out"/>
<feColorMatrix type="matrix" values="0 0 0 0 0 0 0 0 0 0 0 0 0 0 0 0 0 0 0.6 0"/>
<feBlend mode="normal" in2="BackgroundImageFix" result="effect1_dropShadow_34_1032"/>
<feBlend mode="normal" in="SourceGraphic" in2="effect1_dropShadow_34_1032" result="shape"/>
</filter>
<filter id="filter1_d_34_1032" x="37.1685" y="9.90381" width="101.015" height="77.3696" filterUnits="userSpaceOnUse" color-interpolation-filters="sRGB">
<feFlood flood-opacity="0" result="BackgroundImageFix"/>
<feColorMatrix in="SourceAlpha" type="matrix" values="0 0 0 0 0 0 0 0 0 0 0 0 0 0 0 0 0 0 127 0" result="hardAlpha"/>
<feOffset dx="8" dy="8"/>
<feGaussianBlur stdDeviation="10"/>
<feComposite in2="hardAlpha" operator="out"/>
<feColorMatrix type="matrix" values="0 0 0 0 0 0 0 0 0 0 0 0 0 0 0 0 0 0 0.6 0"/>
<feBlend mode="normal" in2="BackgroundImageFix" result="effect1_dropShadow_34_1032"/>
<feBlend mode="normal" in="SourceGraphic" in2="effect1_dropShadow_34_1032" result="shape"/>
</filter>
<linearGradient id="paint0_linear_34_1032" x1="79.7102" y1="12" x2="102.635" y2="64.1629" gradientUnits="userSpaceOnUse">
<stop stop-color="#3D4C72"/>
<stop offset="1" stop-color="#1C243E"/>
</linearGradient>
<linearGradient id="paint1_linear_34_1032" x1="79.6757" y1="21.9038" x2="99.6546" y2="59.025" gradientUnits="userSpaceOnUse">
<stop stop-color="#E5EFFB"/>
<stop offset="1" stop-color="#8697AE"/>
</linearGradient>
<linearGradient id="paint2_linear_34_1032" x1="79.7005" y1="64.3179" x2="79.7005" y2="94.2136" gradientUnits="userSpaceOnUse">
<stop stop-color="#9B8C00"/>
<stop offset="1" stop-color="#FFF6A8"/>
</linearGradient>
<radialGradient id="paint3_radial_34_1032" cx="0" cy="0" r="1" gradientUnits="userSpaceOnUse" gradientTransform="translate(51.8167 88.8543) rotate(102.627) scale(1.86865 1.33639)">
<stop stop-color="#93CDFF"/>
<stop offset="1" stop-color="#1291FF" stop-opacity="0.4"/>
</radialGradient>
<radialGradient id="paint4_radial_34_1032" cx="0" cy="0" r="1" gradientUnits="userSpaceOnUse" gradientTransform="translate(42.6443 92.9851) rotate(102.627) scale(1.86865 1.33639)">
<stop stop-color="#93CDFF"/>
<stop offset="1" stop-color="#1291FF" stop-opacity="0.4"/>
</radialGradient>
<radialGradient id="paint5_radial_34_1032" cx="0" cy="0" r="1" gradientUnits="userSpaceOnUse" gradientTransform="translate(47.2117 77.8136) rotate(102.627) scale(4.20337 2.80785)">
<stop stop-color="#93CDFF"/>
<stop offset="1" stop-color="#1291FF" stop-opacity="0.4"/>
</radialGradient>
<radialGradient id="paint6_radial_34_1032" cx="0" cy="0" r="1" gradientUnits="userSpaceOnUse" gradientTransform="translate(59.9983 80.6669) rotate(102.627) scale(4.20337 2.80537)">
<stop stop-color="#93CDFF"/>
<stop offset="1" stop-color="#1291FF" stop-opacity="0.4"/>
</radialGradient>
<radialGradient id="paint7_radial_34_1032" cx="0" cy="0" r="1" gradientUnits="userSpaceOnUse" gradientTransform="translate(59.3322 92.7047) rotate(102.627) scale(2.80298 1.87074)">
<stop stop-color="#93CDFF"/>
<stop offset="1" stop-color="#1291FF" stop-opacity="0.4"/>
</radialGradient>
<radialGradient id="paint8_radial_34_1032" cx="0" cy="0" r="1" gradientUnits="userSpaceOnUse" gradientTransform="translate(104.608 88.8543) rotate(102.627) scale(1.86865 1.33639)">
<stop stop-color="#93CDFF"/>
<stop offset="1" stop-color="#1291FF" stop-opacity="0.4"/>
</radialGradient>
<radialGradient id="paint9_radial_34_1032" cx="0" cy="0" r="1" gradientUnits="userSpaceOnUse" gradientTransform="translate(95.4344 92.9844) rotate(102.627) scale(1.86865 1.33639)">
<stop stop-color="#93CDFF"/>
<stop offset="1" stop-color="#1291FF" stop-opacity="0.4"/>
</radialGradient>
<radialGradient id="paint10_radial_34_1032" cx="0" cy="0" r="1" gradientUnits="userSpaceOnUse" gradientTransform="translate(100.004 77.8136) rotate(102.627) scale(4.20337 2.80785)">
<stop stop-color="#93CDFF"/>
<stop offset="1" stop-color="#1291FF" stop-opacity="0.4"/>
</radialGradient>
<radialGradient id="paint11_radial_34_1032" cx="0" cy="0" r="1" gradientUnits="userSpaceOnUse" gradientTransform="translate(112.789 80.6669) rotate(102.627) scale(4.20337 2.80537)">
<stop stop-color="#93CDFF"/>
<stop offset="1" stop-color="#1291FF" stop-opacity="0.4"/>
</radialGradient>
<radialGradient id="paint12_radial_34_1032" cx="0" cy="0" r="1" gradientUnits="userSpaceOnUse" gradientTransform="translate(112.124 92.7047) rotate(102.627) scale(2.80298 1.87074)">
<stop stop-color="#93CDFF"/>
<stop offset="1" stop-color="#1291FF" stop-opacity="0.4"/>
</radialGradient>
<radialGradient id="paint13_radial_34_1032" cx="0" cy="0" r="1" gradientUnits="userSpaceOnUse" gradientTransform="translate(51.8167 88.8543) rotate(102.627) scale(1.86865 1.33639)">
<stop stop-color="#93CDFF"/>
<stop offset="1" stop-color="#1291FF" stop-opacity="0.4"/>
</radialGradient>
<radialGradient id="paint14_radial_34_1032" cx="0" cy="0" r="1" gradientUnits="userSpaceOnUse" gradientTransform="translate(42.6443 92.9851) rotate(102.627) scale(1.86865 1.33639)">
<stop stop-color="#93CDFF"/>
<stop offset="1" stop-color="#1291FF" stop-opacity="0.4"/>
</radialGradient>
<radialGradient id="paint15_radial_34_1032" cx="0" cy="0" r="1" gradientUnits="userSpaceOnUse" gradientTransform="translate(47.2117 77.8136) rotate(102.627) scale(4.20337 2.80785)">
<stop stop-color="#93CDFF"/>
<stop offset="1" stop-color="#1291FF" stop-opacity="0.4"/>
</radialGradient>
<radialGradient id="paint16_radial_34_1032" cx="0" cy="0" r="1" gradientUnits="userSpaceOnUse" gradientTransform="translate(59.9983 80.6669) rotate(102.627) scale(4.20337 2.80537)">
<stop stop-color="#93CDFF"/>
<stop offset="1" stop-color="#1291FF" stop-opacity="0.4"/>
</radialGradient>
<radialGradient id="paint17_radial_34_1032" cx="0" cy="0" r="1" gradientUnits="userSpaceOnUse" gradientTransform="translate(59.3322 92.7047) rotate(102.627) scale(2.80298 1.87074)">
<stop stop-color="#93CDFF"/>
<stop offset="1" stop-color="#1291FF" stop-opacity="0.4"/>
</radialGradient>
<radialGradient id="paint18_radial_34_1032" cx="0" cy="0" r="1" gradientUnits="userSpaceOnUse" gradientTransform="translate(104.608 88.8543) rotate(102.627) scale(1.86865 1.33639)">
<stop stop-color="#93CDFF"/>
<stop offset="1" stop-color="#1291FF" stop-opacity="0.4"/>
</radialGradient>
<radialGradient id="paint19_radial_34_1032" cx="0" cy="0" r="1" gradientUnits="userSpaceOnUse" gradientTransform="translate(95.4344 92.9844) rotate(102.627) scale(1.86865 1.33639)">
<stop stop-color="#93CDFF"/>
<stop offset="1" stop-color="#1291FF" stop-opacity="0.4"/>
</radialGradient>
<radialGradient id="paint20_radial_34_1032" cx="0" cy="0" r="1" gradientUnits="userSpaceOnUse" gradientTransform="translate(100.004 77.8136) rotate(102.627) scale(4.20337 2.80785)">
<stop stop-color="#93CDFF"/>
<stop offset="1" stop-color="#1291FF" stop-opacity="0.4"/>
</radialGradient>
<radialGradient id="paint21_radial_34_1032" cx="0" cy="0" r="1" gradientUnits="userSpaceOnUse" gradientTransform="translate(112.789 80.6669) rotate(102.627) scale(4.20337 2.80537)">
<stop stop-color="#93CDFF"/>
<stop offset="1" stop-color="#1291FF" stop-opacity="0.4"/>
</radialGradient>
<radialGradient id="paint22_radial_34_1032" cx="0" cy="0" r="1" gradientUnits="userSpaceOnUse" gradientTransform="translate(112.124 92.7047) rotate(102.627) scale(2.80298 1.87074)">
<stop stop-color="#93CDFF"/>
<stop offset="1" stop-color="#1291FF" stop-opacity="0.4"/>
</radialGradient>
</defs>
</svg>
