<svg width="96" height="76" viewBox="0 0 96 76" fill="none" xmlns="http://www.w3.org/2000/svg">
<g filter="url(#filter0_d_34_1128)">
<path d="M33.7569 26.1904C33.7569 28.196 32.9602 30.1193 31.5422 31.5374C30.1241 32.9555 28.2007 33.7522 26.1951 33.7522C24.1896 33.7522 22.2662 32.9555 20.8481 31.5374C19.43 30.1193 18.6333 28.196 18.6333 26.1904C18.6333 24.1848 19.43 22.2615 20.8481 20.8434C22.2662 19.4253 24.1896 18.6286 26.1951 18.6286C28.2002 18.63 30.1227 19.4272 31.5405 20.845C32.9584 22.2629 33.7555 24.1853 33.7569 26.1904V26.1904ZM40.2576 26.4875L37.2276 29.1407L38.5226 32.9562H38.5223C38.56 33.0654 38.5484 33.1853 38.4906 33.2852C38.434 33.3845 38.3373 33.4542 38.2252 33.4762L34.2719 34.2615L33.4866 38.2149C33.4643 38.3269 33.3946 38.4238 33.2954 38.4802C33.1957 38.538 33.0755 38.5496 32.9663 38.5122L29.1509 37.2173L26.4976 40.2472L26.4978 40.2474C26.4223 40.332 26.3143 40.3806 26.2005 40.3806C26.0871 40.3806 25.979 40.332 25.9035 40.2474L23.2502 37.2175L19.4347 38.5124V38.5122C19.3258 38.5496 19.2057 38.538 19.1059 38.4802C19.0067 38.4238 18.9368 38.3269 18.9148 38.2149L18.1295 34.2615L14.1655 33.4816C14.0534 33.4594 13.9568 33.3897 13.9001 33.2905C13.8423 33.1907 13.8307 33.0706 13.8684 32.9614L15.1633 29.1459L12.1334 26.4927L12.1331 26.4929C12.0483 26.4174 12 26.3093 12 26.1956C12 26.0821 12.0483 25.9741 12.1331 25.8986L15.1631 23.2453L13.8684 19.4194C13.8307 19.3102 13.8423 19.1901 13.9001 19.0903C13.9572 18.9894 14.0565 18.9193 14.1709 18.8992L18.1191 18.1139L18.9044 14.1605H18.9041C18.9264 14.0484 18.9961 13.9518 19.0953 13.8952C19.195 13.8374 19.3152 13.8258 19.4244 13.8634L23.2398 15.1583L25.8931 12.1284L25.8929 12.1282C25.9701 12.0464 26.0776 12 26.1902 12C26.3025 12 26.41 12.0464 26.4872 12.1282L29.1405 15.1581L32.956 13.8632V13.8634C33.0649 13.8258 33.185 13.8374 33.2848 13.8952C33.384 13.9518 33.4539 14.0484 33.4759 14.1605L34.2613 18.1139L38.2146 18.8992C38.3267 18.9214 38.4236 18.9911 38.48 19.0903C38.5378 19.1901 38.5494 19.3102 38.5117 19.4194L37.2168 23.2349L40.2467 25.8881L40.247 25.8879C40.3318 25.9635 40.3803 26.0715 40.3803 26.1852C40.3803 26.2987 40.3318 26.4067 40.247 26.4823L40.2576 26.4875ZM34.5531 26.1904C34.5531 23.9737 33.6725 21.848 32.1053 20.2805C30.5377 18.7132 28.412 17.8327 26.1954 17.8327C23.9787 17.8327 21.853 18.7133 20.2855 20.2805C18.7182 21.8481 17.8377 23.9737 17.8377 26.1904C17.8377 28.4071 18.7182 30.5328 20.2855 32.1003C21.8531 33.6676 23.9787 34.5481 26.1954 34.5481C28.4111 34.5453 30.5353 33.6638 32.1022 32.0972C33.6688 30.5303 34.5503 28.4061 34.5531 26.1904Z" fill="url(#paint0_radial_34_1128)"/>
</g>
<g filter="url(#filter1_d_34_1128)">
<ellipse cx="26.1909" cy="26.1232" rx="7.59589" ry="7.57315" fill="url(#paint1_radial_34_1128)"/>
</g>
<g filter="url(#filter2_d_34_1128)">
<path d="M58.4849 27.9004L58.5518 27.909C63.2441 28.5459 66.7748 32.5764 66.7752 37.309C66.7752 42.5446 62.5064 46.8066 57.2587 46.8066H20.2332C16.0701 46.8066 12.6843 43.4259 12.6843 39.273C12.6843 35.5349 15.4858 32.3286 19.1996 31.8194C19.9779 31.7135 20.5592 31.0488 20.5592 30.2629C20.5592 30.235 20.5586 30.2055 20.5573 30.1788C20.5567 30.167 20.5559 30.1526 20.5545 30.1374C20.5712 25.9986 23.9504 22.6346 28.1033 22.6346C29.099 22.6346 30.0693 22.8273 30.9884 23.2077L30.9889 23.2079C31.3856 23.3716 31.8346 23.3672 32.2294 23.1911C32.623 23.0165 32.9278 22.6884 33.0726 22.2824L33.0726 22.2822C34.822 17.3681 39.5103 14.0649 44.7371 14.0649C51.5243 14.0649 57.0761 19.5783 57.1129 26.3504C57.1167 27.1383 57.7046 27.8003 58.4849 27.9004Z" fill="url(#paint2_linear_34_1128)" stroke="#525B82"/>
</g>
<g filter="url(#filter3_d_34_1128)">
<path d="M53.0854 30.3335L53.1326 30.3395C56.4134 30.7851 58.882 33.6036 58.8824 36.9122C58.8824 40.5727 55.8975 43.5533 52.2277 43.5533H25.7809C22.8859 43.5533 20.5317 41.2023 20.5317 38.315C20.5317 35.7165 22.48 33.4864 25.0624 33.1325C25.6888 33.0471 26.1567 32.512 26.1567 31.8792C26.1567 31.8575 26.1562 31.834 26.1551 31.8122C26.1548 31.8044 26.1542 31.7946 26.1533 31.7839C26.1683 28.9094 28.5167 26.5733 31.4025 26.5733C32.0949 26.5733 32.7695 26.7073 33.4086 26.9718L33.4091 26.972C33.7283 27.1038 34.0897 27.1003 34.4077 26.9585C34.7245 26.8179 34.9699 26.5538 35.0865 26.2269L35.0865 26.2267C36.3158 22.7737 39.6106 20.4521 43.2837 20.4521C48.0534 20.4521 51.9548 24.327 51.9807 29.0854C51.9838 29.72 52.4573 30.2528 53.0854 30.3335Z" fill="url(#paint3_linear_34_1128)" stroke="white"/>
</g>
<defs>
<filter id="filter0_d_34_1128" x="0" y="0" width="68.3804" height="68.3806" filterUnits="userSpaceOnUse" color-interpolation-filters="sRGB">
<feFlood flood-opacity="0" result="BackgroundImageFix"/>
<feColorMatrix in="SourceAlpha" type="matrix" values="0 0 0 0 0 0 0 0 0 0 0 0 0 0 0 0 0 0 127 0" result="hardAlpha"/>
<feOffset dx="8" dy="8"/>
<feGaussianBlur stdDeviation="10"/>
<feComposite in2="hardAlpha" operator="out"/>
<feColorMatrix type="matrix" values="0 0 0 0 0 0 0 0 0 0 0 0 0 0 0 0 0 0 0.6 0"/>
<feBlend mode="normal" in2="BackgroundImageFix" result="effect1_dropShadow_34_1128"/>
<feBlend mode="normal" in="SourceGraphic" in2="effect1_dropShadow_34_1128" result="shape"/>
</filter>
<filter id="filter1_d_34_1128" x="6.59497" y="6.55005" width="55.1919" height="55.1462" filterUnits="userSpaceOnUse" color-interpolation-filters="sRGB">
<feFlood flood-opacity="0" result="BackgroundImageFix"/>
<feColorMatrix in="SourceAlpha" type="matrix" values="0 0 0 0 0 0 0 0 0 0 0 0 0 0 0 0 0 0 127 0" result="hardAlpha"/>
<feOffset dx="8" dy="8"/>
<feGaussianBlur stdDeviation="10"/>
<feComposite in2="hardAlpha" operator="out"/>
<feColorMatrix type="matrix" values="0 0 0 0 0 0 0 0 0 0 0 0 0 0 0 0 0 0 0.6 0"/>
<feBlend mode="normal" in2="BackgroundImageFix" result="effect1_dropShadow_34_1128"/>
<feBlend mode="normal" in="SourceGraphic" in2="effect1_dropShadow_34_1128" result="shape"/>
</filter>
<filter id="filter2_d_34_1128" x="0.184326" y="1.56494" width="95.0908" height="73.7417" filterUnits="userSpaceOnUse" color-interpolation-filters="sRGB">
<feFlood flood-opacity="0" result="BackgroundImageFix"/>
<feColorMatrix in="SourceAlpha" type="matrix" values="0 0 0 0 0 0 0 0 0 0 0 0 0 0 0 0 0 0 127 0" result="hardAlpha"/>
<feOffset dx="8" dy="8"/>
<feGaussianBlur stdDeviation="10"/>
<feComposite in2="hardAlpha" operator="out"/>
<feColorMatrix type="matrix" values="0 0 0 0 0 0 0 0 0 0 0 0 0 0 0 0 0 0 0.6 0"/>
<feBlend mode="normal" in2="BackgroundImageFix" result="effect1_dropShadow_34_1128"/>
<feBlend mode="normal" in="SourceGraphic" in2="effect1_dropShadow_34_1128" result="shape"/>
</filter>
<filter id="filter3_d_34_1128" x="8.03174" y="7.95215" width="79.3506" height="64.1011" filterUnits="userSpaceOnUse" color-interpolation-filters="sRGB">
<feFlood flood-opacity="0" result="BackgroundImageFix"/>
<feColorMatrix in="SourceAlpha" type="matrix" values="0 0 0 0 0 0 0 0 0 0 0 0 0 0 0 0 0 0 127 0" result="hardAlpha"/>
<feOffset dx="8" dy="8"/>
<feGaussianBlur stdDeviation="10"/>
<feComposite in2="hardAlpha" operator="out"/>
<feColorMatrix type="matrix" values="0 0 0 0 0 0 0 0 0 0 0 0 0 0 0 0 0 0 0.6 0"/>
<feBlend mode="normal" in2="BackgroundImageFix" result="effect1_dropShadow_34_1128"/>
<feBlend mode="normal" in="SourceGraphic" in2="effect1_dropShadow_34_1128" result="shape"/>
</filter>
<radialGradient id="paint0_radial_34_1128" cx="0" cy="0" r="1" gradientUnits="userSpaceOnUse" gradientTransform="translate(27.4533 25.8386) rotate(-120.409) scale(14.4901 14.49)">
<stop stop-color="#F5B44B"/>
<stop offset="1" stop-color="#FCE76F"/>
</radialGradient>
<radialGradient id="paint1_radial_34_1128" cx="0" cy="0" r="1" gradientUnits="userSpaceOnUse" gradientTransform="translate(26.1909 26.1232) rotate(90) scale(7.57315 7.59589)">
<stop stop-color="#FEF083"/>
<stop offset="1" stop-color="#F6C24F"/>
</radialGradient>
<linearGradient id="paint2_linear_34_1128" x1="39.7298" y1="13.5649" x2="54.5152" y2="47.2068" gradientUnits="userSpaceOnUse">
<stop stop-color="#3D4C72"/>
<stop offset="1" stop-color="#1C243E"/>
</linearGradient>
<linearGradient id="paint3_linear_34_1128" x1="39.7071" y1="19.9521" x2="52.5922" y2="43.893" gradientUnits="userSpaceOnUse">
<stop stop-color="#E5EFFB"/>
<stop offset="1" stop-color="#8697AE"/>
</linearGradient>
</defs>
</svg>
