<svg width="96" height="74" viewBox="0 0 96 74" fill="none" xmlns="http://www.w3.org/2000/svg">
<g filter="url(#filter0_d_104_38)">
<path d="M44.2576 23.1542L44.2116 23.1483C43.5925 23.0687 43.127 22.5429 43.124 21.918C43.0988 17.2774 39.3014 13.5 34.6608 13.5C31.087 13.5 27.8805 15.7631 26.6841 19.1303L26.684 19.1305C26.5695 19.4526 26.328 19.7131 26.016 19.8518C25.7027 19.9918 25.3466 19.9952 25.0321 19.8652L25.0316 19.865C24.4103 19.6074 23.7547 19.4769 23.0816 19.4769C20.2772 19.4769 17.9935 21.7515 17.9787 24.5524C17.9795 24.5629 17.98 24.5724 17.9804 24.58C17.9815 24.6015 17.9819 24.6246 17.9819 24.646C17.9819 25.2691 17.5218 25.7973 16.9041 25.8815M44.2576 23.1542C47.448 23.5884 49.8499 26.3349 49.8502 29.5603C49.8502 33.1289 46.946 36.0331 43.3774 36.0331H17.603C14.7895 36.0331 12.5 33.7436 12.5 30.9301C12.5 28.3981 14.3946 26.2263 16.9041 25.8815M44.2576 23.1542L44.2988 23.1595L44.3846 23.1403L44.3851 23.1402L44.2758 22.6523L44.2757 22.6538L44.2119 23.1482C44.2272 23.1501 44.2424 23.1522 44.2576 23.1542ZM16.9041 25.8815L16.8366 25.386L16.9046 25.8814C16.9044 25.8814 16.9043 25.8814 16.9041 25.8815Z" fill="url(#paint0_linear_104_38)" stroke="#525B82"/>
</g>
<g filter="url(#filter1_d_104_38)">
<path d="M40.4855 24.8492L40.4532 24.8451C39.94 24.7791 39.5543 24.3433 39.5517 23.8254C39.5341 20.5893 36.8855 17.9546 33.6495 17.9546C31.1572 17.9546 28.9207 19.5331 28.0864 21.8812L28.0863 21.8814C27.9914 22.1483 27.7913 22.3642 27.5327 22.4792C27.2729 22.5953 26.9777 22.5981 26.7172 22.4903L26.7167 22.4901C26.2903 22.3133 25.8406 22.2238 25.3786 22.2238C23.456 22.2238 21.8898 23.7819 21.8765 25.7014C21.877 25.7082 21.8773 25.7142 21.8775 25.719C21.8784 25.7371 21.8788 25.756 21.8788 25.7731C21.8788 26.2894 21.4977 26.7271 20.9858 26.7971C19.2638 27.0335 17.9631 28.5245 17.9631 30.2618C17.9631 32.1926 19.5346 33.764 21.4653 33.764H39.8756C42.3456 33.764 44.3561 31.7535 44.3561 29.2834L40.4855 24.8492ZM40.4855 24.8492C42.6933 25.1499 44.3559 27.0511 44.3561 29.2834L40.4855 24.8492Z" fill="url(#paint1_linear_104_38)" stroke="white"/>
</g>
<g filter="url(#filter2_d_104_38)">
<path d="M61.9075 31.9792L61.8615 31.9733C61.2424 31.8936 60.7769 31.3678 60.7739 30.743C60.7487 26.1024 56.9513 22.325 52.3108 22.325C48.7369 22.325 45.5304 24.5881 44.334 27.9553L44.3339 27.9555C44.2194 28.2775 43.9779 28.5381 43.6659 28.6768C43.3526 28.8167 42.9965 28.8202 42.682 28.6902L42.6815 28.69C42.0602 28.4323 41.4046 28.3019 40.7315 28.3019C37.9271 28.3019 35.6434 30.5765 35.6286 33.3774C35.6294 33.3878 35.6299 33.3973 35.6303 33.4049C35.6314 33.4264 35.6318 33.4495 35.6318 33.4709C35.6318 34.0941 35.1717 34.6222 34.554 34.7064M61.9075 31.9792C65.0979 32.4133 67.4998 35.1598 67.5001 38.3853C67.5001 41.9539 64.5959 44.8581 61.0273 44.8581H35.2529C32.4394 44.8581 30.1499 42.5686 30.1499 39.755C30.1499 37.223 32.0445 35.0512 34.554 34.7064M61.9075 31.9792L61.9487 31.9845L62.0345 31.9653L62.035 31.9651L61.9257 31.4772L61.9256 31.4787L61.8618 31.9731C61.8771 31.9751 61.8923 31.9771 61.9075 31.9792ZM34.554 34.7064L34.4865 34.211L34.5545 34.7064C34.5543 34.7064 34.5542 34.7064 34.554 34.7064Z" fill="url(#paint2_linear_104_38)" stroke="#525B82"/>
</g>
<g filter="url(#filter3_d_104_38)">
<path d="M58.1354 33.6739L58.1031 33.6698C57.5899 33.6038 57.2042 33.168 57.2016 32.6501C57.184 29.414 54.5354 26.7793 51.2994 26.7793C48.8071 26.7793 46.5706 28.3578 45.7363 30.7059L45.7362 30.7061C45.6413 30.973 45.4412 31.189 45.1826 31.304C44.9228 31.42 44.6276 31.4228 44.3671 31.315L44.3666 31.3148C43.9402 31.138 43.4905 31.0485 43.0285 31.0485C41.1059 31.0485 39.5397 32.6066 39.5264 34.5261C39.5269 34.5329 39.5272 34.5389 39.5275 34.5437C39.5283 34.5618 39.5287 34.5807 39.5287 34.5979C39.5287 35.1141 39.1476 35.5518 38.6357 35.6218C36.9137 35.8582 35.613 37.3493 35.613 39.0865C35.613 41.0173 37.1845 42.5887 39.1152 42.5887H57.5255C59.9955 42.5887 62.006 40.5782 62.006 38.1082L58.1354 33.6739ZM58.1354 33.6739C60.3432 33.9746 62.0058 35.8758 62.006 38.1081L58.1354 33.6739Z" fill="url(#paint3_linear_104_38)" stroke="white"/>
</g>
<rect x="24.691" y="44.6857" width="20.9277" height="0.336187" rx="0.168094" fill="#8798AF" stroke="#FAFAFA" stroke-width="0.336187"/>
<rect x="38.3907" y="47.0389" width="20.9277" height="0.336187" rx="0.168094" fill="#8798AF" stroke="#FAFAFA" stroke-width="0.336187"/>
<rect x="46.8795" y="37.9618" width="20.9277" height="0.336187" rx="0.168094" fill="#8798AF" stroke="#FAFAFA" stroke-width="0.336187"/>
<rect x="29.818" y="34.8522" width="20.9277" height="0.336187" rx="0.168094" fill="#8798AF" stroke="#FAFAFA" stroke-width="0.336187"/>
<rect x="41.4164" y="31.7423" width="20.9277" height="0.336187" rx="0.168094" fill="#8798AF" stroke="#FAFAFA" stroke-width="0.336187"/>
<rect x="24.691" y="29.1371" width="20.9277" height="0.336187" rx="0.168094" fill="#8798AF" stroke="#FAFAFA" stroke-width="0.336187"/>
<rect x="30.7423" y="24.1781" width="20.9277" height="0.336187" rx="0.168094" fill="#8798AF" stroke="#FAFAFA" stroke-width="0.336187"/>
<rect x="14.1012" y="38.6344" width="20.9277" height="0.336187" rx="0.168094" fill="#8798AF" stroke="#FAFAFA" stroke-width="0.336187"/>
<rect x="20.0685" y="20.5641" width="20.9277" height="0.336187" rx="0.168094" fill="#8798AF" stroke="#FAFAFA" stroke-width="0.336187"/>
<defs>
<filter id="filter0_d_104_38" x="0" y="1" width="78.3501" height="63.5332" filterUnits="userSpaceOnUse" color-interpolation-filters="sRGB">
<feFlood flood-opacity="0" result="BackgroundImageFix"/>
<feColorMatrix in="SourceAlpha" type="matrix" values="0 0 0 0 0 0 0 0 0 0 0 0 0 0 0 0 0 0 127 0" result="hardAlpha"/>
<feOffset dx="8" dy="8"/>
<feGaussianBlur stdDeviation="10"/>
<feComposite in2="hardAlpha" operator="out"/>
<feColorMatrix type="matrix" values="0 0 0 0 0 0 0 0 0 0 0 0 0 0 0 0 0 0 0.6 0"/>
<feBlend mode="normal" in2="BackgroundImageFix" result="effect1_dropShadow_104_38"/>
<feBlend mode="normal" in="SourceGraphic" in2="effect1_dropShadow_104_38" result="shape"/>
</filter>
<filter id="filter1_d_104_38" x="5.46313" y="5.45459" width="67.3931" height="56.8093" filterUnits="userSpaceOnUse" color-interpolation-filters="sRGB">
<feFlood flood-opacity="0" result="BackgroundImageFix"/>
<feColorMatrix in="SourceAlpha" type="matrix" values="0 0 0 0 0 0 0 0 0 0 0 0 0 0 0 0 0 0 127 0" result="hardAlpha"/>
<feOffset dx="8" dy="8"/>
<feGaussianBlur stdDeviation="10"/>
<feComposite in2="hardAlpha" operator="out"/>
<feColorMatrix type="matrix" values="0 0 0 0 0 0 0 0 0 0 0 0 0 0 0 0 0 0 0.6 0"/>
<feBlend mode="normal" in2="BackgroundImageFix" result="effect1_dropShadow_104_38"/>
<feBlend mode="normal" in="SourceGraphic" in2="effect1_dropShadow_104_38" result="shape"/>
</filter>
<filter id="filter2_d_104_38" x="17.6499" y="9.82495" width="78.3501" height="63.5332" filterUnits="userSpaceOnUse" color-interpolation-filters="sRGB">
<feFlood flood-opacity="0" result="BackgroundImageFix"/>
<feColorMatrix in="SourceAlpha" type="matrix" values="0 0 0 0 0 0 0 0 0 0 0 0 0 0 0 0 0 0 127 0" result="hardAlpha"/>
<feOffset dx="8" dy="8"/>
<feGaussianBlur stdDeviation="10"/>
<feComposite in2="hardAlpha" operator="out"/>
<feColorMatrix type="matrix" values="0 0 0 0 0 0 0 0 0 0 0 0 0 0 0 0 0 0 0.6 0"/>
<feBlend mode="normal" in2="BackgroundImageFix" result="effect1_dropShadow_104_38"/>
<feBlend mode="normal" in="SourceGraphic" in2="effect1_dropShadow_104_38" result="shape"/>
</filter>
<filter id="filter3_d_104_38" x="23.113" y="14.2793" width="67.3931" height="56.8093" filterUnits="userSpaceOnUse" color-interpolation-filters="sRGB">
<feFlood flood-opacity="0" result="BackgroundImageFix"/>
<feColorMatrix in="SourceAlpha" type="matrix" values="0 0 0 0 0 0 0 0 0 0 0 0 0 0 0 0 0 0 127 0" result="hardAlpha"/>
<feOffset dx="8" dy="8"/>
<feGaussianBlur stdDeviation="10"/>
<feComposite in2="hardAlpha" operator="out"/>
<feColorMatrix type="matrix" values="0 0 0 0 0 0 0 0 0 0 0 0 0 0 0 0 0 0 0.6 0"/>
<feBlend mode="normal" in2="BackgroundImageFix" result="effect1_dropShadow_104_38"/>
<feBlend mode="normal" in="SourceGraphic" in2="effect1_dropShadow_104_38" result="shape"/>
</filter>
<linearGradient id="paint0_linear_104_38" x1="31.1751" y1="13" x2="41.5004" y2="36.4491" gradientUnits="userSpaceOnUse">
<stop stop-color="#3D4C72"/>
<stop offset="1" stop-color="#1C243E"/>
</linearGradient>
<linearGradient id="paint1_linear_104_38" x1="31.1596" y1="17.4546" x2="40.1558" y2="34.1379" gradientUnits="userSpaceOnUse">
<stop stop-color="#E5EFFB"/>
<stop offset="1" stop-color="#8697AE"/>
</linearGradient>
<linearGradient id="paint2_linear_104_38" x1="48.825" y1="21.825" x2="59.1503" y2="45.274" gradientUnits="userSpaceOnUse">
<stop stop-color="#3D4C72"/>
<stop offset="1" stop-color="#1C243E"/>
</linearGradient>
<linearGradient id="paint3_linear_104_38" x1="48.8095" y1="26.2793" x2="57.8057" y2="42.9626" gradientUnits="userSpaceOnUse">
<stop stop-color="#E5EFFB"/>
<stop offset="1" stop-color="#8697AE"/>
</linearGradient>
</defs>
</svg>
