<svg width="96" height="75" viewBox="0 0 96 75" fill="none" xmlns="http://www.w3.org/2000/svg">
<g filter="url(#filter0_d_34_1028)">
<path d="M58.5916 27.0672L58.6585 27.0757C63.3508 27.7126 66.8814 31.7431 66.8819 36.4758C66.8819 41.7113 62.6131 45.9733 57.3653 45.9733H20.3399C16.1768 45.9733 12.791 42.5927 12.791 38.4397C12.791 34.7016 15.5925 31.4953 19.3063 30.9862C20.0846 30.8803 20.6659 30.2156 20.6659 29.4296C20.6659 29.4018 20.6653 29.3722 20.664 29.3455C20.6634 29.3337 20.6626 29.3193 20.6612 29.3042C20.6779 25.1654 24.0571 21.8013 28.21 21.8013C29.2056 21.8013 30.176 21.9941 31.0951 22.3745L31.0956 22.3747C31.4923 22.5384 31.9413 22.5339 32.3361 22.3578C32.7297 22.1833 33.0345 21.8552 33.1792 21.4492L33.1793 21.449C34.9287 16.5349 39.617 13.2317 44.8438 13.2317C51.631 13.2317 57.1828 18.7451 57.2196 25.5172C57.2233 26.3051 57.8113 26.967 58.5916 27.0672Z" fill="url(#paint0_linear_34_1028)" stroke="#525B82"/>
</g>
<g filter="url(#filter1_d_34_1028)">
<path d="M53.1921 29.5002L53.2393 29.5063C56.5201 29.9518 58.9887 32.7704 58.9891 36.079C58.9891 39.7395 56.0042 42.7201 52.3344 42.7201H25.8876C22.9926 42.7201 20.6384 40.369 20.6384 37.4818C20.6384 34.8832 22.5867 32.6532 25.1691 32.2993C25.7955 32.2138 26.2634 31.6788 26.2634 31.046C26.2634 31.0242 26.2629 31.0007 26.2618 30.9789C26.2614 30.9711 26.2609 30.9613 26.26 30.9506C26.275 28.0761 28.6234 25.7401 31.5091 25.7401C32.2016 25.7401 32.8762 25.8741 33.5153 26.1386L33.5158 26.1388C33.835 26.2705 34.1964 26.267 34.5144 26.1252C34.8312 25.9847 35.0766 25.7205 35.1932 25.3936L35.1932 25.3934C36.4225 21.9404 39.7173 19.6189 43.3904 19.6189C48.1601 19.6189 52.0615 23.4938 52.0874 28.2521C52.0905 28.8868 52.564 29.4196 53.1921 29.5002Z" fill="url(#paint1_linear_34_1028)" stroke="white"/>
</g>
<path d="M22.6128 62.822C22.509 63.2853 22.0476 63.5774 21.5835 63.4738C21.1194 63.3703 20.8267 62.9098 20.9305 62.4466C21.0335 61.9822 22.1096 61.1216 22.1096 61.1216C22.1096 61.1216 22.7168 62.3579 22.6128 62.822L22.6128 62.822Z" fill="url(#paint2_radial_34_1028)"/>
<path d="M16.697 65.4861C16.5932 65.9493 16.1319 66.2415 15.6678 66.1379C15.2037 66.0343 14.9109 65.5738 15.0147 65.1106C15.1178 64.6463 16.1939 63.7857 16.1939 63.7857C16.1939 63.7857 16.801 65.022 16.6971 65.4861L16.697 65.4861Z" fill="url(#paint3_radial_34_1028)"/>
<path d="M20.4468 56.4545C20.6653 55.4792 19.4714 52.5322 19.4714 52.5322C19.4714 52.5322 17.1305 54.6902 16.912 55.6657C16.6935 56.6411 17.3089 57.6048 18.283 57.8222C19.2571 58.0396 20.229 57.4267 20.4468 56.4545V56.4545Z" fill="url(#paint4_radial_34_1028)"/>
<path d="M27.7163 54.3719C27.7163 54.3719 25.3786 56.5306 25.16 57.506C24.9415 58.4814 25.557 59.4452 26.531 59.6626C27.5051 59.88 28.4739 59.2664 28.6917 58.2942C28.9134 57.3195 27.7163 54.3719 27.7163 54.3719V54.3719Z" fill="url(#paint5_radial_34_1028)"/>
<path d="M27.0894 63.0169C27.0894 63.0169 25.5305 64.4564 25.3848 65.1069C25.2391 65.7574 25.6495 66.4 26.299 66.545C26.9486 66.69 27.5946 66.2808 27.7399 65.6325C27.8877 64.9826 27.0894 63.0169 27.0894 63.0169V63.0169Z" fill="url(#paint6_radial_34_1028)"/>
<path d="M56.6601 62.822C56.5563 63.2853 56.095 63.5774 55.6309 63.4738C55.1668 63.3703 54.874 62.9098 54.9778 62.4466C55.0809 61.9822 56.157 61.1216 56.157 61.1216C56.157 61.1216 56.7642 62.3579 56.6602 62.822L56.6601 62.822Z" fill="url(#paint7_radial_34_1028)"/>
<path d="M50.7439 65.4856C50.6401 65.9488 50.1787 66.241 49.7146 66.1374C49.2505 66.0338 48.9578 65.5734 49.0616 65.1101C49.1646 64.6458 50.2407 63.7852 50.2407 63.7852C50.2407 63.7852 50.8479 65.0215 50.744 65.4856L50.7439 65.4856Z" fill="url(#paint8_radial_34_1028)"/>
<path d="M54.4942 56.4545C54.7127 55.4792 53.5187 52.5322 53.5187 52.5322C53.5187 52.5322 51.1779 54.6902 50.9594 55.6657C50.7408 56.6411 51.3563 57.6048 52.3304 57.8222C53.3044 58.0396 54.2764 57.4267 54.4942 56.4545V56.4545Z" fill="url(#paint9_radial_34_1028)"/>
<path d="M61.7629 54.3719C61.7629 54.3719 59.4252 56.5306 59.2067 57.506C58.9882 58.4814 59.6036 59.4452 60.5777 59.6626C61.5517 59.88 62.5206 59.2664 62.7384 58.2942C62.96 57.3195 61.7629 54.3719 61.7629 54.3719V54.3719Z" fill="url(#paint10_radial_34_1028)"/>
<path d="M61.136 63.0169C61.136 63.0169 59.5771 64.4564 59.4314 65.1069C59.2857 65.7574 59.6961 66.4 60.3457 66.545C60.9952 66.69 61.6413 66.2808 61.7865 65.6325C61.9343 64.9826 61.136 63.0169 61.136 63.0169V63.0169Z" fill="url(#paint11_radial_34_1028)"/>
<path d="M22.8703 62.8442C22.7666 63.3075 22.3052 63.5996 21.8411 63.4961C21.377 63.3925 21.0843 62.932 21.188 62.4688C21.2911 62.0044 22.3672 61.1438 22.3672 61.1438C22.3672 61.1438 22.9744 62.3801 22.8704 62.8442L22.8703 62.8442Z" fill="url(#paint12_radial_34_1028)"/>
<path d="M16.697 65.4861C16.5932 65.9493 16.1319 66.2415 15.6678 66.1379C15.2037 66.0343 14.9109 65.5738 15.0147 65.1106C15.1178 64.6463 16.1939 63.7857 16.1939 63.7857C16.1939 63.7857 16.801 65.022 16.6971 65.4861L16.697 65.4861Z" fill="url(#paint13_radial_34_1028)"/>
<path d="M20.4468 56.4545C20.6653 55.4792 19.4714 52.5322 19.4714 52.5322C19.4714 52.5322 17.1305 54.6902 16.912 55.6657C16.6935 56.6411 17.3089 57.6048 18.283 57.8222C19.2571 58.0396 20.229 57.4267 20.4468 56.4545V56.4545Z" fill="url(#paint14_radial_34_1028)"/>
<path d="M27.9739 54.3941C27.9739 54.3941 25.6361 56.5528 25.4176 57.5282C25.1991 58.5036 25.8146 59.4674 26.7886 59.6848C27.7627 59.9022 28.7315 59.2886 28.9493 58.3164C29.1709 57.3417 27.9739 54.3941 27.9739 54.3941V54.3941Z" fill="url(#paint15_radial_34_1028)"/>
<path d="M27.0894 63.0169C27.0894 63.0169 25.5305 64.4564 25.3848 65.1069C25.2391 65.7574 25.6495 66.4 26.299 66.545C26.9486 66.69 27.5946 66.2808 27.7399 65.6325C27.8877 64.9826 27.0894 63.0169 27.0894 63.0169V63.0169Z" fill="url(#paint16_radial_34_1028)"/>
<path d="M56.6601 62.822C56.5563 63.2853 56.095 63.5774 55.6309 63.4738C55.1668 63.3703 54.874 62.9098 54.9778 62.4466C55.0809 61.9822 56.157 61.1216 56.157 61.1216C56.157 61.1216 56.7642 62.3579 56.6602 62.822L56.6601 62.822Z" fill="url(#paint17_radial_34_1028)"/>
<path d="M46.8703 63.8879C46.7666 64.3512 46.3052 64.6433 45.8411 64.5398C45.377 64.4362 45.0843 63.9757 45.188 63.5125C45.2911 63.0481 46.3672 62.1875 46.3672 62.1875C46.3672 62.1875 46.9744 63.4238 46.8704 63.8879L46.8703 63.8879Z" fill="url(#paint18_radial_34_1028)"/>
<path d="M54.4942 56.4545C54.7127 55.4792 53.5187 52.5322 53.5187 52.5322C53.5187 52.5322 51.1779 54.6902 50.9594 55.6657C50.7408 56.6411 51.3563 57.6048 52.3304 57.8222C53.3044 58.0396 54.2764 57.4267 54.4942 56.4545V56.4545Z" fill="url(#paint19_radial_34_1028)"/>
<path d="M61.7629 54.3719C61.7629 54.3719 59.4252 56.5306 59.2067 57.506C58.9882 58.4814 59.6036 59.4452 60.5777 59.6626C61.5517 59.88 62.5206 59.2664 62.7384 58.2942C62.96 57.3195 61.7629 54.3719 61.7629 54.3719V54.3719Z" fill="url(#paint20_radial_34_1028)"/>
<path d="M61.136 63.0169C61.136 63.0169 59.5771 64.4564 59.4314 65.1069C59.2857 65.7574 59.6961 66.4 60.3457 66.545C60.9952 66.69 61.6413 66.2808 61.7865 65.6325C61.9343 64.9826 61.136 63.0169 61.136 63.0169V63.0169Z" fill="url(#paint21_radial_34_1028)"/>
<path d="M41.8703 54.8879C41.7666 55.3512 41.3052 55.6433 40.8411 55.5398C40.377 55.4362 40.0843 54.9757 40.188 54.5125C40.2911 54.0481 41.3672 53.1875 41.3672 53.1875C41.3672 53.1875 41.9744 54.4238 41.8704 54.8879L41.8703 54.8879Z" fill="url(#paint22_radial_34_1028)"/>
<path d="M36.9512 58.3941C36.9512 58.3941 34.6134 60.5528 34.3949 61.5282C34.1764 62.5036 34.7919 63.4674 35.7659 63.6848C36.74 63.9022 37.7088 63.2886 37.9266 62.3164C38.1482 61.3417 36.9512 58.3941 36.9512 58.3941V58.3941Z" fill="url(#paint23_radial_34_1028)"/>
<defs>
<filter id="filter0_d_34_1028" x="0.291016" y="0.731689" width="95.0908" height="73.7417" filterUnits="userSpaceOnUse" color-interpolation-filters="sRGB">
<feFlood flood-opacity="0" result="BackgroundImageFix"/>
<feColorMatrix in="SourceAlpha" type="matrix" values="0 0 0 0 0 0 0 0 0 0 0 0 0 0 0 0 0 0 127 0" result="hardAlpha"/>
<feOffset dx="8" dy="8"/>
<feGaussianBlur stdDeviation="10"/>
<feComposite in2="hardAlpha" operator="out"/>
<feColorMatrix type="matrix" values="0 0 0 0 0 0 0 0 0 0 0 0 0 0 0 0 0 0 0.6 0"/>
<feBlend mode="normal" in2="BackgroundImageFix" result="effect1_dropShadow_34_1028"/>
<feBlend mode="normal" in="SourceGraphic" in2="effect1_dropShadow_34_1028" result="shape"/>
</filter>
<filter id="filter1_d_34_1028" x="8.13843" y="7.1189" width="79.3506" height="64.1011" filterUnits="userSpaceOnUse" color-interpolation-filters="sRGB">
<feFlood flood-opacity="0" result="BackgroundImageFix"/>
<feColorMatrix in="SourceAlpha" type="matrix" values="0 0 0 0 0 0 0 0 0 0 0 0 0 0 0 0 0 0 127 0" result="hardAlpha"/>
<feOffset dx="8" dy="8"/>
<feGaussianBlur stdDeviation="10"/>
<feComposite in2="hardAlpha" operator="out"/>
<feColorMatrix type="matrix" values="0 0 0 0 0 0 0 0 0 0 0 0 0 0 0 0 0 0 0.6 0"/>
<feBlend mode="normal" in2="BackgroundImageFix" result="effect1_dropShadow_34_1028"/>
<feBlend mode="normal" in="SourceGraphic" in2="effect1_dropShadow_34_1028" result="shape"/>
</filter>
<linearGradient id="paint0_linear_34_1028" x1="39.8365" y1="12.7317" x2="54.6219" y2="46.3735" gradientUnits="userSpaceOnUse">
<stop stop-color="#3D4C72"/>
<stop offset="1" stop-color="#1C243E"/>
</linearGradient>
<linearGradient id="paint1_linear_34_1028" x1="39.8137" y1="19.1189" x2="52.6989" y2="43.0598" gradientUnits="userSpaceOnUse">
<stop stop-color="#E5EFFB"/>
<stop offset="1" stop-color="#8697AE"/>
</linearGradient>
<radialGradient id="paint2_radial_34_1028" cx="0" cy="0" r="1" gradientUnits="userSpaceOnUse" gradientTransform="translate(21.847 62.2978) rotate(102.627) scale(1.20517 0.861889)">
<stop stop-color="#93CDFF"/>
<stop offset="1" stop-color="#1291FF" stop-opacity="0.4"/>
</radialGradient>
<radialGradient id="paint3_radial_34_1028" cx="0" cy="0" r="1" gradientUnits="userSpaceOnUse" gradientTransform="translate(15.9313 64.9619) rotate(102.627) scale(1.20517 0.861889)">
<stop stop-color="#93CDFF"/>
<stop offset="1" stop-color="#1291FF" stop-opacity="0.4"/>
</radialGradient>
<radialGradient id="paint4_radial_34_1028" cx="0" cy="0" r="1" gradientUnits="userSpaceOnUse" gradientTransform="translate(18.8772 55.1772) rotate(102.627) scale(2.71091 1.81089)">
<stop stop-color="#93CDFF"/>
<stop offset="1" stop-color="#1291FF" stop-opacity="0.4"/>
</radialGradient>
<radialGradient id="paint5_radial_34_1028" cx="0" cy="0" r="1" gradientUnits="userSpaceOnUse" gradientTransform="translate(27.1237 57.0172) rotate(102.627) scale(2.71091 1.80929)">
<stop stop-color="#93CDFF"/>
<stop offset="1" stop-color="#1291FF" stop-opacity="0.4"/>
</radialGradient>
<radialGradient id="paint6_radial_34_1028" cx="0" cy="0" r="1" gradientUnits="userSpaceOnUse" gradientTransform="translate(26.6942 64.781) rotate(102.627) scale(1.80775 1.20651)">
<stop stop-color="#93CDFF"/>
<stop offset="1" stop-color="#1291FF" stop-opacity="0.4"/>
</radialGradient>
<radialGradient id="paint7_radial_34_1028" cx="0" cy="0" r="1" gradientUnits="userSpaceOnUse" gradientTransform="translate(55.8944 62.2978) rotate(102.627) scale(1.20517 0.861889)">
<stop stop-color="#93CDFF"/>
<stop offset="1" stop-color="#1291FF" stop-opacity="0.4"/>
</radialGradient>
<radialGradient id="paint8_radial_34_1028" cx="0" cy="0" r="1" gradientUnits="userSpaceOnUse" gradientTransform="translate(49.9781 64.9614) rotate(102.627) scale(1.20517 0.861889)">
<stop stop-color="#93CDFF"/>
<stop offset="1" stop-color="#1291FF" stop-opacity="0.4"/>
</radialGradient>
<radialGradient id="paint9_radial_34_1028" cx="0" cy="0" r="1" gradientUnits="userSpaceOnUse" gradientTransform="translate(52.9246 55.1772) rotate(102.627) scale(2.71091 1.81089)">
<stop stop-color="#93CDFF"/>
<stop offset="1" stop-color="#1291FF" stop-opacity="0.4"/>
</radialGradient>
<radialGradient id="paint10_radial_34_1028" cx="0" cy="0" r="1" gradientUnits="userSpaceOnUse" gradientTransform="translate(61.1703 57.0172) rotate(102.627) scale(2.71091 1.80929)">
<stop stop-color="#93CDFF"/>
<stop offset="1" stop-color="#1291FF" stop-opacity="0.4"/>
</radialGradient>
<radialGradient id="paint11_radial_34_1028" cx="0" cy="0" r="1" gradientUnits="userSpaceOnUse" gradientTransform="translate(60.7409 64.781) rotate(102.627) scale(1.80775 1.20651)">
<stop stop-color="#93CDFF"/>
<stop offset="1" stop-color="#1291FF" stop-opacity="0.4"/>
</radialGradient>
<radialGradient id="paint12_radial_34_1028" cx="0" cy="0" r="1" gradientUnits="userSpaceOnUse" gradientTransform="translate(22.1046 62.32) rotate(102.627) scale(1.20517 0.861889)">
<stop stop-color="#93CDFF"/>
<stop offset="1" stop-color="#1291FF" stop-opacity="0.4"/>
</radialGradient>
<radialGradient id="paint13_radial_34_1028" cx="0" cy="0" r="1" gradientUnits="userSpaceOnUse" gradientTransform="translate(15.9313 64.9619) rotate(102.627) scale(1.20517 0.861889)">
<stop stop-color="#93CDFF"/>
<stop offset="1" stop-color="#1291FF" stop-opacity="0.4"/>
</radialGradient>
<radialGradient id="paint14_radial_34_1028" cx="0" cy="0" r="1" gradientUnits="userSpaceOnUse" gradientTransform="translate(18.8772 55.1772) rotate(102.627) scale(2.71091 1.81089)">
<stop stop-color="#93CDFF"/>
<stop offset="1" stop-color="#1291FF" stop-opacity="0.4"/>
</radialGradient>
<radialGradient id="paint15_radial_34_1028" cx="0" cy="0" r="1" gradientUnits="userSpaceOnUse" gradientTransform="translate(27.3812 57.0394) rotate(102.627) scale(2.71091 1.80929)">
<stop stop-color="#93CDFF"/>
<stop offset="1" stop-color="#1291FF" stop-opacity="0.4"/>
</radialGradient>
<radialGradient id="paint16_radial_34_1028" cx="0" cy="0" r="1" gradientUnits="userSpaceOnUse" gradientTransform="translate(26.6942 64.781) rotate(102.627) scale(1.80775 1.20651)">
<stop stop-color="#93CDFF"/>
<stop offset="1" stop-color="#1291FF" stop-opacity="0.4"/>
</radialGradient>
<radialGradient id="paint17_radial_34_1028" cx="0" cy="0" r="1" gradientUnits="userSpaceOnUse" gradientTransform="translate(55.8944 62.2978) rotate(102.627) scale(1.20517 0.861889)">
<stop stop-color="#93CDFF"/>
<stop offset="1" stop-color="#1291FF" stop-opacity="0.4"/>
</radialGradient>
<radialGradient id="paint18_radial_34_1028" cx="0" cy="0" r="1" gradientUnits="userSpaceOnUse" gradientTransform="translate(46.1046 63.3638) rotate(102.627) scale(1.20517 0.861889)">
<stop stop-color="#93CDFF"/>
<stop offset="1" stop-color="#1291FF" stop-opacity="0.4"/>
</radialGradient>
<radialGradient id="paint19_radial_34_1028" cx="0" cy="0" r="1" gradientUnits="userSpaceOnUse" gradientTransform="translate(52.9246 55.1772) rotate(102.627) scale(2.71091 1.81089)">
<stop stop-color="#93CDFF"/>
<stop offset="1" stop-color="#1291FF" stop-opacity="0.4"/>
</radialGradient>
<radialGradient id="paint20_radial_34_1028" cx="0" cy="0" r="1" gradientUnits="userSpaceOnUse" gradientTransform="translate(61.1703 57.0172) rotate(102.627) scale(2.71091 1.80929)">
<stop stop-color="#93CDFF"/>
<stop offset="1" stop-color="#1291FF" stop-opacity="0.4"/>
</radialGradient>
<radialGradient id="paint21_radial_34_1028" cx="0" cy="0" r="1" gradientUnits="userSpaceOnUse" gradientTransform="translate(60.7409 64.781) rotate(102.627) scale(1.80775 1.20651)">
<stop stop-color="#93CDFF"/>
<stop offset="1" stop-color="#1291FF" stop-opacity="0.4"/>
</radialGradient>
<radialGradient id="paint22_radial_34_1028" cx="0" cy="0" r="1" gradientUnits="userSpaceOnUse" gradientTransform="translate(41.1046 54.3638) rotate(102.627) scale(1.20517 0.861889)">
<stop stop-color="#93CDFF"/>
<stop offset="1" stop-color="#1291FF" stop-opacity="0.4"/>
</radialGradient>
<radialGradient id="paint23_radial_34_1028" cx="0" cy="0" r="1" gradientUnits="userSpaceOnUse" gradientTransform="translate(36.3585 61.0394) rotate(102.627) scale(2.71091 1.80929)">
<stop stop-color="#93CDFF"/>
<stop offset="1" stop-color="#1291FF" stop-opacity="0.4"/>
</radialGradient>
</defs>
</svg>
