<svg width="96" height="96" viewBox="0 0 96 96" fill="none" xmlns="http://www.w3.org/2000/svg">
<g filter="url(#filter0_d_34_1053)">
<path d="M54.9307 40.0005C54.9307 43.9578 53.3587 47.753 50.5605 50.5512C47.7624 53.3494 43.9672 54.9214 40.0098 54.9214C36.0524 54.9214 32.2572 53.3494 29.4591 50.5512C26.6609 47.753 25.0889 43.9578 25.0889 40.0005C25.0889 36.0431 26.6609 32.2479 29.4591 29.4497C32.2572 26.6516 36.0524 25.0795 40.0098 25.0795C43.9662 25.0823 47.7596 26.6553 50.5573 29.453C53.355 32.2506 54.9279 36.0439 54.9307 40.0005ZM67.7578 40.5866L61.7791 45.822L64.3342 53.3507C64.4086 53.5662 64.3852 53.8027 64.2711 54C64.1594 54.1959 63.9687 54.3333 63.7476 54.3768L55.9468 55.9263L54.3972 63.7271C54.3533 63.9482 54.2159 64.1394 54.02 64.2507C53.8232 64.3647 53.5862 64.3876 53.3707 64.3138L45.842 61.7587L40.6067 67.7373C40.4575 67.9042 40.2449 68.0005 40.0205 68.0005C39.7966 68.0005 39.5834 67.9046 39.4343 67.7378L34.1989 61.7591L26.6702 64.3142C26.4552 64.3881 26.2182 64.3647 26.0214 64.2507C25.8255 64.1394 25.6876 63.9482 25.6442 63.7271L24.0946 55.9263L16.2729 54.3875C16.0518 54.3436 15.8611 54.2062 15.7493 54.0103C15.6353 53.8135 15.6124 53.5765 15.6867 53.361L18.2418 45.8323L12.2632 40.5969C12.0958 40.4478 12 40.2351 12 40.0108C12 39.7869 12.0954 39.5737 12.2627 39.4246L18.2413 34.1892L15.6867 26.6399C15.6124 26.4244 15.6353 26.1875 15.7494 25.9907C15.862 25.7915 16.0579 25.6532 16.2836 25.6134L24.0741 24.0639L25.6237 16.2631C25.6676 16.042 25.8046 15.8512 26.0005 15.7395C26.1973 15.6255 26.4343 15.6026 26.6497 15.6769L34.1784 18.232L39.4138 12.2534C39.5662 12.0921 39.778 12 40 12C40.2216 12 40.4338 12.0916 40.5862 12.2529L45.8216 18.2315L53.3503 15.6764C53.5653 15.6021 53.8023 15.6255 53.9991 15.7395C54.1949 15.8512 54.3328 16.042 54.3763 16.2631L55.9259 24.0639L63.7267 25.6134C63.9478 25.6574 64.1389 25.7948 64.2502 25.9907C64.3643 26.1874 64.3872 26.4244 64.3128 26.6399L61.7577 34.1686L67.7364 39.404C67.9037 39.5531 68 39.7658 68 39.9902C68 40.2141 67.9042 40.4272 67.7368 40.5764L67.7578 40.5866ZM56.5017 40.0005C56.5017 35.6265 54.7642 31.4321 51.6716 28.3391C48.5785 25.2465 44.3842 23.509 40.0103 23.509C35.6364 23.509 31.4419 25.2466 28.3489 28.3391C25.2563 31.4322 23.5188 35.6265 23.5188 40.0005C23.5188 44.3744 25.2564 48.5688 28.3489 51.6618C31.4421 54.7545 35.6364 56.4919 40.0103 56.4919C44.3823 56.4863 48.5738 54.7469 51.6655 51.6557C54.7568 48.564 56.4961 44.3725 56.5017 40.0005Z" fill="url(#paint0_radial_34_1053)"/>
<path d="M54.99 39.8673C54.99 48.1203 48.2795 54.8107 40.0018 54.8107C31.724 54.8107 25.0136 48.1203 25.0136 39.8673C25.0136 31.6144 31.724 24.924 40.0018 24.924C48.2795 24.924 54.99 31.6144 54.99 39.8673Z" fill="url(#paint1_radial_34_1053)"/>
</g>
<defs>
<filter id="filter0_d_34_1053" x="0" y="0" width="96" height="96.0005" filterUnits="userSpaceOnUse" color-interpolation-filters="sRGB">
<feFlood flood-opacity="0" result="BackgroundImageFix"/>
<feColorMatrix in="SourceAlpha" type="matrix" values="0 0 0 0 0 0 0 0 0 0 0 0 0 0 0 0 0 0 127 0" result="hardAlpha"/>
<feOffset dx="8" dy="8"/>
<feGaussianBlur stdDeviation="10"/>
<feComposite in2="hardAlpha" operator="out"/>
<feColorMatrix type="matrix" values="0 0 0 0 0 0 0 0 0 0 0 0 0 0 0 0 0 0 0.6 0"/>
<feBlend mode="normal" in2="BackgroundImageFix" result="effect1_dropShadow_34_1053"/>
<feBlend mode="normal" in="SourceGraphic" in2="effect1_dropShadow_34_1053" result="shape"/>
</filter>
<radialGradient id="paint0_radial_34_1053" cx="0" cy="0" r="1" gradientUnits="userSpaceOnUse" gradientTransform="translate(42.4925 39.3063) rotate(-120.409) scale(28.5919 28.5916)">
<stop stop-color="#F5B44B"/>
<stop offset="1" stop-color="#FCE76F"/>
</radialGradient>
<radialGradient id="paint1_radial_34_1053" cx="0" cy="0" r="1" gradientUnits="userSpaceOnUse" gradientTransform="translate(40.0017 39.8673) rotate(90) scale(14.9433 14.9882)">
<stop stop-color="#FEF083"/>
<stop offset="1" stop-color="#F6C24F"/>
</radialGradient>
</defs>
</svg>
