<svg width="96" height="75" viewBox="0 0 96 75" fill="none" xmlns="http://www.w3.org/2000/svg">
<g filter="url(#filter0_d_34_1032)">
<path d="M58.4849 26.9004L58.5518 26.909C63.2441 27.5459 66.7748 31.5764 66.7752 36.309C66.7752 41.5446 62.5064 45.8066 57.2587 45.8066H20.2332C16.0701 45.8066 12.6843 42.4259 12.6843 38.273C12.6843 34.5349 15.4858 31.3286 19.1996 30.8194C19.9779 30.7135 20.5592 30.0488 20.5592 29.2629C20.5592 29.235 20.5586 29.2055 20.5573 29.1788C20.5567 29.167 20.5559 29.1526 20.5545 29.1374C20.5712 24.9986 23.9504 21.6346 28.1033 21.6346C29.099 21.6346 30.0693 21.8273 30.9884 22.2077L30.9889 22.2079C31.3856 22.3716 31.8346 22.3672 32.2294 22.1911C32.623 22.0165 32.9278 21.6884 33.0726 21.2824L33.0726 21.2822C34.822 16.3681 39.5103 13.0649 44.7371 13.0649C51.5243 13.0649 57.0761 18.5783 57.1129 25.3504C57.1167 26.1383 57.7046 26.8003 58.4849 26.9004Z" fill="url(#paint0_linear_34_1032)" stroke="#525B82"/>
</g>
<g filter="url(#filter1_d_34_1032)">
<path d="M53.0854 29.3335L53.1326 29.3395C56.4134 29.7851 58.882 32.6036 58.8824 35.9122C58.8824 39.5727 55.8975 42.5533 52.2277 42.5533H25.7809C22.8859 42.5533 20.5317 40.2023 20.5317 37.315C20.5317 34.7165 22.48 32.4864 25.0624 32.1325C25.6888 32.0471 26.1567 31.512 26.1567 30.8792C26.1567 30.8575 26.1562 30.834 26.1551 30.8122C26.1548 30.8044 26.1542 30.7946 26.1533 30.7839C26.1683 27.9094 28.5167 25.5733 31.4025 25.5733C32.0949 25.5733 32.7695 25.7073 33.4086 25.9718L33.4091 25.972C33.7283 26.1038 34.0897 26.1003 34.4077 25.9585C34.7245 25.8179 34.9699 25.5538 35.0865 25.2269L35.0865 25.2267C36.3158 21.7737 39.6106 19.4521 43.2837 19.4521C48.0534 19.4521 51.9548 23.327 51.9807 28.0854C51.9838 28.72 52.4573 29.2528 53.0854 29.3335Z" fill="url(#paint1_linear_34_1032)" stroke="white"/>
</g>
<path d="M33.4337 56.9854L39.091 46.8066H44.4064L39.2778 53.894L38.7039 54.6871H39.6829H45.933L37.1355 64.3178L40.1724 57.6937L40.4972 56.9854H39.7179H33.4337Z" fill="url(#paint2_linear_34_1032)" stroke="#FEBA0A"/>
<path d="M22.5061 62.6553C22.4023 63.1185 21.9409 63.4107 21.4768 63.3071C21.0127 63.2035 20.72 62.743 20.8238 62.2798C20.9268 61.8155 22.0029 60.9549 22.0029 60.9549C22.0029 60.9549 22.6101 62.1912 22.5062 62.6553L22.5061 62.6553Z" fill="url(#paint3_radial_34_1032)"/>
<path d="M16.5903 65.3193C16.4865 65.7826 16.0252 66.0747 15.5611 65.9712C15.097 65.8676 14.8042 65.4071 14.908 64.9439C15.0111 64.4795 16.0872 63.6189 16.0872 63.6189C16.0872 63.6189 16.6944 64.8552 16.5904 65.3193L16.5903 65.3193Z" fill="url(#paint4_radial_34_1032)"/>
<path d="M20.3401 56.2878C20.5586 55.3124 19.3647 52.3655 19.3647 52.3655C19.3647 52.3655 17.0238 54.5235 16.8053 55.4989C16.5868 56.4743 17.2023 57.4381 18.1763 57.6555C19.1504 57.8729 20.1223 57.26 20.3401 56.2878V56.2878Z" fill="url(#paint5_radial_34_1032)"/>
<path d="M27.6096 54.2051C27.6096 54.2051 25.2719 56.3638 25.0534 57.3392C24.8348 58.3147 25.4503 59.2784 26.4244 59.4958C27.3984 59.7132 28.3672 59.0996 28.585 58.1274C28.8067 57.1528 27.6096 54.2051 27.6096 54.2051V54.2051Z" fill="url(#paint6_radial_34_1032)"/>
<path d="M26.9827 62.8502C26.9827 62.8502 25.4238 64.2897 25.2781 64.9402C25.1324 65.5906 25.5428 66.2333 26.1924 66.3783C26.8419 66.5232 27.488 66.1141 27.6332 65.4657C27.781 64.8158 26.9827 62.8502 26.9827 62.8502V62.8502Z" fill="url(#paint7_radial_34_1032)"/>
<path d="M56.5534 62.6553C56.4497 63.1185 55.9883 63.4107 55.5242 63.3071C55.0601 63.2035 54.7674 62.743 54.8711 62.2798C54.9742 61.8155 56.0503 60.9549 56.0503 60.9549C56.0503 60.9549 56.6575 62.1912 56.5535 62.6553L56.5534 62.6553Z" fill="url(#paint8_radial_34_1032)"/>
<path d="M50.6372 65.3188C50.5334 65.7821 50.072 66.0742 49.6079 65.9707C49.1438 65.8671 48.8511 65.4066 48.9549 64.9434C49.058 64.479 50.134 63.6184 50.134 63.6184C50.134 63.6184 50.7412 64.8548 50.6373 65.3189L50.6372 65.3188Z" fill="url(#paint9_radial_34_1032)"/>
<path d="M54.3875 56.2878C54.606 55.3124 53.412 52.3655 53.412 52.3655C53.412 52.3655 51.0712 54.5235 50.8527 55.4989C50.6342 56.4743 51.2496 57.4381 52.2237 57.6555C53.1977 57.8729 54.1697 57.26 54.3875 56.2878V56.2878Z" fill="url(#paint10_radial_34_1032)"/>
<path d="M61.6562 54.2051C61.6562 54.2051 59.3185 56.3638 59.1 57.3392C58.8815 58.3147 59.4969 59.2784 60.471 59.4958C61.4451 59.7132 62.4139 59.0996 62.6317 58.1274C62.8533 57.1528 61.6562 54.2051 61.6562 54.2051V54.2051Z" fill="url(#paint11_radial_34_1032)"/>
<path d="M61.0293 62.8502C61.0293 62.8502 59.4705 64.2897 59.3247 64.9402C59.179 65.5906 59.5894 66.2333 60.239 66.3783C60.8885 66.5232 61.5346 66.1141 61.6798 65.4657C61.8276 64.8158 61.0293 62.8502 61.0293 62.8502V62.8502Z" fill="url(#paint12_radial_34_1032)"/>
<path d="M22.5061 62.6553C22.4023 63.1185 21.9409 63.4107 21.4768 63.3071C21.0127 63.2035 20.72 62.743 20.8238 62.2798C20.9268 61.8155 22.0029 60.9549 22.0029 60.9549C22.0029 60.9549 22.6101 62.1912 22.5062 62.6553L22.5061 62.6553Z" fill="url(#paint13_radial_34_1032)"/>
<path d="M16.5903 65.3193C16.4865 65.7826 16.0252 66.0747 15.5611 65.9712C15.097 65.8676 14.8042 65.4071 14.908 64.9439C15.0111 64.4795 16.0872 63.6189 16.0872 63.6189C16.0872 63.6189 16.6944 64.8552 16.5904 65.3193L16.5903 65.3193Z" fill="url(#paint14_radial_34_1032)"/>
<path d="M20.3401 56.2878C20.5586 55.3124 19.3647 52.3655 19.3647 52.3655C19.3647 52.3655 17.0238 54.5235 16.8053 55.4989C16.5868 56.4743 17.2023 57.4381 18.1763 57.6555C19.1504 57.8729 20.1223 57.26 20.3401 56.2878V56.2878Z" fill="url(#paint15_radial_34_1032)"/>
<path d="M27.6096 54.2051C27.6096 54.2051 25.2719 56.3638 25.0534 57.3392C24.8348 58.3147 25.4503 59.2784 26.4244 59.4958C27.3984 59.7132 28.3672 59.0996 28.585 58.1274C28.8067 57.1528 27.6096 54.2051 27.6096 54.2051V54.2051Z" fill="url(#paint16_radial_34_1032)"/>
<path d="M26.9827 62.8502C26.9827 62.8502 25.4238 64.2897 25.2781 64.9402C25.1324 65.5906 25.5428 66.2333 26.1924 66.3783C26.8419 66.5232 27.488 66.1141 27.6332 65.4657C27.781 64.8158 26.9827 62.8502 26.9827 62.8502V62.8502Z" fill="url(#paint17_radial_34_1032)"/>
<path d="M56.5534 62.6553C56.4497 63.1185 55.9883 63.4107 55.5242 63.3071C55.0601 63.2035 54.7674 62.743 54.8711 62.2798C54.9742 61.8155 56.0503 60.9549 56.0503 60.9549C56.0503 60.9549 56.6575 62.1912 56.5535 62.6553L56.5534 62.6553Z" fill="url(#paint18_radial_34_1032)"/>
<path d="M50.6372 65.3188C50.5334 65.7821 50.072 66.0742 49.6079 65.9707C49.1438 65.8671 48.8511 65.4066 48.9549 64.9434C49.058 64.479 50.134 63.6184 50.134 63.6184C50.134 63.6184 50.7412 64.8548 50.6373 65.3189L50.6372 65.3188Z" fill="url(#paint19_radial_34_1032)"/>
<path d="M54.3875 56.2878C54.606 55.3124 53.412 52.3655 53.412 52.3655C53.412 52.3655 51.0712 54.5235 50.8527 55.4989C50.6342 56.4743 51.2496 57.4381 52.2237 57.6555C53.1977 57.8729 54.1697 57.26 54.3875 56.2878V56.2878Z" fill="url(#paint20_radial_34_1032)"/>
<path d="M61.6562 54.2051C61.6562 54.2051 59.3185 56.3638 59.1 57.3392C58.8815 58.3147 59.4969 59.2784 60.471 59.4958C61.4451 59.7132 62.4139 59.0996 62.6317 58.1274C62.8533 57.1528 61.6562 54.2051 61.6562 54.2051V54.2051Z" fill="url(#paint21_radial_34_1032)"/>
<path d="M61.0293 62.8502C61.0293 62.8502 59.4705 64.2897 59.3247 64.9402C59.179 65.5906 59.5894 66.2333 60.239 66.3783C60.8885 66.5232 61.5346 66.1141 61.6798 65.4657C61.8276 64.8158 61.0293 62.8502 61.0293 62.8502V62.8502Z" fill="url(#paint22_radial_34_1032)"/>
<defs>
<filter id="filter0_d_34_1032" x="0.184326" y="0.564941" width="95.0908" height="73.7417" filterUnits="userSpaceOnUse" color-interpolation-filters="sRGB">
<feFlood flood-opacity="0" result="BackgroundImageFix"/>
<feColorMatrix in="SourceAlpha" type="matrix" values="0 0 0 0 0 0 0 0 0 0 0 0 0 0 0 0 0 0 127 0" result="hardAlpha"/>
<feOffset dx="8" dy="8"/>
<feGaussianBlur stdDeviation="10"/>
<feComposite in2="hardAlpha" operator="out"/>
<feColorMatrix type="matrix" values="0 0 0 0 0 0 0 0 0 0 0 0 0 0 0 0 0 0 0.6 0"/>
<feBlend mode="normal" in2="BackgroundImageFix" result="effect1_dropShadow_34_1032"/>
<feBlend mode="normal" in="SourceGraphic" in2="effect1_dropShadow_34_1032" result="shape"/>
</filter>
<filter id="filter1_d_34_1032" x="8.03174" y="6.95215" width="79.3506" height="64.1011" filterUnits="userSpaceOnUse" color-interpolation-filters="sRGB">
<feFlood flood-opacity="0" result="BackgroundImageFix"/>
<feColorMatrix in="SourceAlpha" type="matrix" values="0 0 0 0 0 0 0 0 0 0 0 0 0 0 0 0 0 0 127 0" result="hardAlpha"/>
<feOffset dx="8" dy="8"/>
<feGaussianBlur stdDeviation="10"/>
<feComposite in2="hardAlpha" operator="out"/>
<feColorMatrix type="matrix" values="0 0 0 0 0 0 0 0 0 0 0 0 0 0 0 0 0 0 0.6 0"/>
<feBlend mode="normal" in2="BackgroundImageFix" result="effect1_dropShadow_34_1032"/>
<feBlend mode="normal" in="SourceGraphic" in2="effect1_dropShadow_34_1032" result="shape"/>
</filter>
<linearGradient id="paint0_linear_34_1032" x1="39.7298" y1="12.5649" x2="54.5152" y2="46.2068" gradientUnits="userSpaceOnUse">
<stop stop-color="#3D4C72"/>
<stop offset="1" stop-color="#1C243E"/>
</linearGradient>
<linearGradient id="paint1_linear_34_1032" x1="39.7071" y1="18.9521" x2="52.5922" y2="42.893" gradientUnits="userSpaceOnUse">
<stop stop-color="#E5EFFB"/>
<stop offset="1" stop-color="#8697AE"/>
</linearGradient>
<linearGradient id="paint2_linear_34_1032" x1="39.7232" y1="46.3066" x2="39.7232" y2="65.5876" gradientUnits="userSpaceOnUse">
<stop stop-color="#9B8C00"/>
<stop offset="1" stop-color="#FFF6A8"/>
</linearGradient>
<radialGradient id="paint3_radial_34_1032" cx="0" cy="0" r="1" gradientUnits="userSpaceOnUse" gradientTransform="translate(21.7403 62.1311) rotate(102.627) scale(1.20517 0.861889)">
<stop stop-color="#93CDFF"/>
<stop offset="1" stop-color="#1291FF" stop-opacity="0.4"/>
</radialGradient>
<radialGradient id="paint4_radial_34_1032" cx="0" cy="0" r="1" gradientUnits="userSpaceOnUse" gradientTransform="translate(15.8246 64.7951) rotate(102.627) scale(1.20517 0.861889)">
<stop stop-color="#93CDFF"/>
<stop offset="1" stop-color="#1291FF" stop-opacity="0.4"/>
</radialGradient>
<radialGradient id="paint5_radial_34_1032" cx="0" cy="0" r="1" gradientUnits="userSpaceOnUse" gradientTransform="translate(18.7705 55.0105) rotate(102.627) scale(2.71091 1.81089)">
<stop stop-color="#93CDFF"/>
<stop offset="1" stop-color="#1291FF" stop-opacity="0.4"/>
</radialGradient>
<radialGradient id="paint6_radial_34_1032" cx="0" cy="0" r="1" gradientUnits="userSpaceOnUse" gradientTransform="translate(27.017 56.8505) rotate(102.627) scale(2.71091 1.80929)">
<stop stop-color="#93CDFF"/>
<stop offset="1" stop-color="#1291FF" stop-opacity="0.4"/>
</radialGradient>
<radialGradient id="paint7_radial_34_1032" cx="0" cy="0" r="1" gradientUnits="userSpaceOnUse" gradientTransform="translate(26.5875 64.6142) rotate(102.627) scale(1.80775 1.20651)">
<stop stop-color="#93CDFF"/>
<stop offset="1" stop-color="#1291FF" stop-opacity="0.4"/>
</radialGradient>
<radialGradient id="paint8_radial_34_1032" cx="0" cy="0" r="1" gradientUnits="userSpaceOnUse" gradientTransform="translate(55.7877 62.1311) rotate(102.627) scale(1.20517 0.861889)">
<stop stop-color="#93CDFF"/>
<stop offset="1" stop-color="#1291FF" stop-opacity="0.4"/>
</radialGradient>
<radialGradient id="paint9_radial_34_1032" cx="0" cy="0" r="1" gradientUnits="userSpaceOnUse" gradientTransform="translate(49.8714 64.7947) rotate(102.627) scale(1.20517 0.861889)">
<stop stop-color="#93CDFF"/>
<stop offset="1" stop-color="#1291FF" stop-opacity="0.4"/>
</radialGradient>
<radialGradient id="paint10_radial_34_1032" cx="0" cy="0" r="1" gradientUnits="userSpaceOnUse" gradientTransform="translate(52.8179 55.0105) rotate(102.627) scale(2.71091 1.81089)">
<stop stop-color="#93CDFF"/>
<stop offset="1" stop-color="#1291FF" stop-opacity="0.4"/>
</radialGradient>
<radialGradient id="paint11_radial_34_1032" cx="0" cy="0" r="1" gradientUnits="userSpaceOnUse" gradientTransform="translate(61.0636 56.8505) rotate(102.627) scale(2.71091 1.80929)">
<stop stop-color="#93CDFF"/>
<stop offset="1" stop-color="#1291FF" stop-opacity="0.4"/>
</radialGradient>
<radialGradient id="paint12_radial_34_1032" cx="0" cy="0" r="1" gradientUnits="userSpaceOnUse" gradientTransform="translate(60.6342 64.6142) rotate(102.627) scale(1.80775 1.20651)">
<stop stop-color="#93CDFF"/>
<stop offset="1" stop-color="#1291FF" stop-opacity="0.4"/>
</radialGradient>
<radialGradient id="paint13_radial_34_1032" cx="0" cy="0" r="1" gradientUnits="userSpaceOnUse" gradientTransform="translate(21.7403 62.1311) rotate(102.627) scale(1.20517 0.861889)">
<stop stop-color="#93CDFF"/>
<stop offset="1" stop-color="#1291FF" stop-opacity="0.4"/>
</radialGradient>
<radialGradient id="paint14_radial_34_1032" cx="0" cy="0" r="1" gradientUnits="userSpaceOnUse" gradientTransform="translate(15.8246 64.7951) rotate(102.627) scale(1.20517 0.861889)">
<stop stop-color="#93CDFF"/>
<stop offset="1" stop-color="#1291FF" stop-opacity="0.4"/>
</radialGradient>
<radialGradient id="paint15_radial_34_1032" cx="0" cy="0" r="1" gradientUnits="userSpaceOnUse" gradientTransform="translate(18.7705 55.0105) rotate(102.627) scale(2.71091 1.81089)">
<stop stop-color="#93CDFF"/>
<stop offset="1" stop-color="#1291FF" stop-opacity="0.4"/>
</radialGradient>
<radialGradient id="paint16_radial_34_1032" cx="0" cy="0" r="1" gradientUnits="userSpaceOnUse" gradientTransform="translate(27.017 56.8505) rotate(102.627) scale(2.71091 1.80929)">
<stop stop-color="#93CDFF"/>
<stop offset="1" stop-color="#1291FF" stop-opacity="0.4"/>
</radialGradient>
<radialGradient id="paint17_radial_34_1032" cx="0" cy="0" r="1" gradientUnits="userSpaceOnUse" gradientTransform="translate(26.5875 64.6142) rotate(102.627) scale(1.80775 1.20651)">
<stop stop-color="#93CDFF"/>
<stop offset="1" stop-color="#1291FF" stop-opacity="0.4"/>
</radialGradient>
<radialGradient id="paint18_radial_34_1032" cx="0" cy="0" r="1" gradientUnits="userSpaceOnUse" gradientTransform="translate(55.7877 62.1311) rotate(102.627) scale(1.20517 0.861889)">
<stop stop-color="#93CDFF"/>
<stop offset="1" stop-color="#1291FF" stop-opacity="0.4"/>
</radialGradient>
<radialGradient id="paint19_radial_34_1032" cx="0" cy="0" r="1" gradientUnits="userSpaceOnUse" gradientTransform="translate(49.8714 64.7947) rotate(102.627) scale(1.20517 0.861889)">
<stop stop-color="#93CDFF"/>
<stop offset="1" stop-color="#1291FF" stop-opacity="0.4"/>
</radialGradient>
<radialGradient id="paint20_radial_34_1032" cx="0" cy="0" r="1" gradientUnits="userSpaceOnUse" gradientTransform="translate(52.8179 55.0105) rotate(102.627) scale(2.71091 1.81089)">
<stop stop-color="#93CDFF"/>
<stop offset="1" stop-color="#1291FF" stop-opacity="0.4"/>
</radialGradient>
<radialGradient id="paint21_radial_34_1032" cx="0" cy="0" r="1" gradientUnits="userSpaceOnUse" gradientTransform="translate(61.0636 56.8505) rotate(102.627) scale(2.71091 1.80929)">
<stop stop-color="#93CDFF"/>
<stop offset="1" stop-color="#1291FF" stop-opacity="0.4"/>
</radialGradient>
<radialGradient id="paint22_radial_34_1032" cx="0" cy="0" r="1" gradientUnits="userSpaceOnUse" gradientTransform="translate(60.6342 64.6142) rotate(102.627) scale(1.80775 1.20651)">
<stop stop-color="#93CDFF"/>
<stop offset="1" stop-color="#1291FF" stop-opacity="0.4"/>
</radialGradient>
</defs>
</svg>
