<svg width="158" height="134" viewBox="0 0 158 134" fill="none" xmlns="http://www.w3.org/2000/svg">
<g filter="url(#filter0_d_46_18)">
<path d="M110.925 42.4865L110.838 42.4753C109.459 42.2982 108.42 41.1281 108.414 39.7367C108.334 25.0377 96.2861 13.0745 81.5569 13.0745C70.2142 13.0745 60.0404 20.2418 56.2435 30.9075L56.2434 30.9077C55.9877 31.6251 55.449 32.2049 54.7531 32.5134L110.925 42.4865ZM110.925 42.4865L110.926 42.4863M110.925 42.4865L110.926 42.4863M110.926 42.4863C121.203 43.8517 128.943 52.6663 128.944 63.0236C128.944 74.4591 119.621 83.7654 108.161 83.7654H29.4933C20.3384 83.7654 12.8918 76.3318 12.8918 67.1964C12.8918 58.9718 19.053 51.9222 27.2214 50.8026C28.5968 50.6155 29.6237 49.4409 29.6237 48.0526C29.6237 48.0008 29.6225 47.9473 29.6203 47.9013C29.6192 47.8787 29.6176 47.854 29.6153 47.8303L29.6152 47.8287C29.6149 47.8256 29.6144 47.8203 29.6136 47.8131C29.6343 38.6955 37.0727 31.2824 46.215 31.2824C48.4041 31.2824 50.539 31.7064 52.56 32.5429L52.5605 32.5431C53.2619 32.8326 54.0555 32.8244 54.7524 32.5137L110.926 42.4863Z" fill="url(#paint0_linear_46_18)" stroke="#525B82"/>
</g>
<g filter="url(#filter1_d_46_18)">
<path d="M99.366 47.6447L99.453 47.6559L99.4533 47.6558C106.71 48.6327 112.173 54.8626 112.174 62.1804C112.174 70.2694 105.579 76.8531 97.472 76.8531H41.2805C34.82 76.8531 29.5652 71.6071 29.5652 65.1609C29.5652 59.3579 33.9129 54.3827 39.677 53.5926C40.7301 53.4493 41.5165 52.55 41.5165 51.4868C41.5165 51.4479 41.5156 51.4073 41.5139 51.3718C41.5131 51.3543 41.5118 51.3342 41.5099 51.3142L41.5098 51.313C41.5096 51.3119 41.5095 51.3102 41.5093 51.3081C41.5283 44.8781 46.7755 39.651 53.2246 39.651C54.7695 39.651 56.2759 39.9501 57.7021 40.5404L57.7026 40.5406C58.2396 40.7622 58.8474 40.7561 59.3813 40.5179C59.914 40.2816 60.3265 39.8377 60.5223 39.2884L60.5224 39.2882C63.2141 31.7269 70.4271 26.6453 78.4688 26.6453C88.9113 26.6453 97.4529 35.1272 97.5096 45.5476C97.5146 46.6133 98.3099 47.5091 99.366 47.6447Z" fill="url(#paint1_linear_46_18)" stroke="white"/>
</g>
<path d="M56.9707 107.517C56.8904 107.505 56.821 107.455 56.7843 107.383L56.3404 107.61L56.7844 107.383C56.745 107.306 56.7485 107.215 56.793 107.141L56.7979 107.133L56.8025 107.125L69.1742 84.8655L69.1744 84.8655L69.1797 84.8553C69.2079 84.8018 69.2624 84.7676 69.3229 84.7654H81.4988C81.5847 84.7788 81.6582 84.835 81.6934 84.9149C81.7304 84.9997 81.7184 85.0978 81.6621 85.1711L81.662 85.1709L81.6538 85.1823L70.4132 100.716L69.8393 101.509H70.8183H84.8345C84.925 101.524 85.0017 101.586 85.0346 101.673L85.5024 101.497M56.9707 107.517C56.9762 107.518 56.9817 107.518 56.9872 107.519L56.9452 108.016L56.9451 108.017L56.9451 108.017L56.9452 108.017H70.3426L70.4382 107.808L70.8927 108.017V108.517H70.6634L63.4989 124.144C63.1521 124.9 64.0387 125.605 64.5846 125.008L85.3434 102.283C85.5425 102.073 85.6042 101.768 85.5024 101.497M56.9707 107.517H70.8927H71.672L71.3472 108.225L63.9534 124.352C63.8837 124.504 63.9365 124.627 64.0183 124.692C64.0599 124.725 64.096 124.732 64.1162 124.732C64.128 124.731 64.1627 124.728 64.2154 124.67L84.9742 101.946L84.9801 101.94L84.9802 101.94C85.0482 101.868 85.0688 101.764 85.0344 101.673L85.5024 101.497M56.9707 107.517L68.7372 84.6226C68.8508 84.4067 69.0728 84.2698 69.3168 84.2654H81.5273C81.8015 84.2901 82.0404 84.4619 82.1511 84.7137C82.2615 84.9655 82.2262 85.2573 82.0588 85.4754L71.1801 100.509H70.8183V101.009L71.2233 101.302L71.4354 101.009H84.8643C85.1528 101.036 85.4003 101.226 85.5024 101.497" fill="url(#paint2_linear_46_18)" stroke="#FEBA0A"/>
<path d="M34.3223 119.002C34.1018 119.986 33.1215 120.607 32.1354 120.387C31.1494 120.167 30.5274 119.188 30.7479 118.204C30.9669 117.217 33.2532 115.389 33.2532 115.389C33.2532 115.389 34.5433 118.016 34.3224 119.002L34.3223 119.002Z" fill="url(#paint3_radial_46_18)"/>
<path d="M21.7532 131.036C21.5327 132.02 20.5524 132.641 19.5664 132.421C18.5803 132.201 17.9583 131.223 18.1788 130.238C18.3978 129.252 20.6841 127.423 20.6841 127.423C20.6841 127.423 21.9743 130.05 21.7533 131.036L21.7532 131.036Z" fill="url(#paint4_radial_46_18)"/>
<path d="M29.7203 105.473C30.1845 103.4 27.6477 97.1389 27.6477 97.1389C27.6477 97.1389 22.6741 101.724 22.2098 103.796C21.7455 105.869 23.0532 107.917 25.1228 108.379C27.1924 108.84 29.2575 107.538 29.7203 105.473V105.473Z" fill="url(#paint5_radial_46_18)"/>
<path d="M45.1657 101.047C45.1657 101.047 40.1987 105.634 39.7345 107.706C39.2702 109.779 40.5778 111.827 42.6474 112.288C44.717 112.75 46.7755 111.447 47.2383 109.381C47.7092 107.31 45.1657 101.047 45.1657 101.047V101.047Z" fill="url(#paint6_radial_46_18)"/>
<path d="M43.834 125.79C43.834 125.79 40.5218 128.848 40.2122 130.23C39.9026 131.612 40.7746 132.978 42.1547 133.286C43.5348 133.594 44.9074 132.725 45.216 131.347C45.53 129.966 43.834 125.79 43.834 125.79V125.79Z" fill="url(#paint7_radial_46_18)"/>
<path d="M106.663 119.002C106.442 119.986 105.462 120.607 104.476 120.387C103.49 120.167 102.868 119.188 103.088 118.204C103.307 117.217 105.594 115.389 105.594 115.389C105.594 115.389 106.884 118.016 106.663 119.002L106.663 119.002Z" fill="url(#paint8_radial_46_18)"/>
<path d="M94.0925 131.035C93.872 132.019 92.8918 132.64 91.9057 132.42C90.9196 132.2 90.2976 131.221 90.5181 130.237C90.7371 129.25 93.0235 127.422 93.0235 127.422C93.0235 127.422 94.3136 130.049 94.0927 131.035L94.0925 131.035Z" fill="url(#paint9_radial_46_18)"/>
<path d="M102.061 105.473C102.525 103.4 99.9883 97.1389 99.9883 97.1389C99.9883 97.1389 95.0147 101.724 94.5504 103.796C94.0861 105.869 95.3938 107.917 97.4634 108.379C99.533 108.84 101.598 107.538 102.061 105.473V105.473Z" fill="url(#paint10_radial_46_18)"/>
<path d="M117.505 101.047C117.505 101.047 112.538 105.634 112.074 107.706C111.609 109.779 112.917 111.827 114.987 112.288C117.056 112.75 119.115 111.447 119.577 109.381C120.048 107.31 117.505 101.047 117.505 101.047V101.047Z" fill="url(#paint11_radial_46_18)"/>
<path d="M116.173 125.79C116.173 125.79 112.861 128.848 112.551 130.23C112.242 131.612 113.114 132.978 114.494 133.286C115.874 133.594 117.247 132.725 117.555 131.347C117.869 129.966 116.173 125.79 116.173 125.79V125.79Z" fill="url(#paint12_radial_46_18)"/>
<defs>
<filter id="filter0_d_46_18" x="0.391846" y="0.574463" width="157.052" height="111.691" filterUnits="userSpaceOnUse" color-interpolation-filters="sRGB">
<feFlood flood-opacity="0" result="BackgroundImageFix"/>
<feColorMatrix in="SourceAlpha" type="matrix" values="0 0 0 0 0 0 0 0 0 0 0 0 0 0 0 0 0 0 127 0" result="hardAlpha"/>
<feOffset dx="8" dy="8"/>
<feGaussianBlur stdDeviation="10"/>
<feComposite in2="hardAlpha" operator="out"/>
<feColorMatrix type="matrix" values="0 0 0 0 0 0 0 0 0 0 0 0 0 0 0 0 0 0 0.6 0"/>
<feBlend mode="normal" in2="BackgroundImageFix" result="effect1_dropShadow_46_18"/>
<feBlend mode="normal" in="SourceGraphic" in2="effect1_dropShadow_46_18" result="shape"/>
</filter>
<filter id="filter1_d_46_18" x="17.0652" y="14.1453" width="123.608" height="91.2078" filterUnits="userSpaceOnUse" color-interpolation-filters="sRGB">
<feFlood flood-opacity="0" result="BackgroundImageFix"/>
<feColorMatrix in="SourceAlpha" type="matrix" values="0 0 0 0 0 0 0 0 0 0 0 0 0 0 0 0 0 0 127 0" result="hardAlpha"/>
<feOffset dx="8" dy="8"/>
<feGaussianBlur stdDeviation="10"/>
<feComposite in2="hardAlpha" operator="out"/>
<feColorMatrix type="matrix" values="0 0 0 0 0 0 0 0 0 0 0 0 0 0 0 0 0 0 0.6 0"/>
<feBlend mode="normal" in2="BackgroundImageFix" result="effect1_dropShadow_46_18"/>
<feBlend mode="normal" in="SourceGraphic" in2="effect1_dropShadow_46_18" result="shape"/>
</filter>
<linearGradient id="paint0_linear_46_18" x1="70.9177" y1="12.5745" x2="102.332" y2="84.0534" gradientUnits="userSpaceOnUse">
<stop stop-color="#3D4C72"/>
<stop offset="1" stop-color="#1C243E"/>
</linearGradient>
<linearGradient id="paint1_linear_46_18" x1="70.8694" y1="26.1453" x2="98.2465" y2="77.0125" gradientUnits="userSpaceOnUse">
<stop stop-color="#E5EFFB"/>
<stop offset="1" stop-color="#8697AE"/>
</linearGradient>
<linearGradient id="paint2_linear_46_18" x1="70.9039" y1="84.2654" x2="70.9039" y2="125.232" gradientUnits="userSpaceOnUse">
<stop stop-color="#9B8C00"/>
<stop offset="1" stop-color="#FFF6A8"/>
</linearGradient>
<radialGradient id="paint3_radial_46_18" cx="0" cy="0" r="1" gradientUnits="userSpaceOnUse" gradientTransform="translate(32.6953 117.888) rotate(102.627) scale(2.56062 1.83126)">
<stop stop-color="#93CDFF"/>
<stop offset="1" stop-color="#1291FF" stop-opacity="0.4"/>
</radialGradient>
<radialGradient id="paint4_radial_46_18" cx="0" cy="0" r="1" gradientUnits="userSpaceOnUse" gradientTransform="translate(20.1262 129.922) rotate(102.627) scale(2.56062 1.83126)">
<stop stop-color="#93CDFF"/>
<stop offset="1" stop-color="#1291FF" stop-opacity="0.4"/>
</radialGradient>
<radialGradient id="paint5_radial_46_18" cx="0" cy="0" r="1" gradientUnits="userSpaceOnUse" gradientTransform="translate(26.3852 102.759) rotate(102.627) scale(5.75989 3.84761)">
<stop stop-color="#93CDFF"/>
<stop offset="1" stop-color="#1291FF" stop-opacity="0.4"/>
</radialGradient>
<radialGradient id="paint6_radial_46_18" cx="0" cy="0" r="1" gradientUnits="userSpaceOnUse" gradientTransform="translate(43.9066 106.668) rotate(102.627) scale(5.75989 3.8442)">
<stop stop-color="#93CDFF"/>
<stop offset="1" stop-color="#1291FF" stop-opacity="0.4"/>
</radialGradient>
<radialGradient id="paint7_radial_46_18" cx="0" cy="0" r="1" gradientUnits="userSpaceOnUse" gradientTransform="translate(42.9943 129.538) rotate(102.627) scale(3.84093 2.56348)">
<stop stop-color="#93CDFF"/>
<stop offset="1" stop-color="#1291FF" stop-opacity="0.4"/>
</radialGradient>
<radialGradient id="paint8_radial_46_18" cx="0" cy="0" r="1" gradientUnits="userSpaceOnUse" gradientTransform="translate(105.036 117.888) rotate(102.627) scale(2.56062 1.83126)">
<stop stop-color="#93CDFF"/>
<stop offset="1" stop-color="#1291FF" stop-opacity="0.4"/>
</radialGradient>
<radialGradient id="paint9_radial_46_18" cx="0" cy="0" r="1" gradientUnits="userSpaceOnUse" gradientTransform="translate(92.4656 129.921) rotate(102.627) scale(2.56062 1.83126)">
<stop stop-color="#93CDFF"/>
<stop offset="1" stop-color="#1291FF" stop-opacity="0.4"/>
</radialGradient>
<radialGradient id="paint10_radial_46_18" cx="0" cy="0" r="1" gradientUnits="userSpaceOnUse" gradientTransform="translate(98.7258 102.759) rotate(102.627) scale(5.75989 3.84761)">
<stop stop-color="#93CDFF"/>
<stop offset="1" stop-color="#1291FF" stop-opacity="0.4"/>
</radialGradient>
<radialGradient id="paint11_radial_46_18" cx="0" cy="0" r="1" gradientUnits="userSpaceOnUse" gradientTransform="translate(116.246 106.668) rotate(102.627) scale(5.75989 3.8442)">
<stop stop-color="#93CDFF"/>
<stop offset="1" stop-color="#1291FF" stop-opacity="0.4"/>
</radialGradient>
<radialGradient id="paint12_radial_46_18" cx="0" cy="0" r="1" gradientUnits="userSpaceOnUse" gradientTransform="translate(115.333 129.538) rotate(102.627) scale(3.84093 2.56348)">
<stop stop-color="#93CDFF"/>
<stop offset="1" stop-color="#1291FF" stop-opacity="0.4"/>
</radialGradient>
</defs>
</svg>
